<?xml version="1.0" encoding="UTF-8" standalone="no"?>
<!-- Created with Inkscape (http://www.inkscape.org/) -->

<svg
   xmlns:dc="http://purl.org/dc/elements/1.1/"
   xmlns:cc="http://creativecommons.org/ns#"
   xmlns:rdf="http://www.w3.org/1999/02/22-rdf-syntax-ns#"
   xmlns:svg="http://www.w3.org/2000/svg"
   xmlns="http://www.w3.org/2000/svg"
   xmlns:sodipodi="http://sodipodi.sourceforge.net/DTD/sodipodi-0.dtd"
   xmlns:inkscape="http://www.inkscape.org/namespaces/inkscape"
   width="242.01031mm"
   height="259.46536mm"
   viewBox="0 0 857.5169 919.36547"
   id="svg2"
   version="1.1"
   inkscape:version="0.91 r13725"
   sodipodi:docname="concept2-03.svg"
   inkscape:export-filename="/Users/janereynolds/Desktop/concept2-02.png"
   inkscape:export-xdpi="90"
   inkscape:export-ydpi="90">
  <defs
     id="defs4" />
  <sodipodi:namedview
     id="base"
     pagecolor="#ffffff"
     bordercolor="#666666"
     borderopacity="1.0"
     inkscape:pageopacity="0.0"
     inkscape:pageshadow="2"
     inkscape:zoom="0.4980586"
     inkscape:cx="456.07176"
     inkscape:cy="495.67486"
     inkscape:document-units="px"
     inkscape:current-layer="layer6"
     showgrid="false"
     showguides="false"
     inkscape:guide-bbox="true"
     inkscape:window-width="1070"
     inkscape:window-height="710"
     inkscape:window-x="35"
     inkscape:window-y="0"
     inkscape:window-maximized="0"
     inkscape:snap-global="false"
     fit-margin-top="0"
     fit-margin-left="0"
     fit-margin-right="0"
     fit-margin-bottom="0">
    <sodipodi:guide
       position="428.63499,138.10676"
       orientation="1,0"
       id="guide4254" />
  </sodipodi:namedview>
  <metadata
     id="metadata7">
    <rdf:RDF>
      <cc:Work
         rdf:about="">
        <dc:format>image/svg+xml</dc:format>
        <dc:type
           rdf:resource="http://purl.org/dc/dcmitype/StillImage" />
        <dc:title></dc:title>
      </cc:Work>
    </rdf:RDF>
  </metadata>
  <g
     inkscape:groupmode="layer"
     id="layer6"
     inkscape:label="bg"
     transform="translate(-347.66763,27.686609)"
     style="display:inline">
    <rect
       style="opacity:1;fill:#dcdcd2;fill-opacity:1;stroke:none;stroke-width:5;stroke-linecap:round;stroke-linejoin:round;stroke-miterlimit:4;stroke-dasharray:none;stroke-dashoffset:0;stroke-opacity:1"
       id="rect4295"
       width="857.51685"
       height="919.36548"
       x="347.66763"
       y="-27.686609" />
  </g>
  <g
     inkscape:groupmode="layer"
     id="layer5"
     inkscape:label="reference shapes copy"
     style="display:none"
     transform="translate(-347.66763,27.686609)">
    <ellipse
       transform="translate(398.2859,325.49491)"
       ry="345.63965"
       rx="381.2103"
       cy="21.219341"
       cx="379.38245"
       id="ellipse4258"
       style="display:inline;opacity:1;fill:#6918b7;fill-opacity:0.53333285;stroke:#3f0d85;stroke-width:2.14935637;stroke-linecap:round;stroke-linejoin:round;stroke-miterlimit:4;stroke-dasharray:none;stroke-dashoffset:0;stroke-opacity:1" />
    <ellipse
       transform="translate(398.2859,325.49491)"
       ry="371.41827"
       rx="368.41827"
       cy="165.69394"
       cx="669.38245"
       id="ellipse4260"
       style="display:inline;opacity:1;fill:#189cb7;fill-opacity:0.53333285;stroke:#3f0d85;stroke-width:4.16354179;stroke-linecap:round;stroke-linejoin:round;stroke-miterlimit:4;stroke-dasharray:none;stroke-dashoffset:0;stroke-opacity:1" />
    <ellipse
       transform="translate(398.2859,325.49491)"
       ry="371.41827"
       rx="368.41827"
       style="display:inline;opacity:1;fill:#aa18b7;fill-opacity:0.53333285;stroke:#3f0d85;stroke-width:4.16354227;stroke-linecap:round;stroke-linejoin:round;stroke-miterlimit:4;stroke-dasharray:none;stroke-dashoffset:0;stroke-opacity:1"
       id="ellipse4262"
       cx="89.382439"
       cy="165.69391" />
    <ellipse
       transform="translate(398.2859,325.49491)"
       ry="356.27814"
       rx="478.06381"
       cy="555.86218"
       cx="80.999756"
       id="ellipse4264"
       style="display:inline;opacity:1;fill:#6918b7;fill-opacity:0.53333285;stroke:#3f0d85;stroke-width:2.44372249;stroke-linecap:round;stroke-linejoin:round;stroke-miterlimit:4;stroke-dasharray:none;stroke-dashoffset:0;stroke-opacity:1" />
    <ellipse
       transform="translate(398.2859,325.49491)"
       style="display:inline;opacity:1;fill:#6918b7;fill-opacity:0.53333285;stroke:#3f0d85;stroke-width:2.44372249;stroke-linecap:round;stroke-linejoin:round;stroke-miterlimit:4;stroke-dasharray:none;stroke-dashoffset:0;stroke-opacity:1"
       id="ellipse4266"
       cx="675.28552"
       cy="555.86218"
       rx="478.06381"
       ry="356.27814" />
  </g>
  <g
     inkscape:label="reference shapes"
     inkscape:groupmode="layer"
     id="layer1"
     style="display:none"
     transform="translate(50.618279,353.18152)">
    <ellipse
       style="opacity:1;fill:#6918b7;fill-opacity:0.53333285;stroke:none;stroke-width:2.14935637;stroke-linecap:round;stroke-linejoin:round;stroke-miterlimit:4;stroke-dasharray:none;stroke-dashoffset:0;stroke-opacity:1"
       id="path4203"
       cx="379.38245"
       cy="21.219341"
       rx="381.2103"
       ry="345.63965" />
    <path
       style="opacity:1;fill:#189cb7;fill-opacity:0.53333285;stroke:none;stroke-width:4.16400003;stroke-linecap:round;stroke-linejoin:round;stroke-miterlimit:4;stroke-dasharray:none;stroke-dashoffset:0;stroke-opacity:1"
       d="m 704.42823,204.99091 c -83.8252,104.82151 -169.3069,136.70392 -221.00329,154.88668 -39.73976,12.64348 -97.85867,10.32104 -131.2591,-6.13244 -31.80475,-54.92003 -50.02841,-118.81146 -50.02841,-186.99391 0,-204.129606 164.19193,-369.44045 366.2963,-371.04931 134.92885,141.597204 101.25875,319.99822 35.9945,409.289 z"
       id="path4240"
       inkscape:connector-curvature="0"
       sodipodi:nodetypes="cccsccc" />
    <path
       style="opacity:1;fill:#2cb718;fill-opacity:0.40784314;stroke:none;stroke-width:2.44372249;stroke-linecap:round;stroke-linejoin:round;stroke-miterlimit:4;stroke-dasharray:none;stroke-dashoffset:0;stroke-opacity:1"
       d="m 477.94682,361.30144 c 40.89685,31.70421 64.65051,112.54394 77.87906,161.22571 -74.75129,-35.10688 -186.94485,-93.84495 -226.49155,-212.55636 -1.04336,-3.13197 5.23771,-4.04448 7.90903,-6.03529 33.74553,-25.14893 72.01656,-46.14983 113.38662,-62.56235 68.54097,-27.19189 145.58852,-41.7891 224.65554,-41.7891 7.15936,0 14.30216,0.11968 21.42359,0.35756 3.62054,0.65709 6.69589,5.6938 2.91364,10.75807 -73.85117,98.88345 -175.91455,125.892 -221.67593,150.60176 z"
       id="ellipse4250"
       inkscape:connector-curvature="0"
       sodipodi:nodetypes="ccsssscsc" />
    <path
       style="opacity:1;fill:#aa18b7;fill-opacity:0.53333285;stroke:none;stroke-width:4.16354227;stroke-linecap:round;stroke-linejoin:round;stroke-miterlimit:4;stroke-dasharray:none;stroke-dashoffset:0;stroke-opacity:1"
       d="m 457.70217,166.0159 c 0,75.29807 -22.60347,144.2362 -61.04511,202.03857 -47.35787,1.76016 -81.39474,-5.62909 -118.9797,-12.44776 C 158.49128,324.17814 112.29421,271.85884 55.151355,202.44447 5.7274947,135.12491 -16.225445,36.23064 7.5499047,-55.227906 17.493795,-93.479876 36.979375,-141.04875 76.270755,-188.30433 c 3.79221,-4.56088 7.93648,-8.97354 12.12926,-13.49938 0.51774,-0.58086 2.69207,-3.15473 3.46904,-3.4654 202.398325,1.2651 365.833125,166.940514 365.833115,371.28472 z"
       id="circle4242"
       inkscape:connector-curvature="0"
       sodipodi:nodetypes="scccssccss" />
    <path
       style="opacity:1;fill:#2cb718;fill-opacity:0.40784314;stroke:none;stroke-width:2.44372249;stroke-linecap:round;stroke-linejoin:round;stroke-miterlimit:4;stroke-dasharray:none;stroke-dashoffset:0;stroke-opacity:1"
       d="m 1489.9104,544.80361 c 0,0 -53.0976,-9.10491 -77.6439,-14.01403 7.334,-22.73725 34.6617,-30.2737 42.4421,-46.3537 14.0987,11.96913 35.2018,60.36773 35.2018,60.36773 z"
       id="path4309"
       inkscape:connector-curvature="0"
       sodipodi:nodetypes="cccc" />
    <path
       style="opacity:1;fill:#6918b7;fill-opacity:0.43589747;stroke:none;stroke-width:2.44372249;stroke-linecap:round;stroke-linejoin:round;stroke-miterlimit:4;stroke-dasharray:none;stroke-dashoffset:0;stroke-opacity:1"
       d="m 399.5771,370.3928 c -8.84216,12.98694 -11.73228,13.27993 -20.82365,25.86526 -36.36549,57.67954 -142.62649,124.51308 -179.40476,121.74979 7.50301,-76.07228 59.35029,-157.77769 137.59895,-216.09268 33.55676,-25.00825 71.58852,-45.91474 112.69263,-62.28648 68.71469,-27.36902 146.01555,-42.06497 225.34954,-42.06497 7.60939,0 15.20008,0.1352 22.76629,0.40382 -2.71379,29.46098 -18.50552,28.01048 -47.36887,65.56184 C 592.66506,316.83869 504.18766,365.04751 399.5771,370.3928 Z"
       id="ellipse4248"
       inkscape:connector-curvature="0"
       sodipodi:nodetypes="cccsssccc" />
    <path
       sodipodi:nodetypes="cccc"
       inkscape:connector-curvature="0"
       id="path4305"
       d="m 1335.4949,488.60463 c 0,0 45.5215,-24.23013 70.0678,-33.96822 -2.2833,25.76771 -13.4485,50.98183 -21.2288,67.06183 -14.0988,-11.96913 -48.839,-33.09361 -48.839,-33.09361 z"
       style="opacity:1;fill:#2cb718;fill-opacity:0.40784314;stroke:none;stroke-width:2.44372249;stroke-linecap:round;stroke-linejoin:round;stroke-miterlimit:4;stroke-dasharray:none;stroke-dashoffset:0;stroke-opacity:1" />
    <path
       style="opacity:1;fill:#aa18b7;fill-opacity:0.53333285;stroke:none;stroke-width:2.44372249;stroke-linecap:round;stroke-linejoin:round;stroke-miterlimit:4;stroke-dasharray:none;stroke-dashoffset:0;stroke-opacity:1"
       d="m 1323.4037,490.979 c 0,0 -45.5215,-24.23013 -70.0678,-33.96822 2.2833,25.76771 13.4485,50.98183 21.2288,67.06183 14.0988,-11.96913 48.839,-33.09361 48.839,-33.09361 z"
       id="path4307"
       inkscape:connector-curvature="0"
       sodipodi:nodetypes="cccc"
       inkscape:transform-center-x="-80.000004"
       inkscape:transform-center-y="-44.285701" />
    <path
       sodipodi:nodetypes="ssccssccss"
       inkscape:connector-curvature="0"
       id="path4313"
       d="m -370.62291,44.797595 c 0,166.528185 -110.55617,301.949145 -258.48724,354.602315 -23.60619,8.40217 52.10134,-136.22216 78.46243,-165.01151 -119.18608,-31.42857 -165.38315,-83.74787 -222.52601,-153.162235 -49.42386,-67.31956 -71.3768,-166.21383 -47.60145,-257.672375 9.94389,-38.25197 29.42947,-85.82085 68.72085,-133.07643 3.79221,-4.56088 7.93648,-8.97354 12.12926,-13.49938 0.51774,-0.58086 2.69207,-3.15473 3.46904,-3.4654 202.39833,1.2651 365.83313,166.94052 365.83312,371.284725 z"
       style="opacity:1;fill:#aa18b7;fill-opacity:0.53333285;stroke:none;stroke-width:4.16354227;stroke-linecap:round;stroke-linejoin:round;stroke-miterlimit:4;stroke-dasharray:none;stroke-dashoffset:0;stroke-opacity:1" />
  </g>
  <g
     inkscape:groupmode="layer"
     id="layer7"
     inkscape:label="fills"
     style="display:inline"
     transform="translate(28.109123,30.116949)">
    <path
       transform="translate(22.509156,323.06457)"
       style="display:inline;opacity:1;fill:#af83d8;fill-opacity:1;stroke:#af83d8;stroke-width:2;stroke-linecap:round;stroke-linejoin:round;stroke-miterlimit:4;stroke-dasharray:none;stroke-dashoffset:0;stroke-opacity:1"
       d="m 374.1767,-74.271874 c -30.96311,-42.616886 -85.20708,-84.703916 -150.84518,-112.701566 -50.43899,-21.51453 -89.95871,-22.35338 -125.320483,-25.0104 69.701933,-69.09831 169.954743,-112.43647 281.371413,-112.43647 110.9749,0 210.87428,42.99516 280.54085,111.61575 -39.62832,2.62102 -68.50985,7.99812 -92.93012,15.24241 -85.32767,25.31252 -148.66392,76.29976 -184.25572,123.390567 -3.68848,4.430574 -5.26059,4.01394 -8.56076,-0.100291 z"
       id="ellipse4442"
       inkscape:connector-curvature="0"
       sodipodi:nodetypes="cscscscc" />
    <path
       sodipodi:nodetypes="ccsc"
       inkscape:connector-curvature="0"
       id="path4363"
       d="M 254.04066,1072.9619 C 165.38352,974.5439 28.713386,917.40013 -168.60038,918.36158 c 22.37482,35.96209 66.56531,82.09632 111.934626,109.42492 78.36304,47.2024 197.776104,74.405 310.706414,45.1754 z"
       style="fill:#8b30ba;fill-opacity:1;fill-rule:evenodd;stroke:#8b30ba;stroke-width:3;stroke-linecap:butt;stroke-linejoin:round;stroke-miterlimit:4;stroke-dasharray:none;stroke-opacity:1" />
    <ellipse
       transform="translate(22.509156,323.06457)"
       style="display:inline;opacity:1;fill:#a542bc;fill-opacity:1;stroke:none;stroke-width:5;stroke-linecap:round;stroke-linejoin:round;stroke-miterlimit:4;stroke-dasharray:none;stroke-dashoffset:0;stroke-opacity:1"
       id="ellipse4316"
       cx="1079.0118"
       cy="-36.279762"
       rx="68.93187"
       ry="68.809326" />
    <ellipse
       transform="translate(22.509156,323.06457)"
       ry="68.095039"
       rx="67.093636"
       cy="-33.142052"
       cx="938.37463"
       id="ellipse4318"
       style="display:inline;opacity:1;fill:#834cb8;fill-opacity:1;stroke:none;stroke-width:5;stroke-linecap:round;stroke-linejoin:round;stroke-miterlimit:4;stroke-dasharray:none;stroke-dashoffset:0;stroke-opacity:1" />
    <ellipse
       transform="translate(22.509156,323.06457)"
       style="display:inline;opacity:1;fill:#7239a6;fill-opacity:1;stroke:none;stroke-width:5;stroke-linecap:round;stroke-linejoin:round;stroke-miterlimit:4;stroke-dasharray:none;stroke-dashoffset:0;stroke-opacity:1"
       id="ellipse4320"
       cx="936.94598"
       cy="-175.99921"
       rx="67.093636"
       ry="68.095039" />
    <ellipse
       transform="translate(22.509156,323.06457)"
       style="display:inline;opacity:1;fill:#546295;fill-opacity:1;stroke:none;stroke-width:5;stroke-linecap:round;stroke-linejoin:round;stroke-miterlimit:4;stroke-dasharray:none;stroke-dashoffset:0;stroke-opacity:1"
       id="ellipse4322"
       cx="936.94604"
       cy="106.85796"
       rx="67.093636"
       ry="68.095039" />
    <ellipse
       transform="translate(22.509156,323.06457)"
       style="display:inline;opacity:1;fill:#8b30ba;fill-opacity:1;stroke:none;stroke-width:5;stroke-linecap:round;stroke-linejoin:round;stroke-miterlimit:4;stroke-dasharray:none;stroke-dashoffset:0;stroke-opacity:1"
       id="ellipse4324"
       cx="1075.5176"
       cy="-175.99919"
       rx="67.093636"
       ry="68.095039" />
    <ellipse
       transform="translate(22.509156,323.06457)"
       ry="68.095039"
       rx="67.093636"
       cy="246.85796"
       cx="1076.9462"
       id="ellipse4326"
       style="display:inline;opacity:1;fill:#94cc85;fill-opacity:1;stroke:none;stroke-width:5;stroke-linecap:round;stroke-linejoin:round;stroke-miterlimit:4;stroke-dasharray:none;stroke-dashoffset:0;stroke-opacity:1" />
    <ellipse
       transform="translate(22.509156,323.06457)"
       ry="68.095039"
       rx="67.093636"
       cy="246.85796"
       cx="932.66034"
       id="ellipse4328"
       style="display:inline;opacity:1;fill:#5689bc;fill-opacity:1;stroke:none;stroke-width:5;stroke-linecap:round;stroke-linejoin:round;stroke-miterlimit:4;stroke-dasharray:none;stroke-dashoffset:0;stroke-opacity:1" />
    <ellipse
       transform="translate(22.509156,323.06457)"
       style="display:inline;opacity:1;fill:#807d9b;fill-opacity:1;stroke:none;stroke-width:5;stroke-linecap:round;stroke-linejoin:round;stroke-miterlimit:4;stroke-dasharray:none;stroke-dashoffset:0;stroke-opacity:1"
       id="ellipse4330"
       cx="1078.3746"
       cy="108.28653"
       rx="67.093636"
       ry="68.095039" />
    <path
       style="fill:#834cb8;fill-opacity:1;fill-rule:evenodd;stroke:#834cb8;stroke-width:3;stroke-linecap:butt;stroke-linejoin:round;stroke-miterlimit:4;stroke-dasharray:none;stroke-opacity:1"
       d="m 395.26938,269.50863 c -65.70035,92.62435 -76.54188,190.99202 -63.77515,290.71498 22.88174,7.74344 47.9792,20.97279 69.563,32.87504 20.12623,-11.54232 43.6849,-22.40225 68.97492,-31.95357 13.34448,-103.8285 0.70714,-199.69258 -61.67537,-290.64208 -3.90524,-5.46325 -8.72714,-6.74586 -13.0874,-0.99437 z"
       id="path4365"
       inkscape:connector-curvature="0"
       sodipodi:nodetypes="cccccc" />
    <path
       sodipodi:nodetypes="ccccc"
       inkscape:connector-curvature="0"
       id="path4367"
       d="m -137.50866,381.66261 c -71.29299,95.13218 -90.46391,194.69968 -70.77481,300.53564 23.5916,7.38851 47.18321,18.58485 70.77481,34.00074 22.13402,-13.55012 43.857136,-24.44942 71.276746,-34.00074 21.34507,-107.99784 -3.0218,-206.72915 -71.276746,-300.53564 z"
       style="fill:none;fill-rule:evenodd;stroke:#000000;stroke-width:1px;stroke-linecap:butt;stroke-linejoin:miter;stroke-opacity:1" />
    <path
       inkscape:transform-center-y="-44.285701"
       inkscape:transform-center-x="-80.000004"
       sodipodi:nodetypes="cccc"
       inkscape:connector-curvature="0"
       id="path4373"
       d="m 394.02969,597.7886 c -20.28341,-11.67417 -36.81826,-19.05836 -59.13213,-28.09401 5.97988,26.70197 9.56464,37.28224 17.0888,56.71422 13.29782,-10.46146 34.95361,-24.752 42.04333,-28.62021 z"
       style="display:inline;opacity:1;fill:#807d9b;fill-opacity:1;stroke:#807d9b;stroke-width:2;stroke-linecap:round;stroke-linejoin:round;stroke-miterlimit:4;stroke-dasharray:none;stroke-dashoffset:0;stroke-opacity:1" />
    <path
       inkscape:transform-center-y="72.772776"
       inkscape:transform-center-x="32.796785"
       sodipodi:nodetypes="cccc"
       inkscape:connector-curvature="0"
       id="path4380"
       d="m 930.78409,861.10174 c 30.87759,-1.74921 57.18774,-6.7972 77.06891,-11.78415 -12.97942,-15.3098 -32.66432,-35.12088 -48.9481,-46.80248 -5.64739,16.64383 -25.63535,55.03458 -28.12081,58.58663 z"
       style="display:inline;opacity:1;fill:#807d9b;fill-opacity:1;stroke:#807d9b;stroke-width:2;stroke-linecap:round;stroke-linejoin:round;stroke-miterlimit:4;stroke-dasharray:none;stroke-dashoffset:0;stroke-opacity:1" />
    <path
       style="fill:#94cc85;fill-opacity:1;fill-rule:evenodd;stroke:#94cc85;stroke-width:3;stroke-linecap:butt;stroke-linejoin:round;stroke-miterlimit:4;stroke-dasharray:none;stroke-opacity:1"
       d="m 355.48674,633.11287 c 17.57178,-13.75036 37.81038,-26.64175 45.79479,-30.80473 7.70288,4.85358 31.40061,19.61825 45.24822,31.54689 -6.44011,15.84552 -14.05283,31.79074 -29.11279,55.72999 -13.6773,0.80411 -19.16288,0.58493 -32.95923,-0.61486 -11.17227,-18.0338 -22.54724,-38.83918 -28.97099,-55.85729 z"
       id="path4341"
       inkscape:connector-curvature="0"
       sodipodi:nodetypes="cccccc" />
    <path
       style="fill:#9f73c3;fill-opacity:1;fill-rule:evenodd;stroke:#9f73c3;stroke-width:5;stroke-linecap:butt;stroke-linejoin:round;stroke-miterlimit:4;stroke-dasharray:none;stroke-opacity:1"
       d="m 303.32681,684.14667 c -42.54623,52.52986 -63.1296,98.97914 -78.89875,153.9074 57.21663,-22.98745 115.50473,-52.08483 170.21273,-118.98079 l -15.07198,-21.27066 c -30.20245,-2.1691 -50.29501,-6.70376 -76.242,-13.65595 z"
       id="path4384"
       inkscape:connector-curvature="0"
       sodipodi:nodetypes="ccccc" />
    <path
       sodipodi:nodetypes="ccccc"
       inkscape:connector-curvature="0"
       id="path4386"
       d="m 499.76205,687.2097 c 42.54623,52.52986 59.41327,93.74129 75.18242,148.66955 C 517.72784,812.8918 463.08779,784.60824 407.66993,719.48694 l 14.6257,-21.14887 c 29.49259,-0.74937 51.87436,-5.59591 77.46642,-11.12837 z"
       style="fill:#9f73c3;fill-opacity:1;fill-rule:evenodd;stroke:#9f73c3;stroke-width:5;stroke-linecap:butt;stroke-linejoin:round;stroke-miterlimit:4;stroke-dasharray:none;stroke-opacity:1" />
    <path
       sodipodi:nodetypes="ccsscsscc"
       inkscape:connector-curvature="0"
       id="path4411"
       d="m 436.93307,1056.3382 c -13.42256,-13.4606 -47.89341,-34.4593 -48.03103,-34.1024 0,0 1.20383,-0.7344 1.82513,-1.0687 80.30001,-43.21451 175.2724,-67.14397 305.29271,-71.62024 1.61313,-0.0555 3.23394,1.95981 4.85961,1.97009 -0.69028,0.98304 0.0266,2.32414 -0.68853,3.31311 -24.67183,34.11908 -65.40067,71.23334 -108.46014,99.43424 -49.29293,32.2833 -113.55908,56.6741 -184.80312,60.4049 10.68061,-13.8659 22.836,-39.425 30.00537,-58.331 z"
       style="fill:#5c4ea6;fill-opacity:1;fill-rule:evenodd;stroke:#5c4ea6;stroke-width:2;stroke-linecap:butt;stroke-linejoin:round;stroke-miterlimit:4;stroke-dasharray:none;stroke-opacity:1" />
    <path
       style="fill:#5c4ea6;fill-opacity:1;fill-rule:evenodd;stroke:#5c4ea6;stroke-width:2;stroke-linecap:butt;stroke-linejoin:round;stroke-miterlimit:4;stroke-dasharray:none;stroke-opacity:1"
       d="m 16.673418,1099.2784 c 97.022522,3.3403 169.252652,16.2637 235.710002,41.1983 1.72411,7.8574 21.1208,59.5347 23.37788,65.5928 7.16937,18.906 19.32329,44.4661 30.0039,58.332 -71.24404,-3.7309 -135.5098,-28.1229 -184.80273,-60.4063 -43.059466,-28.2008 -83.787146,-65.3145 -108.458972,-99.4336 -0.71513,-0.9889 -1.06398,-2.3294 -0.33453,-3.6674 0.91581,-1.43 2.89132,-1.6713 4.50445,-1.6158 z"
       id="path4418"
       inkscape:connector-curvature="0"
       sodipodi:nodetypes="ccccsscc" />
    <path
       style="display:inline;opacity:1;fill:#807d9b;fill-opacity:1;stroke:#807d9b;stroke-width:2;stroke-linecap:round;stroke-linejoin:round;stroke-miterlimit:4;stroke-dasharray:none;stroke-dashoffset:0;stroke-opacity:1"
       d="m 375.52989,688.47962 c -25.90854,-1.74921 -48.31445,-6.44227 -68.19566,-11.42922 12.97946,-14.24501 26.63053,-27.31238 42.20444,-39.34891 5.64739,16.64383 23.50576,47.22608 25.99122,50.77813 z"
       id="path4420"
       inkscape:connector-curvature="0"
       sodipodi:nodetypes="cccc"
       inkscape:transform-center-x="-32.796785"
       inkscape:transform-center-y="72.772776" />
    <path
       style="fill:#9f73c3;fill-opacity:1;fill-rule:evenodd;stroke:#9f73c3;stroke-width:2;stroke-linecap:butt;stroke-linejoin:round;stroke-miterlimit:4;stroke-dasharray:none;stroke-opacity:1"
       d="m 88.480469,525.4043 c -1.61313,-0.0555 -3.588097,0.1852 -4.503907,1.61523 -0.729449,1.33797 -0.381145,2.679 0.333985,3.66797 24.671823,34.11908 65.487513,71.24429 109.167543,98.47406 35.64375,22.22003 76.24552,36.37003 106.5469,46.20674 13.40246,-17.55595 35.12771,-35.04752 46.59222,-44.42879 C 336.47958,607.1867 332.86711,591.85807 326.86425,566.37596 260.4069,541.44135 185.50299,528.74454 88.480469,525.4043 Z"
       id="path4422"
       inkscape:connector-curvature="0"
       sodipodi:nodetypes="ccsscccc" />
    <path
       style="display:inline;opacity:1;fill:#807d9b;fill-opacity:1;stroke:#807d9b;stroke-width:2;stroke-linecap:round;stroke-linejoin:round;stroke-miterlimit:4;stroke-dasharray:none;stroke-dashoffset:0;stroke-opacity:1"
       d="m 408.72325,597.7886 c 20.28341,-11.67417 36.81826,-19.05836 59.13213,-28.09401 -5.97988,26.70197 -9.56464,37.28224 -17.0888,56.71422 -13.29782,-10.46146 -34.95361,-24.752 -42.04333,-28.62021 z"
       id="path4426"
       inkscape:connector-curvature="0"
       sodipodi:nodetypes="cccc"
       inkscape:transform-center-x="80.000009"
       inkscape:transform-center-y="-44.285701" />
    <path
       sodipodi:nodetypes="cccsscc"
       inkscape:connector-curvature="0"
       id="path4428"
       d="m 660.52697,1101.4576 c -97.02253,3.3403 -170.67239,13.7791 -237.12974,38.7138 -10.55573,44.809 -25.34325,86.9381 -51.96205,126.4093 71.24404,-3.7309 135.5098,-28.123 184.80273,-60.4063 43.05947,-28.2008 83.78715,-65.3145 108.45898,-99.4336 0.71513,-0.9889 1.06398,-2.3294 0.33453,-3.6674 -0.91581,-1.43 -2.89132,-1.6713 -4.50445,-1.6158 z"
       style="fill:#5c4ea6;fill-opacity:1;fill-rule:evenodd;stroke:#5c4ea6;stroke-width:2;stroke-linecap:butt;stroke-linejoin:round;stroke-miterlimit:4;stroke-dasharray:none;stroke-opacity:1" />
    <path
       sodipodi:nodetypes="ccsscccc"
       inkscape:connector-curvature="0"
       id="path4430"
       d="m 715.82084,523.27471 c 1.61313,-0.0555 3.5881,0.1852 4.50391,1.61523 0.72945,1.33797 0.38114,2.679 -0.33399,3.66797 -24.67182,34.11908 -65.7715,71.97647 -108.68712,100.39574 -36.39667,24.10233 -78.08292,40.37823 -108.3843,48.79521 -13.40246,-17.55595 -35.0256,-37.04793 -46.49011,-46.4292 9.3847,-22.49793 13.24815,-39.08144 19.25101,-64.56355 66.45735,-24.93461 143.11808,-40.14116 240.1406,-43.4814 z"
       style="fill:#9f73c3;fill-opacity:1;fill-rule:evenodd;stroke:#9f73c3;stroke-width:2;stroke-linecap:butt;stroke-linejoin:round;stroke-miterlimit:4;stroke-dasharray:none;stroke-opacity:1" />
    <path
       inkscape:transform-center-y="72.772776"
       inkscape:transform-center-x="32.79679"
       sodipodi:nodetypes="cccc"
       inkscape:connector-curvature="0"
       id="path4432"
       d="m 426.04514,689.48352 c 25.90854,-1.74921 48.56542,-4.93642 68.44663,-9.92337 -12.97946,-14.24501 -26.12858,-28.81823 -41.70249,-40.85476 -5.64739,16.64383 -24.25868,47.22608 -26.74414,50.77813 z"
       style="display:inline;opacity:1;fill:#807d9b;fill-opacity:1;stroke:#807d9b;stroke-width:2;stroke-linecap:round;stroke-linejoin:round;stroke-miterlimit:4;stroke-dasharray:none;stroke-dashoffset:0;stroke-opacity:1" />
    <path
       sodipodi:nodetypes="cscsssccssc"
       inkscape:connector-curvature="0"
       id="path4434"
       d="m 704.34734,196.21419 c -5.8893,-3.71194 -20.42569,-2.25338 -26.32435,-2.07303 -66.87242,2.04462 -148.19998,12.77048 -222.48089,40.23886 4.30952,-17.8647 7.25072,-58.12219 6.02535,-84.97248 -0.79774,-17.4802 -2.50113,-36.40234 -6.81231,-59.497553 -9.07026,-48.589795 -22.75868,-79.461231 -37.61664,-106.748834 -9.28082,-17.044809 -22.79894,-42.822778 -32.77876,-47.542661 67.16543,-84.564212 166.42487,-138.109632 281.9444,-139.029232 15.47711,16.21132 32.00672,37.92807 42.19626,54.12746 67.05848,106.609969 58.96564,218.010147 23.07142,297.88922 -12.07414,26.86982 -22.44153,43.56609 -27.22448,47.60825 z"
       style="display:inline;opacity:1;fill:#86abcf;fill-opacity:1;stroke:#86abcf;stroke-width:4.16400003;stroke-linecap:round;stroke-linejoin:round;stroke-miterlimit:4;stroke-dasharray:none;stroke-dashoffset:0;stroke-opacity:1"
       transform="translate(22.509156,323.06457)" />
    <path
       style="display:inline;opacity:1;fill:#86abcf;fill-opacity:1;stroke:#86abcf;stroke-width:4.16400003;stroke-linecap:round;stroke-linejoin:round;stroke-miterlimit:4;stroke-dasharray:none;stroke-dashoffset:0;stroke-opacity:1"
       d="m 75.86481,519.27876 c 5.8893,-3.71194 20.42569,-2.25338 26.32435,-2.07303 66.87242,2.04462 148.19998,12.77048 222.48089,40.23886 -4.30952,-17.8647 -7.25072,-58.12219 -6.02535,-84.97248 0.79774,-17.4802 2.50113,-36.40234 6.81231,-59.49755 9.07026,-48.5898 22.75868,-79.46123 37.61664,-106.74884 9.28082,-17.04481 22.79894,-42.82278 32.77876,-47.54266 C 328.68698,174.11885 229.42754,120.57343 113.90801,119.65383 98.4309,135.86515 81.90129,157.5819 71.71175,173.78129 4.6532699,280.39126 12.74611,391.79144 48.64033,471.67051 c 12.07414,26.86982 22.44153,43.56609 27.22448,47.60825 z"
       id="path4445"
       inkscape:connector-curvature="0"
       sodipodi:nodetypes="cscsssccssc" />
    <ellipse
       ry="68.095039"
       rx="67.093636"
       cy="19.290031"
       cx="1029.8799"
       id="ellipse4447"
       style="display:inline;opacity:1;fill:#af83d8;fill-opacity:1;stroke:none;stroke-width:5;stroke-linecap:round;stroke-linejoin:round;stroke-miterlimit:4;stroke-dasharray:none;stroke-dashoffset:0;stroke-opacity:1" />
  </g>
  <g
     inkscape:groupmode="layer"
     id="layer2"
     inkscape:label="reference lines"
     style="display:none"
     transform="translate(50.618279,353.18152)">
    <path
       inkscape:connector-curvature="0"
       id="path4150"
       d="m 384.539,120.73687 c 0,0 238.396,408.10163 -189.90868,511.13719 -20.88692,4.05174 -20.63267,-8.752 -12.80287,-31.27413 0,0 85.77016,-242.11101 416.18285,-270.72088 41.31259,-2.60343 76.24735,6.46071 1.89776,76.45543 -250.26968,235.61066 -437.64807,19.06541 -454.56865,0 -40.2223,-45.32083 -62.758811,-81.79876 -1.6528,-76.45543 171.53997,18.87831 351.34876,100.16519 418.34459,275.82986 4.09566,10.98291 12.85507,32.20783 -14.52853,26.16515 C 119.19799,528.8385 357.59399,120.73687 357.59399,120.73687 c 7.30199,-11.75777 14.40474,-24.910231 26.94501,0 z"
       style="fill:none;fill-rule:evenodd;stroke:#000000;stroke-width:5;stroke-linecap:butt;stroke-linejoin:miter;stroke-miterlimit:4;stroke-dasharray:none;stroke-opacity:1"
       sodipodi:nodetypes="ccccssccccc" />
  </g>
  <g
     inkscape:groupmode="layer"
     id="layer3"
     inkscape:label="lines take 2"
     transform="translate(50.618279,353.18152)"
     style="display:none">
    <path
       sodipodi:nodetypes="cccccscsccc"
       inkscape:connector-curvature="0"
       id="path4283"
       d="m 688.87362,198.6951 c -175.26563,6.4195 -418.60248,54.73168 -491.37229,312.17101 -3.06208,11.07652 5.62615,9.22618 10.57569,7.37349 283.01992,-108.59107 298.3375,-422.152371 176.81109,-575.152293 -5.20597,-6.609361 -8.54987,-6.320614 -13.73309,0.270214 C 251.21561,97.095185 266.4441,410.94394 549.3021,516.81103 c 9.64788,3.61097 9.72984,-0.0426 7.54738,-7.77298 C 483.94096,251.94822 240.76529,203.68141 65.590303,197.26653 c -10.636848,-0.38952 -12.342999,2.99226 -7.001141,10.73334 102.052478,150.68648 418.000498,272.38991 638.845988,3.98609 6.26406,-8.2127 2.32472,-13.70168 -8.56153,-13.29086 z"
       style="fill:none;fill-rule:evenodd;stroke:#ffffff;stroke-width:5;stroke-linecap:butt;stroke-linejoin:miter;stroke-miterlimit:4;stroke-dasharray:none;stroke-opacity:0.6878981" />
    <ellipse
       ry="137.38075"
       rx="135.36044"
       cy="426.46866"
       cx="1654.3441"
       id="ellipse4299"
       style="opacity:1;fill:#6918b7;fill-opacity:0.53333285;stroke:none;stroke-width:5;stroke-linecap:round;stroke-linejoin:round;stroke-miterlimit:4;stroke-dasharray:none;stroke-dashoffset:0;stroke-opacity:1" />
    <ellipse
       style="opacity:1;fill:#189cb7;fill-opacity:0.53333285;stroke:none;stroke-width:5;stroke-linecap:round;stroke-linejoin:round;stroke-miterlimit:4;stroke-dasharray:none;stroke-dashoffset:0;stroke-opacity:1"
       id="ellipse4301"
       cx="1694.7501"
       cy="125.44318"
       rx="135.36044"
       ry="137.38075" />
    <ellipse
       ry="137.38075"
       rx="135.36044"
       cy="295.1488"
       cx="1365.4404"
       id="ellipse4303"
       style="opacity:1;fill:#aa18b7;fill-opacity:0.53333285;stroke:none;stroke-width:5;stroke-linecap:round;stroke-linejoin:round;stroke-miterlimit:4;stroke-dasharray:none;stroke-dashoffset:0;stroke-opacity:1" />
    <ellipse
       style="opacity:1;fill:#2cb718;fill-opacity:0.40784314;stroke:none;stroke-width:5;stroke-linecap:round;stroke-linejoin:round;stroke-miterlimit:4;stroke-dasharray:none;stroke-dashoffset:0;stroke-opacity:1"
       id="path4297"
       cx="1428.0699"
       cy="-3.856344"
       rx="135.36044"
       ry="137.38075" />
  </g>
</svg>
