<?xml version="1.0" encoding="UTF-8" standalone="no"?>
<!-- Created with Inkscape (http://www.inkscape.org/) -->

<svg
   xmlns:dc="http://purl.org/dc/elements/1.1/"
   xmlns:cc="http://creativecommons.org/ns#"
   xmlns:rdf="http://www.w3.org/1999/02/22-rdf-syntax-ns#"
   xmlns:svg="http://www.w3.org/2000/svg"
   xmlns="http://www.w3.org/2000/svg"
   xmlns:sodipodi="http://sodipodi.sourceforge.net/DTD/sodipodi-0.dtd"
   xmlns:inkscape="http://www.inkscape.org/namespaces/inkscape"
   width="183.93365mm"
   height="143.3468mm"
   viewBox="0 0 651.73343 507.92173"
   id="svg2"
   version="1.1"
   inkscape:version="0.91 r13725"
   sodipodi:docname="icon_filled-01.svg"
   inkscape:export-filename="/Users/janereynolds/Desktop/nut_trad_filled.png"
   inkscape:export-xdpi="90"
   inkscape:export-ydpi="90">
  <defs
     id="defs4" />
  <sodipodi:namedview
     id="base"
     pagecolor="#ffffff"
     bordercolor="#666666"
     borderopacity="1.0"
     inkscape:pageopacity="0.0"
     inkscape:pageshadow="2"
     inkscape:zoom="0.35355339"
     inkscape:cx="320.33995"
     inkscape:cy="206.60576"
     inkscape:document-units="px"
     inkscape:current-layer="layer4"
     showgrid="false"
     inkscape:window-width="1132"
     inkscape:window-height="681"
     inkscape:window-x="0"
     inkscape:window-y="0"
     inkscape:window-maximized="0"
     showguides="false"
     inkscape:guide-bbox="true"
     fit-margin-top="0"
     fit-margin-left="0"
     fit-margin-right="0"
     fit-margin-bottom="0">
    <sodipodi:guide
       position="766.22761,349.35323"
       orientation="0,1"
       id="guide4167" />
    <sodipodi:guide
       position="323.12448,167.9461"
       orientation="1,0"
       id="guide4169" />
    <sodipodi:guide
       position="601.87609,498.468"
       orientation="0,1"
       id="guide4171" />
    <sodipodi:guide
       position="791.94191,69.353251"
       orientation="0,1"
       id="guide4173" />
    <sodipodi:guide
       position="534.19587,616.65585"
       orientation="0,1"
       id="guide4175" />
    <sodipodi:guide
       position="347.31763,-48.024499"
       orientation="0,1"
       id="guide4177" />
    <sodipodi:guide
       position="569.79905,125.78182"
       orientation="1,0"
       id="guide4179" />
    <sodipodi:guide
       position="70.513302,546.49609"
       orientation="1,0"
       id="guide4181" />
  </sodipodi:namedview>
  <metadata
     id="metadata7">
    <rdf:RDF>
      <cc:Work
         rdf:about="">
        <dc:format>image/svg+xml</dc:format>
        <dc:type
           rdf:resource="http://purl.org/dc/dcmitype/StillImage" />
        <dc:title></dc:title>
      </cc:Work>
    </rdf:RDF>
  </metadata>
  <g
     inkscape:groupmode="layer"
     id="layer4"
     inkscape:label="bg"
     transform="translate(-88.058134,-292.36511)">
    <rect
       style="opacity:1;fill:#ffffff;fill-opacity:0.40764334;stroke:#000000;stroke-width:0.97888631;stroke-linecap:round;stroke-linejoin:round;stroke-miterlimit:4;stroke-dasharray:none;stroke-dashoffset:0;stroke-opacity:1"
       id="rect4217"
       width="650.75458"
       height="506.94293"
       x="88.547577"
       y="292.85452" />
  </g>
  <g
     inkscape:label="Layer 1"
     inkscape:groupmode="layer"
     id="layer1"
     transform="translate(-88.058134,-292.36511)">
    <path
       style="opacity:1;fill:none;fill-opacity:0.53205124;stroke:none;stroke-width:2.38244557;stroke-linecap:round;stroke-linejoin:round;stroke-miterlimit:4;stroke-dasharray:none;stroke-dashoffset:0;stroke-opacity:1"
       d="m 618.82396,351.57727 c 0,43.35944 -13.70766,83.51728 -37.02584,116.37639 -36.47529,51.39962 -96.46614,84.94028 -164.29083,84.94028 -69.80775,0 -131.31687,-35.53067 -167.42952,-89.49417 -21.40466,-31.98519 -33.88714,-70.44613 -33.88714,-111.8225 0,-111.18412 90.13254,-201.31666 201.31666,-201.31667 111.18413,0 201.31667,90.13254 201.31667,201.31667 z"
       id="path4136"
       inkscape:connector-curvature="0"
       sodipodi:nodetypes="sssssss" />
    <path
       style="opacity:1;fill:#2cb718;fill-opacity:0.40764334;stroke:none;stroke-width:2.38244557;stroke-linecap:round;stroke-linejoin:round;stroke-miterlimit:4;stroke-dasharray:none;stroke-dashoffset:0;stroke-opacity:1"
       d="m 439.73814,551.24445 c -5.10555,29.69829 -27.46714,41.95295 -27.46714,41.95295 0,0 -20.87693,-13.30573 -27.16666,-43.43971 -7.27634,6.53675 -25.20245,20.0045 -52.32004,27.72497 -18.53593,5.27724 -41.74954,9.27803 -67.76542,4.63722 37.5449,-42.16184 72.79084,-59.15286 115.33402,-66.87947 11.91387,-2.16377 24.43923,-3.35344 37.82801,-3.86745 30.66313,-1.17719 61.01988,7.20199 91.22215,21.96003 24.89846,12.16638 48.10803,32.40541 57.94485,43.9981 0,0 -23.55553,6.76335 -51.89233,3.64168 -26.58479,-2.92867 -55.86549,-14.59827 -75.71744,-29.72832 z"
       id="ellipse4138"
       inkscape:connector-curvature="0"
       sodipodi:nodetypes="cccscssscsc" />
    <path
       style="opacity:1;fill:none;fill-opacity:0.53205124;stroke:none;stroke-width:2;stroke-linecap:round;stroke-linejoin:round;stroke-miterlimit:4;stroke-dasharray:none;stroke-dashoffset:0;stroke-opacity:1"
       d="m 601.90045,433.57029 c -25.63932,51.79918 -50.72009,70.01677 -68.18579,82.41429 -10.60903,7.53052 -20.08571,12.67014 -26.55752,15.89375 10.99237,5.30585 24.40557,13.40796 36.9608,23.40129 8.4396,6.7175 16.44573,14.35973 23.54665,21.99152 -11.30907,2.55935 -23.28334,3.99761 -35.36637,3.99761 -87.60033,1e-5 -158.61443,-71.01409 -158.61443,-158.61442 0,-37.64959 13.11757,-72.2354 35.03172,-99.43644 29.0741,-36.08836 73.63197,-59.17799 123.58271,-59.17799 26.89278,0 52.22239,6.69275 74.41407,18.5035 24.5323,68.32427 6.43201,120.27281 -4.81184,151.02689 z"
       id="circle4161"
       inkscape:connector-curvature="0"
       sodipodi:nodetypes="cscscsssscc" />
    <path
       style="opacity:1;fill:#6918b7;fill-opacity:0.53205124;stroke:none;stroke-width:2.40069389;stroke-linecap:round;stroke-linejoin:round;stroke-miterlimit:4;stroke-dasharray:none;stroke-dashoffset:0;stroke-opacity:1"
       d="m 384.46798,550.66357 c -20.34144,15.09664 -32.33511,20.15447 -46.46468,25.13194 -11.18503,4.05468 -26.53593,6.74718 -42.33404,7.88218 -13.44314,0.96581 -24.57074,-0.50332 -30.81552,-1.40767 17.05881,-19.49109 38.17244,-37.25102 63.32676,-49.70923 -21.12844,-10.32325 -41.79402,-25.74628 -57.55328,-42.58096 -8.45252,-9.02933 -15.64808,-18.23005 -21.25744,-26.77923 16.75029,-7.07942 35.24252,-11.15014 54.57089,-11.15014 63.44133,0 118.35862,42.08394 135.59563,99.92403 -26.99888,3.22391 -44.82101,-0.53875 -55.06832,-1.31092 z"
       id="circle4165"
       inkscape:connector-curvature="0"
       sodipodi:nodetypes="ccsccscscc" />
    <path
       style="opacity:1;fill:none;fill-opacity:0.53205124;stroke:none;stroke-width:2;stroke-linecap:round;stroke-linejoin:round;stroke-miterlimit:4;stroke-dasharray:none;stroke-dashoffset:0;stroke-opacity:1"
       d="m 409.86374,323.33187 c 22.85032,27.48272 36.59199,62.80798 36.59199,101.34278 10e-6,87.60033 -70.48376,158.0841 -158.61442,158.61443 -7.5481,0.0454 -14.97334,-0.52726 -22.24047,-1.54696 -0.32293,-0.0442 -0.51869,-0.0884 -0.72786,-0.13262 21.01953,-23.61705 41.08397,-38.10305 63.78295,-49.39981 -17.03719,-7.39808 -36.98942,-23.03326 -50.561,-35.44014 -11.01758,-10.07205 -20.81876,-23.07561 -28.41112,-33.97686 -27.73087,-42.81244 -48.05678,-112.68445 -19.15049,-185.99187 17.85681,-6.96367 36.98656,-10.74059 57.30799,-10.74059 49.06552,1e-5 92.92762,22.2785 122.02243,57.27164"
       id="circle4183"
       inkscape:connector-curvature="0"
       sodipodi:nodetypes="csscccsccsc" />
    <path
       sodipodi:nodetypes="ccccccscc"
       inkscape:connector-curvature="0"
       id="path4211"
       d="m 506.8161,531.93201 c 21.56553,10.44392 42.51518,25.56751 60.71539,45.4619 -35.61698,9.49313 -67.87035,2.15898 -83.56028,-2.91606 -20.77326,-6.84375 -32.18149,-13.75206 -44.68149,-22.46282 -10.79564,1.06531 -28.20568,1.91995 -48.57354,-0.95109 0,0 -1.65755,0.19536 -6.27375,-0.81667 23.58717,-65.35535 70.31591,-95.34472 130.3903,-98.88026 23.43278,-1.37908 47.19991,6.01269 66.63379,16.21696 -19.4772,31.01433 -56.33792,55.32935 -74.65042,64.34804 z"
       style="opacity:1;fill:#6918b7;fill-opacity:0.53205124;stroke:none;stroke-width:2.40069389;stroke-linecap:round;stroke-linejoin:round;stroke-miterlimit:4;stroke-dasharray:none;stroke-dashoffset:0;stroke-opacity:1" />
    <path
       sodipodi:nodetypes="sssssss"
       inkscape:connector-curvature="0"
       id="path4214"
       d="m 590.50748,1313.0077 c 10e-6,110.2552 -90.13698,199.6347 -201.32657,199.6347 -111.18959,0 -201.32658,-89.3795 -201.32657,-199.6347 0,-49.2451 17.98172,-94.3257 47.78954,-129.1378 36.92909,-43.129 92.0099,-70.4969 153.53703,-70.4969 59.27907,0 112.57429,25.4046 149.417,65.8331 32.26305,35.4031 51.90957,82.3273 51.90957,133.8016 z"
       style="opacity:1;fill:#2cb718;fill-opacity:0.40764334;stroke:none;stroke-width:2.38244557;stroke-linecap:round;stroke-linejoin:round;stroke-miterlimit:4;stroke-dasharray:none;stroke-dashoffset:0;stroke-opacity:1" />
    <path
       sodipodi:nodetypes="ccscsscc"
       inkscape:connector-curvature="0"
       id="path4855"
       d="m 379.87188,466.11462 c 0,0 -7.72949,-28.41001 -5.57281,-51.3637 2.21069,-27.55326 6.10812,-41.76861 16.42037,-62.18421 5.5764,-11.03983 12.71411,-21.62913 18.17997,-28.38862 12.22977,13.57078 19.70446,26.77981 26.29548,44.94968 12.77344,35.21334 12.86813,64.60938 6.02834,93.65474 -5.40548,22.95452 -16.70405,44.37647 -30.82674,62.94023 -16.44271,-20.35489 -27.19126,-45.99831 -30.52461,-59.60812 z"
       style="opacity:1;fill:#6918b7;fill-opacity:0.53205124;stroke:none;stroke-width:2.40069389;stroke-linecap:round;stroke-linejoin:round;stroke-miterlimit:4;stroke-dasharray:none;stroke-dashoffset:0;stroke-opacity:1" />
    <path
       transform="translate(-2.3517401e-7,3.0479673e-6)"
       style="display:inline;fill:none;fill-rule:evenodd;stroke:#65a35c;stroke-width:4.20000029;stroke-linecap:round;stroke-linejoin:round;stroke-miterlimit:4;stroke-dasharray:none;stroke-opacity:1"
       d="m 386,552.36217 c 2.70054,13.291 12.274,28.64984 26.79289,39.29289 C 427.28751,581.47237 435.92122,566.09585 439,553.36217"
       id="path4859"
       inkscape:connector-curvature="0"
       sodipodi:nodetypes="ccc" />
  </g>
  <g
     inkscape:groupmode="layer"
     id="layer3"
     inkscape:label="lines"
     style="display:inline"
     transform="translate(-88.058134,-292.36511)">
    <path
       sodipodi:nodetypes="cssc"
       inkscape:connector-curvature="0"
       id="path4210"
       d="m 567.45779,578.07259 c -11.30907,2.55935 -23.07654,3.91045 -35.15957,3.91045 -87.60033,1e-5 -158.61443,-71.01409 -158.61443,-158.61442 0,-37.64959 13.11757,-72.2354 35.03172,-99.43644"
       style="opacity:1;fill:none;fill-opacity:0.53205124;stroke:#470280;stroke-width:4.20000029;stroke-linecap:round;stroke-linejoin:round;stroke-miterlimit:4;stroke-dasharray:none;stroke-dashoffset:0;stroke-opacity:1" />
    <path
       sodipodi:nodetypes="csc"
       inkscape:connector-curvature="0"
       id="path4216"
       d="m 384.42008,550.03568 c 17.83995,-56.85189 69.70772,-98.62447 132.44558,-98.62447 23.47333,0 45.5982,5.77341 65.03208,15.97768"
       style="opacity:1;fill:none;fill-opacity:0.53205124;stroke:#470280;stroke-width:4.20000029;stroke-linecap:round;stroke-linejoin:round;stroke-miterlimit:4;stroke-dasharray:none;stroke-dashoffset:0;stroke-opacity:1" />
    <path
       sodipodi:nodetypes="csc"
       inkscape:connector-curvature="0"
       id="path4219"
       d="m 249.80146,462.6908 c 16.75029,-7.07942 35.16439,-10.99389 54.49276,-10.99389 63.44133,0 117.91667,41.81878 135.15368,99.65887"
       style="opacity:1;fill:none;fill-opacity:0.53205124;stroke:#470280;stroke-width:4.20000029;stroke-linecap:round;stroke-linejoin:round;stroke-miterlimit:4;stroke-dasharray:none;stroke-dashoffset:0;stroke-opacity:1" />
    <path
       sodipodi:nodetypes="csc"
       inkscape:connector-curvature="0"
       id="path4222"
       d="m 264.64388,581.86988 c 36.92909,-43.12893 92.0099,-70.49692 153.53703,-70.49692 59.27907,0 112.57429,25.40461 149.417,65.83313"
       style="opacity:1;fill:none;fill-opacity:0.53205124;stroke:#470280;stroke-width:4.20000029;stroke-linecap:round;stroke-linejoin:round;stroke-miterlimit:4;stroke-dasharray:none;stroke-dashoffset:0;stroke-opacity:1" />
    <path
       sodipodi:nodetypes="cssc"
       inkscape:connector-curvature="0"
       id="path4206"
       d="m 409.4297,324.21946 c 22.85032,27.48272 36.59199,62.80798 36.59199,101.34278 1e-5,87.60033 -71.01408,158.61443 -158.61441,158.61443 -7.54824,0 -14.97334,-0.52726 -22.24047,-1.54696"
       style="opacity:1;fill:none;fill-opacity:0.53205124;stroke:#470280;stroke-width:4.20000029;stroke-linecap:round;stroke-linejoin:round;stroke-miterlimit:4;stroke-dasharray:none;stroke-dashoffset:0;stroke-opacity:1" />
    <path
       sodipodi:nodetypes="csc"
       inkscape:connector-curvature="0"
       id="path4213"
       d="m 581.79812,467.95366 c -36.47529,51.39962 -96.46614,84.94028 -164.29083,84.94028 -69.80775,0 -131.31687,-35.53067 -167.42952,-89.49417"
       style="opacity:1;fill:none;fill-opacity:0.53205124;stroke:#470280;stroke-width:4.20000029;stroke-linecap:round;stroke-linejoin:round;stroke-miterlimit:4;stroke-dasharray:none;stroke-dashoffset:0;stroke-opacity:1" />
  </g>
  <g
     inkscape:groupmode="layer"
     id="layer2"
     inkscape:label="text"
     transform="translate(-88.058134,-292.36511)">
    <text
       sodipodi:linespacing="100%"
       id="text4166"
       y="662.93896"
       x="414.66925"
       style="font-style:normal;font-variant:normal;font-weight:normal;font-stretch:normal;font-size:30px;line-height:100%;font-family:calibri;-inkscape-font-specification:calibri;letter-spacing:0px;word-spacing:0px;fill:#000000;fill-opacity:1;stroke:none;stroke-width:1px;stroke-linecap:butt;stroke-linejoin:miter;stroke-opacity:1"
       xml:space="preserve"><tspan
         style="font-style:normal;font-variant:normal;font-weight:bold;font-stretch:normal;font-size:80px;line-height:100%;font-family:Rockwell;-inkscape-font-specification:'Rockwell Bold';text-align:center;text-anchor:middle;fill:#2f2933;fill-opacity:1"
         y="662.93896"
         x="424.66925"
         id="tspan4168"
         sodipodi:role="line">Nutritional </tspan><tspan
         style="font-style:normal;font-variant:normal;font-weight:bold;font-stretch:normal;font-size:80px;line-height:100%;font-family:Rockwell;-inkscape-font-specification:'Rockwell Bold';text-align:center;text-anchor:middle;fill:#2f2933;fill-opacity:1"
         y="742.93896"
         x="414.66925"
         sodipodi:role="line"
         id="tspan4757">Traditions</tspan></text>
    <text
       xml:space="preserve"
       style="font-style:normal;font-variant:normal;font-weight:normal;font-stretch:normal;font-size:30px;line-height:125%;font-family:calibri;-inkscape-font-specification:calibri;letter-spacing:0px;word-spacing:0px;fill:#000000;fill-opacity:1;stroke:none;stroke-width:1px;stroke-linecap:butt;stroke-linejoin:miter;stroke-opacity:1"
       x="-609.49158"
       y="713.57458"
       id="text4170"
       sodipodi:linespacing="125%"><tspan
         sodipodi:role="line"
         id="tspan4172"
         x="-609.49158"
         y="713.57458"
         style="font-style:normal;font-variant:normal;font-weight:900;font-stretch:normal;font-size:62.5px;font-family:Matiz;-inkscape-font-specification:'Matiz Heavy';fill:#5e6954;fill-opacity:1">Nutritional High</tspan></text>
  </g>
</svg>
