<?xml version="1.0" encoding="UTF-8" standalone="no"?>
<!-- Created with Inkscape (http://www.inkscape.org/) -->

<svg
   xmlns:dc="http://purl.org/dc/elements/1.1/"
   xmlns:cc="http://creativecommons.org/ns#"
   xmlns:rdf="http://www.w3.org/1999/02/22-rdf-syntax-ns#"
   xmlns:svg="http://www.w3.org/2000/svg"
   xmlns="http://www.w3.org/2000/svg"
   xmlns:xlink="http://www.w3.org/1999/xlink"
   xmlns:sodipodi="http://sodipodi.sourceforge.net/DTD/sodipodi-0.dtd"
   xmlns:inkscape="http://www.inkscape.org/namespaces/inkscape"
   width="171.79187mm"
   height="137.86096mm"
   viewBox="0 0 608.71135 488.48368"
   id="svg2"
   version="1.1"
   inkscape:version="0.91 r13725"
   sodipodi:docname="icon-01.svg"
   inkscape:export-filename="/Users/janereynolds/Desktop/nutr_trad_line.png"
   inkscape:export-xdpi="90"
   inkscape:export-ydpi="90">
  <defs
     id="defs4">
    <linearGradient
       inkscape:collect="always"
       id="linearGradient4767">
      <stop
         style="stop-color:#470280;stop-opacity:1;"
         offset="0"
         id="stop4769" />
      <stop
         style="stop-color:#470280;stop-opacity:0;"
         offset="1"
         id="stop4771" />
    </linearGradient>
    <linearGradient
       inkscape:collect="always"
       id="linearGradient4759">
      <stop
         style="stop-color:#470280;stop-opacity:1;"
         offset="0"
         id="stop4761" />
      <stop
         style="stop-color:#470280;stop-opacity:0;"
         offset="1"
         id="stop4763" />
    </linearGradient>
    <linearGradient
       inkscape:collect="always"
       id="linearGradient5375">
      <stop
         style="stop-color:#6918b7;stop-opacity:1;"
         offset="0"
         id="stop5377" />
      <stop
         style="stop-color:#6918b7;stop-opacity:0;"
         offset="1"
         id="stop5379" />
    </linearGradient>
    <linearGradient
       inkscape:collect="always"
       xlink:href="#linearGradient5375"
       id="linearGradient5381"
       x1="417.7829"
       y1="515.2934"
       x2="422.27292"
       y2="700.58417"
       gradientUnits="userSpaceOnUse" />
    <linearGradient
       inkscape:collect="always"
       xlink:href="#linearGradient4759"
       id="linearGradient4765"
       x1="466.28033"
       y1="459.3537"
       x2="458.87964"
       y2="689.3537"
       gradientUnits="userSpaceOnUse" />
    <linearGradient
       inkscape:collect="always"
       xlink:href="#linearGradient4767"
       id="linearGradient4773"
       x1="297.28027"
       y1="458.21085"
       x2="387.73672"
       y2="654.6394"
       gradientUnits="userSpaceOnUse" />
    <filter
       style="color-interpolation-filters:sRGB"
       inkscape:label="Drop Shadow"
       id="filter4801">
      <feFlood
         flood-opacity="0.498039"
         flood-color="rgb(0,0,0)"
         result="flood"
         id="feFlood4803" />
      <feComposite
         in="flood"
         in2="SourceGraphic"
         operator="out"
         result="composite1"
         id="feComposite4805" />
      <feGaussianBlur
         in="composite1"
         stdDeviation="3"
         result="blur"
         id="feGaussianBlur4807" />
      <feOffset
         dx="6"
         dy="6"
         result="offset"
         id="feOffset4809" />
      <feComposite
         in="offset"
         in2="SourceGraphic"
         operator="atop"
         result="composite2"
         id="feComposite4811" />
    </filter>
  </defs>
  <sodipodi:namedview
     id="base"
     pagecolor="#ffffff"
     bordercolor="#666666"
     borderopacity="1.0"
     inkscape:pageopacity="0.0"
     inkscape:pageshadow="2"
     inkscape:zoom="0.49497475"
     inkscape:cx="304.40487"
     inkscape:cy="112.65274"
     inkscape:document-units="px"
     inkscape:current-layer="layer5"
     showgrid="false"
     inkscape:window-width="1220"
     inkscape:window-height="688"
     inkscape:window-x="26"
     inkscape:window-y="0"
     inkscape:window-maximized="0"
     showguides="false"
     inkscape:guide-bbox="true"
     fit-margin-top="0"
     fit-margin-left="0"
     fit-margin-right="0"
     fit-margin-bottom="0">
    <sodipodi:guide
       position="744.96834,323.96904"
       orientation="0,1"
       id="guide4167" />
    <sodipodi:guide
       position="300.68263,349.68333"
       orientation="1,0"
       id="guide4169" />
    <sodipodi:guide
       position="580.61681,473.08381"
       orientation="0,1"
       id="guide4171" />
    <sodipodi:guide
       position="770.68263,43.969072"
       orientation="0,1"
       id="guide4173" />
    <sodipodi:guide
       position="512.93659,591.27163"
       orientation="0,1"
       id="guide4175" />
    <sodipodi:guide
       position="326.05838,-73.408672"
       orientation="0,1"
       id="guide4177" />
    <sodipodi:guide
       position="548.53977,100.39764"
       orientation="1,0"
       id="guide4179" />
    <sodipodi:guide
       position="49.254071,521.11188"
       orientation="1,0"
       id="guide4181" />
  </sodipodi:namedview>
  <metadata
     id="metadata7">
    <rdf:RDF>
      <cc:Work
         rdf:about="">
        <dc:format>image/svg+xml</dc:format>
        <dc:type
           rdf:resource="http://purl.org/dc/dcmitype/StillImage" />
        <dc:title></dc:title>
      </cc:Work>
    </rdf:RDF>
  </metadata>
  <g
     inkscape:groupmode="layer"
     id="layer5"
     inkscape:label="bg"
     transform="translate(-109.31736,-286.419)">
    <rect
       style="opacity:1;fill:#ffffff;fill-opacity:0.97916667;stroke:#000000;stroke-width:0.80811;stroke-linecap:round;stroke-linejoin:round;stroke-miterlimit:4;stroke-dasharray:none;stroke-dashoffset:0;stroke-opacity:1"
       id="rect5363"
       width="607.90326"
       height="487.67563"
       x="109.72141"
       y="286.82303" />
  </g>
  <g
     inkscape:label="Layer 1"
     inkscape:groupmode="layer"
     id="layer1"
     style="display:none"
     transform="translate(-109.31736,-286.419)">
    <path
       style="opacity:1;fill:#6918b7;fill-opacity:0.53205124;stroke:none;stroke-width:2.38244557;stroke-linecap:round;stroke-linejoin:round;stroke-miterlimit:4;stroke-dasharray:none;stroke-dashoffset:0;stroke-opacity:1"
       d="m 618.82396,351.57727 c 0,43.35944 -13.70766,83.51728 -37.02584,116.37639 -36.47529,51.39962 -96.46614,84.94028 -164.29083,84.94028 -69.80775,0 -131.31687,-35.53067 -167.42952,-89.49417 -21.40466,-31.98519 -33.88714,-70.44613 -33.88714,-111.8225 0,-111.18412 90.13254,-201.31666 201.31666,-201.31667 111.18413,0 201.31667,90.13254 201.31667,201.31667 z"
       id="path4136"
       inkscape:connector-curvature="0"
       sodipodi:nodetypes="sssssss" />
    <path
       style="opacity:1;fill:#6918b7;fill-opacity:0.53205124;stroke:none;stroke-width:2.38244557;stroke-linecap:round;stroke-linejoin:round;stroke-miterlimit:4;stroke-dasharray:none;stroke-dashoffset:0;stroke-opacity:1"
       d="m 619.50748,711.00769 c 10e-6,110.25522 -90.13698,199.63474 -201.32657,199.63474 -111.18959,0 -201.32658,-89.37952 -201.32657,-199.63474 0,-49.24513 17.98172,-94.3257 47.78954,-129.13781 36.92909,-43.12893 92.0099,-70.49692 153.53703,-70.49692 59.27907,0 112.57429,25.40461 149.417,65.83313 32.26305,35.40314 51.90957,82.32731 51.90957,133.8016 z"
       id="ellipse4138"
       inkscape:connector-curvature="0"
       sodipodi:nodetypes="sssssss" />
    <path
       style="opacity:1;fill:#6918b7;fill-opacity:0.53205124;stroke:none;stroke-width:2;stroke-linecap:round;stroke-linejoin:round;stroke-miterlimit:4;stroke-dasharray:none;stroke-dashoffset:0;stroke-opacity:1"
       d="m 690.91264,422.65433 c -10e-6,75.51729 -52.77472,138.70838 -123.45485,154.70397 -11.30907,2.55935 -23.07654,3.91045 -35.15957,3.91045 -87.60033,1e-5 -158.61443,-71.01409 -158.61443,-158.61442 0,-37.64959 13.11757,-72.2354 35.03172,-99.43644 29.0741,-36.08836 73.63197,-59.17799 123.58271,-59.17799 87.60033,0 158.61443,71.0141 158.61442,158.61443 z"
       id="circle4161"
       inkscape:connector-curvature="0"
       sodipodi:nodetypes="sssssss" />
    <path
       style="opacity:1;fill:#6918b7;fill-opacity:0.53205124;stroke:none;stroke-width:2.40069389;stroke-linecap:round;stroke-linejoin:round;stroke-miterlimit:4;stroke-dasharray:none;stroke-dashoffset:0;stroke-opacity:1"
       d="m 656.95103,591.49658 c 0,77.36701 -62.71836,140.08537 -140.08537,140.08537 -77.36701,0 -140.08537,-62.71836 -140.08537,-140.08537 0,-14.62916 2.24244,-28.73456 6.40235,-41.99123 17.83995,-56.85189 70.94516,-98.09414 133.68302,-98.09414 23.47333,0 45.5982,5.77341 65.03208,15.97768 44.61931,23.42855 75.05329,70.214 75.05329,124.10769 z"
       id="circle4163"
       inkscape:connector-curvature="0"
       sodipodi:nodetypes="sssssss" />
    <path
       style="opacity:1;fill:#6918b7;fill-opacity:0.53205124;stroke:none;stroke-width:2.40069389;stroke-linecap:round;stroke-linejoin:round;stroke-miterlimit:4;stroke-dasharray:none;stroke-dashoffset:0;stroke-opacity:1"
       d="m 444.37959,591.78229 c -1e-5,77.36701 -62.71836,140.08537 -140.08537,140.08537 -77.36701,0 -140.08536,-62.71836 -140.08537,-140.08537 0,-58.03865 35.29535,-107.83362 85.59261,-129.09149 16.75029,-7.07942 35.16439,-10.99389 54.49276,-10.99389 63.44133,0 117.03279,42.17233 134.2698,100.01242 3.78361,12.69618 5.81557,26.14728 5.81557,40.07296 z"
       id="circle4165"
       inkscape:connector-curvature="0"
       sodipodi:nodetypes="sssssss" />
    <path
       style="opacity:1;fill:#6918b7;fill-opacity:0.53205124;stroke:none;stroke-width:2;stroke-linecap:round;stroke-linejoin:round;stroke-miterlimit:4;stroke-dasharray:none;stroke-dashoffset:0;stroke-opacity:1"
       d="m 409.86374,323.33187 c 22.85032,27.48272 36.59199,62.80798 36.59199,101.34278 10e-6,87.60033 -71.01409,158.61443 -158.61442,158.61443 -7.54824,0 -14.97334,-0.52726 -22.24047,-1.54696 m 0,0 C 188.53012,570.92781 129.22688,504.72674 129.22688,424.67465 c 0,-87.60033 71.0141,-158.61443 158.61443,-158.61442 49.06552,0 92.92762,22.2785 122.02243,57.27164"
       id="circle4183"
       inkscape:connector-curvature="0"
       sodipodi:nodetypes="cssccssc" />
  </g>
  <g
     inkscape:groupmode="layer"
     id="layer3"
     inkscape:label="faded circles"
     style="display:none"
     transform="translate(-109.31736,-286.419)">
    <path
       sodipodi:nodetypes="sssssss"
       inkscape:connector-curvature="0"
       id="path5339"
       d="m 618.82396,351.57727 c 0,43.35944 -13.70766,83.51728 -37.02584,116.37639 -36.47529,51.39962 -96.46614,84.94028 -164.29083,84.94028 -69.80775,0 -131.31687,-35.53067 -167.42952,-89.49417 -21.40466,-31.98519 -33.88714,-70.44613 -33.88714,-111.8225 0,-111.18412 90.13254,-201.31666 201.31666,-201.31667 111.18413,0 201.31667,90.13254 201.31667,201.31667 z"
       style="display:inline;opacity:1;fill:none;fill-opacity:0.53205124;stroke:#470280;stroke-width:1;stroke-linecap:round;stroke-linejoin:round;stroke-miterlimit:4;stroke-dasharray:none;stroke-dashoffset:0;stroke-opacity:1" />
    <path
       sodipodi:nodetypes="sssssss"
       inkscape:connector-curvature="0"
       id="path5341"
       d="m 619.50748,711.00769 c 10e-6,110.25522 -90.13698,199.63474 -201.32657,199.63474 -111.18959,0 -201.32658,-89.37952 -201.32657,-199.63474 0,-49.24513 17.98172,-94.3257 47.78954,-129.13781 36.92909,-43.12893 92.0099,-70.49692 153.53703,-70.49692 59.27907,0 112.57429,25.40461 149.417,65.83313 32.26305,35.40314 51.90957,82.32731 51.90957,133.8016 z"
       style="display:inline;opacity:1;fill:url(#linearGradient5381);fill-opacity:1;stroke:none;stroke-width:1;stroke-linecap:round;stroke-linejoin:round;stroke-miterlimit:4;stroke-dasharray:none;stroke-dashoffset:0;stroke-opacity:1" />
    <path
       sodipodi:nodetypes="sssssss"
       inkscape:connector-curvature="0"
       id="path5343"
       d="m 690.91264,422.65433 c -10e-6,75.51729 -52.77472,138.70838 -123.45485,154.70397 -11.30907,2.55935 -23.07654,3.91045 -35.15957,3.91045 -87.60033,1e-5 -158.61443,-71.01409 -158.61443,-158.61442 0,-37.64959 13.11757,-72.2354 35.03172,-99.43644 29.0741,-36.08836 73.63197,-59.17799 123.58271,-59.17799 87.60033,0 158.61443,71.0141 158.61442,158.61443 z"
       style="display:inline;opacity:1;fill:none;fill-opacity:0.53333285;stroke:#470280;stroke-width:1;stroke-linecap:round;stroke-linejoin:round;stroke-miterlimit:4;stroke-dasharray:none;stroke-dashoffset:0;stroke-opacity:1" />
    <path
       sodipodi:nodetypes="sssssss"
       inkscape:connector-curvature="0"
       id="path5345"
       d="m 656.95103,591.49658 c 0,77.36701 -62.71836,140.08537 -140.08537,140.08537 -77.36701,0 -140.08537,-62.71836 -140.08537,-140.08537 0,-14.62916 2.24244,-28.73456 6.40235,-41.99123 17.83995,-56.85189 70.94516,-98.09414 133.68302,-98.09414 23.47333,0 45.5982,5.77341 65.03208,15.97768 44.61931,23.42855 75.05329,70.214 75.05329,124.10769 z"
       style="display:inline;opacity:1;fill:none;fill-opacity:0.53333291;stroke:url(#linearGradient4765);stroke-width:1;stroke-linecap:round;stroke-linejoin:round;stroke-miterlimit:4;stroke-dasharray:none;stroke-dashoffset:0;stroke-opacity:1" />
    <path
       sodipodi:nodetypes="sssssss"
       inkscape:connector-curvature="0"
       id="path5347"
       d="m 444.37959,591.78229 c -1e-5,77.36701 -62.71836,140.08537 -140.08537,140.08537 -77.36701,0 -140.08536,-62.71836 -140.08537,-140.08537 0,-58.03865 35.29535,-107.83362 85.59261,-129.09149 16.75029,-7.07942 35.16439,-10.99389 54.49276,-10.99389 63.44133,0 117.03279,42.17233 134.2698,100.01242 3.78361,12.69618 5.81557,26.14728 5.81557,40.07296 z"
       style="display:inline;opacity:1;fill:none;fill-opacity:0.53333291;stroke:url(#linearGradient4773);stroke-width:1;stroke-linecap:round;stroke-linejoin:round;stroke-miterlimit:4;stroke-dasharray:none;stroke-dashoffset:0;stroke-opacity:1" />
    <path
       sodipodi:nodetypes="cssccssc"
       inkscape:connector-curvature="0"
       id="path5349"
       d="m 409.86374,323.33187 c 22.85032,27.48272 36.59199,62.80798 36.59199,101.34278 10e-6,87.60033 -71.01409,158.61443 -158.61442,158.61443 -7.54824,0 -14.97334,-0.52726 -22.24047,-1.54696 m 0,0 C 188.53012,570.92781 129.22688,504.72674 129.22688,424.67465 c 0,-87.60033 71.0141,-158.61443 158.61443,-158.61442 49.06552,0 92.92762,22.2785 122.02243,57.27164"
       style="display:inline;opacity:1;fill:none;fill-opacity:0.53333285;stroke:#470280;stroke-width:1;stroke-linecap:round;stroke-linejoin:round;stroke-miterlimit:4;stroke-dasharray:none;stroke-dashoffset:0;stroke-opacity:1" />
  </g>
  <g
     inkscape:groupmode="layer"
     id="layer2"
     inkscape:label="lines"
     transform="translate(-109.31736,-286.419)">
    <g
       id="g5330"
       style="stroke-width:6;stroke-miterlimit:4;stroke-dasharray:none">
      <path
         style="opacity:1;fill:none;fill-opacity:0.53205124;stroke:#470280;stroke-width:6;stroke-linecap:round;stroke-linejoin:round;stroke-miterlimit:4;stroke-dasharray:none;stroke-dashoffset:0;stroke-opacity:1"
         d="m 409.4297,324.21946 c 22.85032,27.48272 36.59199,62.80798 36.59199,101.34278 1e-5,87.60033 -71.01408,158.61443 -158.61441,158.61443 -7.54824,0 -14.97334,-0.52726 -22.24047,-1.54696"
         id="path4206"
         inkscape:connector-curvature="0"
         sodipodi:nodetypes="cssc" />
      <path
         style="opacity:1;fill:none;fill-opacity:0.53205124;stroke:#470280;stroke-width:6;stroke-linecap:round;stroke-linejoin:round;stroke-miterlimit:4;stroke-dasharray:none;stroke-dashoffset:0;stroke-opacity:1"
         d="m 567.45779,578.07259 c -11.30907,2.55935 -23.07654,3.91045 -35.15957,3.91045 -87.60033,1e-5 -158.61443,-71.01409 -158.61443,-158.61442 0,-37.64959 13.11757,-72.2354 35.03172,-99.43644"
         id="path4210"
         inkscape:connector-curvature="0"
         sodipodi:nodetypes="cssc" />
      <path
         style="opacity:1;fill:none;fill-opacity:0.53205124;stroke:#470280;stroke-width:6;stroke-linecap:round;stroke-linejoin:round;stroke-miterlimit:4;stroke-dasharray:none;stroke-dashoffset:0;stroke-opacity:1"
         d="m 581.79812,467.95366 c -36.47529,51.39962 -96.46614,84.94028 -164.29083,84.94028 -69.80775,0 -131.31687,-35.53067 -167.42952,-89.49417"
         id="path4213"
         inkscape:connector-curvature="0"
         sodipodi:nodetypes="csc" />
      <path
         style="opacity:1;fill:none;fill-opacity:0.53205124;stroke:#470280;stroke-width:6;stroke-linecap:round;stroke-linejoin:round;stroke-miterlimit:4;stroke-dasharray:none;stroke-dashoffset:0;stroke-opacity:1"
         d="m 383.18264,549.50535 c 17.83995,-56.85189 70.94516,-98.09414 133.68302,-98.09414 23.47333,0 45.5982,5.77341 65.03208,15.97768"
         id="path4216"
         inkscape:connector-curvature="0"
         sodipodi:nodetypes="csc" />
      <path
         style="opacity:1;fill:none;fill-opacity:0.53205124;stroke:#470280;stroke-width:6;stroke-linecap:round;stroke-linejoin:round;stroke-miterlimit:4;stroke-dasharray:none;stroke-dashoffset:0;stroke-opacity:1"
         d="m 249.80146,462.6908 c 16.75029,-7.07942 35.16439,-10.99389 54.49276,-10.99389 63.44133,0 117.03279,42.17233 134.2698,100.01242"
         id="path4219"
         inkscape:connector-curvature="0"
         sodipodi:nodetypes="csc" />
      <path
         style="opacity:1;fill:none;fill-opacity:0.53205124;stroke:#470280;stroke-width:6;stroke-linecap:round;stroke-linejoin:round;stroke-miterlimit:4;stroke-dasharray:none;stroke-dashoffset:0;stroke-opacity:1"
         d="m 264.64388,581.86988 c 36.92909,-43.12893 92.0099,-70.49692 153.53703,-70.49692 59.27907,0 112.57429,25.40461 149.417,65.83313"
         id="path4222"
         inkscape:connector-curvature="0"
         sodipodi:nodetypes="csc" />
    </g>
  </g>
  <g
     inkscape:groupmode="layer"
     id="layer4"
     inkscape:label="text"
     transform="translate(-109.31736,-286.419)">
    <text
       xml:space="preserve"
       style="font-style:normal;font-variant:normal;font-weight:normal;font-stretch:normal;font-size:30px;line-height:99.00000095%;font-family:calibri;-inkscape-font-specification:calibri;letter-spacing:0px;word-spacing:0px;fill:#2f2933;fill-opacity:1;stroke:none;stroke-width:1px;stroke-linecap:butt;stroke-linejoin:miter;stroke-opacity:1"
       x="45.751015"
       y="917.91394"
       id="text5358"
       sodipodi:linespacing="99.000001%"><tspan
         sodipodi:role="line"
         id="tspan5360"
         x="53.251015"
         y="917.91394"
         style="font-style:normal;font-variant:normal;font-weight:900;font-stretch:normal;font-size:60px;line-height:99.00000095%;font-family:Matiz;-inkscape-font-specification:'Matiz Heavy';text-align:center;text-anchor:middle;fill:#2f2933;fill-opacity:1">Nutritional </tspan><tspan
         sodipodi:role="line"
         x="45.751015"
         y="977.31396"
         style="font-style:normal;font-variant:normal;font-weight:900;font-stretch:normal;font-size:60px;line-height:99.00000095%;font-family:Matiz;-inkscape-font-specification:'Matiz Heavy';text-align:center;text-anchor:middle;fill:#2f2933;fill-opacity:1"
         id="tspan5371">Traditions</tspan></text>
    <text
       sodipodi:linespacing="105%"
       id="text5365"
       y="653.91394"
       x="418.42673"
       style="font-style:normal;font-variant:normal;font-weight:normal;font-stretch:normal;font-size:30px;line-height:104.99999523%;font-family:calibri;-inkscape-font-specification:calibri;letter-spacing:0px;word-spacing:0px;fill:#d4ced8;fill-opacity:1;stroke:none;stroke-width:1px;stroke-linecap:butt;stroke-linejoin:miter;stroke-opacity:1"
       xml:space="preserve"><tspan
         style="font-style:normal;font-variant:normal;font-weight:bold;font-stretch:normal;font-size:75px;line-height:104.99999523%;font-family:Rockwell;-inkscape-font-specification:'Rockwell Bold';text-align:center;text-anchor:middle;fill:#d4ced8;fill-opacity:1"
         y="653.91394"
         x="427.80173"
         id="tspan5367"
         sodipodi:role="line">Nutritional </tspan><tspan
         style="font-style:normal;font-variant:normal;font-weight:bold;font-stretch:normal;font-size:75px;line-height:104.99999523%;font-family:Rockwell;-inkscape-font-specification:'Rockwell Bold';text-align:center;text-anchor:middle;fill:#d4ced8;fill-opacity:1"
         y="732.66394"
         x="418.42673"
         sodipodi:role="line"
         id="tspan5373">Traditions</tspan></text>
    <text
       xml:space="preserve"
       style="font-style:normal;font-variant:normal;font-weight:normal;font-stretch:normal;font-size:30px;line-height:104.99999523%;font-family:calibri;-inkscape-font-specification:calibri;letter-spacing:0px;word-spacing:0px;fill:#2f2933;fill-opacity:0.97916667;stroke:none;stroke-width:1px;stroke-linecap:butt;stroke-linejoin:miter;stroke-opacity:1;filter:url(#filter4801)"
       x="418.01846"
       y="653.77112"
       id="text4775"
       sodipodi:linespacing="105%"><tspan
         sodipodi:role="line"
         id="tspan4777"
         x="427.39346"
         y="653.77112"
         style="font-style:normal;font-variant:normal;font-weight:bold;font-stretch:normal;font-size:75px;line-height:104.99999523%;font-family:Rockwell;-inkscape-font-specification:'Rockwell Bold';text-align:center;text-anchor:middle;fill:#2f2933;fill-opacity:0.97916667">Nutritional </tspan><tspan
         id="tspan4779"
         sodipodi:role="line"
         x="418.01846"
         y="732.52112"
         style="font-style:normal;font-variant:normal;font-weight:bold;font-stretch:normal;font-size:75px;line-height:104.99999523%;font-family:Rockwell;-inkscape-font-specification:'Rockwell Bold';text-align:center;text-anchor:middle;fill:#2f2933;fill-opacity:0.97916667">Traditions</tspan></text>
  </g>
</svg>
