<?xml version="1.0" encoding="UTF-8" standalone="no"?>
<!-- Created with Inkscape (http://www.inkscape.org/) -->

<svg
   xmlns:dc="http://purl.org/dc/elements/1.1/"
   xmlns:cc="http://creativecommons.org/ns#"
   xmlns:rdf="http://www.w3.org/1999/02/22-rdf-syntax-ns#"
   xmlns:svg="http://www.w3.org/2000/svg"
   xmlns="http://www.w3.org/2000/svg"
   xmlns:sodipodi="http://sodipodi.sourceforge.net/DTD/sodipodi-0.dtd"
   xmlns:inkscape="http://www.inkscape.org/namespaces/inkscape"
   width="210mm"
   height="297mm"
   viewBox="0 0 744.09448819 1052.3622047"
   id="svg2"
   version="1.1"
   inkscape:version="0.91 r13725"
   sodipodi:docname="concept1-01.svg">
  <defs
     id="defs4" />
  <sodipodi:namedview
     id="base"
     pagecolor="#ffffff"
     bordercolor="#666666"
     borderopacity="1.0"
     inkscape:pageopacity="0.0"
     inkscape:pageshadow="2"
     inkscape:zoom="0.98994949"
     inkscape:cx="407.45826"
     inkscape:cy="687.96228"
     inkscape:document-units="px"
     inkscape:current-layer="layer1"
     showgrid="false"
     inkscape:window-width="1265"
     inkscape:window-height="705"
     inkscape:window-x="0"
     inkscape:window-y="0"
     inkscape:window-maximized="0"
     showguides="false"
     inkscape:guide-bbox="true">
    <sodipodi:guide
       position="854.28572,601.42858"
       orientation="0,1"
       id="guide4167" />
    <sodipodi:guide
       position="410,627.14287"
       orientation="1,0"
       id="guide4169" />
    <sodipodi:guide
       position="689.93419,750.54336"
       orientation="0,1"
       id="guide4171" />
    <sodipodi:guide
       position="880.00001,321.42858"
       orientation="0,1"
       id="guide4173" />
    <sodipodi:guide
       position="622.25397,868.73121"
       orientation="0,1"
       id="guide4175" />
    <sodipodi:guide
       position="435.37575,204.05082"
       orientation="0,1"
       id="guide4177" />
    <sodipodi:guide
       position="657.85715,377.85715"
       orientation="1,0"
       id="guide4179" />
    <sodipodi:guide
       position="158.57143,798.57145"
       orientation="1,0"
       id="guide4181" />
  </sodipodi:namedview>
  <metadata
     id="metadata7">
    <rdf:RDF>
      <cc:Work
         rdf:about="">
        <dc:format>image/svg+xml</dc:format>
        <dc:type
           rdf:resource="http://purl.org/dc/dcmitype/StillImage" />
        <dc:title></dc:title>
      </cc:Work>
    </rdf:RDF>
  </metadata>
  <g
     inkscape:label="Layer 1"
     inkscape:groupmode="layer"
     id="layer1">
    <path
       style="opacity:1;fill:#6918b7;fill-opacity:0.53205124;stroke:none;stroke-width:2.38244557;stroke-linecap:round;stroke-linejoin:round;stroke-miterlimit:4;stroke-dasharray:none;stroke-dashoffset:0;stroke-opacity:1"
       d="m 618.82396,351.57727 c 0,43.35944 -13.70766,83.51728 -37.02584,116.37639 -36.47529,51.39962 -96.46614,84.94028 -164.29083,84.94028 -69.80775,0 -131.31687,-35.53067 -167.42952,-89.49417 -21.40466,-31.98519 -33.88714,-70.44613 -33.88714,-111.8225 0,-111.18412 90.13254,-201.31666 201.31666,-201.31667 111.18413,0 201.31667,90.13254 201.31667,201.31667 z"
       id="path4136"
       inkscape:connector-curvature="0"
       sodipodi:nodetypes="sssssss" />
    <path
       style="opacity:1;fill:#6918b7;fill-opacity:0.53205124;stroke:none;stroke-width:2.38244557;stroke-linecap:round;stroke-linejoin:round;stroke-miterlimit:4;stroke-dasharray:none;stroke-dashoffset:0;stroke-opacity:1"
       d="m 619.50748,711.00769 c 10e-6,110.25522 -90.13698,199.63474 -201.32657,199.63474 -111.18959,0 -201.32658,-89.37952 -201.32657,-199.63474 0,-49.24513 17.98172,-94.3257 47.78954,-129.13781 36.92909,-43.12893 92.0099,-70.49692 153.53703,-70.49692 59.27907,0 112.57429,25.40461 149.417,65.83313 32.26305,35.40314 51.90957,82.32731 51.90957,133.8016 z"
       id="ellipse4138"
       inkscape:connector-curvature="0"
       sodipodi:nodetypes="sssssss" />
    <path
       style="opacity:1;fill:#6918b7;fill-opacity:0.53205124;stroke:none;stroke-width:2;stroke-linecap:round;stroke-linejoin:round;stroke-miterlimit:4;stroke-dasharray:none;stroke-dashoffset:0;stroke-opacity:1"
       d="m 690.91264,422.65433 c -10e-6,75.51729 -52.77472,138.70838 -123.45485,154.70397 -11.30907,2.55935 -23.07654,3.91045 -35.15957,3.91045 -87.60033,1e-5 -158.61443,-71.01409 -158.61443,-158.61442 0,-37.64959 13.11757,-72.2354 35.03172,-99.43644 29.0741,-36.08836 73.63197,-59.17799 123.58271,-59.17799 87.60033,0 158.61443,71.0141 158.61442,158.61443 z"
       id="circle4161"
       inkscape:connector-curvature="0"
       sodipodi:nodetypes="sssssss" />
    <path
       style="opacity:1;fill:#6918b7;fill-opacity:0.53205124;stroke:none;stroke-width:2.40069389;stroke-linecap:round;stroke-linejoin:round;stroke-miterlimit:4;stroke-dasharray:none;stroke-dashoffset:0;stroke-opacity:1"
       d="m 656.95103,591.49658 c 0,77.36701 -62.71836,140.08537 -140.08537,140.08537 -77.36701,0 -140.08537,-62.71836 -140.08537,-140.08537 0,-14.62916 2.24244,-28.73456 6.40235,-41.99123 17.83995,-56.85189 70.94516,-98.09414 133.68302,-98.09414 23.47333,0 45.5982,5.77341 65.03208,15.97768 44.61931,23.42855 75.05329,70.214 75.05329,124.10769 z"
       id="circle4163"
       inkscape:connector-curvature="0"
       sodipodi:nodetypes="sssssss" />
    <path
       style="opacity:1;fill:#6918b7;fill-opacity:0.53205124;stroke:none;stroke-width:2.40069389;stroke-linecap:round;stroke-linejoin:round;stroke-miterlimit:4;stroke-dasharray:none;stroke-dashoffset:0;stroke-opacity:1"
       d="m 444.37959,591.78229 c -1e-5,77.36701 -62.71836,140.08537 -140.08537,140.08537 -77.36701,0 -140.08536,-62.71836 -140.08537,-140.08537 0,-58.03865 35.29535,-107.83362 85.59261,-129.09149 16.75029,-7.07942 35.16439,-10.99389 54.49276,-10.99389 63.44133,0 117.03279,42.17233 134.2698,100.01242 3.78361,12.69618 5.81557,26.14728 5.81557,40.07296 z"
       id="circle4165"
       inkscape:connector-curvature="0"
       sodipodi:nodetypes="sssssss" />
    <path
       style="opacity:1;fill:#6918b7;fill-opacity:0.53205124;stroke:none;stroke-width:2;stroke-linecap:round;stroke-linejoin:round;stroke-miterlimit:4;stroke-dasharray:none;stroke-dashoffset:0;stroke-opacity:1"
       d="m 409.86374,323.33187 c 22.85032,27.48272 36.59199,62.80798 36.59199,101.34278 10e-6,87.60033 -71.01409,158.61443 -158.61442,158.61443 -7.54824,0 -14.97334,-0.52726 -22.24047,-1.54696 m 0,0 C 188.53012,570.92781 129.22688,504.72674 129.22688,424.67465 c 0,-87.60033 71.0141,-158.61443 158.61443,-158.61442 49.06552,0 92.92762,22.2785 122.02243,57.27164"
       id="circle4183"
       inkscape:connector-curvature="0"
       sodipodi:nodetypes="cssccssc" />
    <path
       sodipodi:nodetypes="cssc"
       inkscape:connector-curvature="0"
       id="path4206"
       d="m 409.4297,324.21946 c 22.85032,27.48272 36.59199,62.80798 36.59199,101.34278 1e-5,87.60033 -71.01408,158.61443 -158.61441,158.61443 -7.54824,0 -14.97334,-0.52726 -22.24047,-1.54696"
       style="opacity:1;fill:none;fill-opacity:0.53205124;stroke:#470280;stroke-width:3;stroke-linecap:round;stroke-linejoin:round;stroke-miterlimit:4;stroke-dasharray:none;stroke-dashoffset:0;stroke-opacity:1" />
    <path
       sodipodi:nodetypes="cssc"
       inkscape:connector-curvature="0"
       id="path4210"
       d="m 567.45779,578.07259 c -11.30907,2.55935 -23.07654,3.91045 -35.15957,3.91045 -87.60033,1e-5 -158.61443,-71.01409 -158.61443,-158.61442 0,-37.64959 13.11757,-72.2354 35.03172,-99.43644"
       style="opacity:1;fill:none;fill-opacity:0.53205124;stroke:#470280;stroke-width:3;stroke-linecap:round;stroke-linejoin:round;stroke-miterlimit:4;stroke-dasharray:none;stroke-dashoffset:0;stroke-opacity:1" />
    <path
       sodipodi:nodetypes="csc"
       inkscape:connector-curvature="0"
       id="path4213"
       d="m 581.79812,467.95366 c -36.47529,51.39962 -96.46614,84.94028 -164.29083,84.94028 -69.80775,0 -131.31687,-35.53067 -167.42952,-89.49417"
       style="opacity:1;fill:none;fill-opacity:0.53205124;stroke:#470280;stroke-width:3;stroke-linecap:round;stroke-linejoin:round;stroke-miterlimit:4;stroke-dasharray:none;stroke-dashoffset:0;stroke-opacity:1" />
    <path
       sodipodi:nodetypes="csc"
       inkscape:connector-curvature="0"
       id="path4216"
       d="m 383.18264,549.50535 c 17.83995,-56.85189 70.94516,-98.09414 133.68302,-98.09414 23.47333,0 45.5982,5.77341 65.03208,15.97768"
       style="opacity:1;fill:none;fill-opacity:0.53205124;stroke:#470280;stroke-width:3;stroke-linecap:round;stroke-linejoin:round;stroke-miterlimit:4;stroke-dasharray:none;stroke-dashoffset:0;stroke-opacity:1" />
    <path
       sodipodi:nodetypes="csc"
       inkscape:connector-curvature="0"
       id="path4219"
       d="m 249.80146,462.6908 c 16.75029,-7.07942 35.16439,-10.99389 54.49276,-10.99389 63.44133,0 117.03279,42.17233 134.2698,100.01242"
       style="opacity:1;fill:none;fill-opacity:0.53205124;stroke:#470280;stroke-width:3;stroke-linecap:round;stroke-linejoin:round;stroke-miterlimit:4;stroke-dasharray:none;stroke-dashoffset:0;stroke-opacity:1" />
    <path
       sodipodi:nodetypes="csc"
       inkscape:connector-curvature="0"
       id="path4222"
       d="m 264.64388,581.86988 c 36.92909,-43.12893 92.0099,-70.49692 153.53703,-70.49692 59.27907,0 112.57429,25.40461 149.417,65.83313"
       style="opacity:1;fill:none;fill-opacity:0.53205124;stroke:#470280;stroke-width:3;stroke-linecap:round;stroke-linejoin:round;stroke-miterlimit:4;stroke-dasharray:none;stroke-dashoffset:0;stroke-opacity:1" />
  </g>
</svg>
