<?xml version="1.0" encoding="UTF-8" standalone="no"?>
<!-- Created with Inkscape (http://www.inkscape.org/) -->

<svg
   xmlns:dc="http://purl.org/dc/elements/1.1/"
   xmlns:cc="http://creativecommons.org/ns#"
   xmlns:rdf="http://www.w3.org/1999/02/22-rdf-syntax-ns#"
   xmlns:svg="http://www.w3.org/2000/svg"
   xmlns="http://www.w3.org/2000/svg"
   xmlns:xlink="http://www.w3.org/1999/xlink"
   xmlns:sodipodi="http://sodipodi.sourceforge.net/DTD/sodipodi-0.dtd"
   xmlns:inkscape="http://www.inkscape.org/namespaces/inkscape"
   width="171.79187mm"
   height="137.86096mm"
   viewBox="0 0 608.71135 488.48368"
   id="svg2"
   version="1.1"
   inkscape:version="0.91 r13725"
   sodipodi:docname="icon_exp-01.svg"
   inkscape:export-filename="/Users/janereynolds/Desktop/nutr_trad_line.png"
   inkscape:export-xdpi="90"
   inkscape:export-ydpi="90">
  <defs
     id="defs4">
    <inkscape:path-effect
       effect="skeletal"
       id="path-effect6969"
       is_visible="true"
       pattern="M 0,5 C 0,2.24 2.24,0 5,0 7.76,0 10,2.24 10,5 10,7.76 7.76,10 5,10 2.24,10 0,7.76 0,5 Z"
       copytype="single_stretched"
       prop_scale="1"
       scale_y_rel="false"
       spacing="0"
       normal_offset="0"
       tang_offset="0"
       prop_units="false"
       vertical_pattern="false"
       fuse_tolerance="0" />
    <inkscape:path-effect
       effect="skeletal"
       id="path-effect6957"
       is_visible="true"
       pattern="m 109.31736,291.41897 c 0,-2.76 2.24,-5 5,-5 2.76,0 5,2.24 5,5 0,2.76 -2.24,5 -5,5 -2.76,0 -5,-2.24 -5,-5 z"
       copytype="single_stretched"
       prop_scale="1"
       scale_y_rel="false"
       spacing="0"
       normal_offset="0"
       tang_offset="0"
       prop_units="false"
       vertical_pattern="false"
       fuse_tolerance="0" />
    <inkscape:path-effect
       effect="skeletal"
       id="path-effect6953"
       is_visible="true"
       pattern="m 109.31736,291.41897 c 0,-2.76 2.24,-5 5,-5 2.76,0 5,2.24 5,5 0,2.76 -2.24,5 -5,5 -2.76,0 -5,-2.24 -5,-5 z"
       copytype="single_stretched"
       prop_scale="1"
       scale_y_rel="false"
       spacing="0"
       normal_offset="0"
       tang_offset="0"
       prop_units="false"
       vertical_pattern="false"
       fuse_tolerance="0" />
    <linearGradient
       inkscape:collect="always"
       id="linearGradient4767">
      <stop
         style="stop-color:#470280;stop-opacity:1;"
         offset="0"
         id="stop4769" />
      <stop
         style="stop-color:#470280;stop-opacity:0;"
         offset="1"
         id="stop4771" />
    </linearGradient>
    <linearGradient
       inkscape:collect="always"
       id="linearGradient4759">
      <stop
         style="stop-color:#470280;stop-opacity:1;"
         offset="0"
         id="stop4761" />
      <stop
         style="stop-color:#470280;stop-opacity:0;"
         offset="1"
         id="stop4763" />
    </linearGradient>
    <linearGradient
       inkscape:collect="always"
       id="linearGradient5375">
      <stop
         style="stop-color:#6918b7;stop-opacity:1;"
         offset="0"
         id="stop5377" />
      <stop
         style="stop-color:#6918b7;stop-opacity:0;"
         offset="1"
         id="stop5379" />
    </linearGradient>
    <linearGradient
       inkscape:collect="always"
       xlink:href="#linearGradient5375"
       id="linearGradient5381"
       x1="417.7829"
       y1="515.2934"
       x2="422.27292"
       y2="700.58417"
       gradientUnits="userSpaceOnUse" />
    <linearGradient
       inkscape:collect="always"
       xlink:href="#linearGradient4759"
       id="linearGradient4765"
       x1="466.28033"
       y1="459.3537"
       x2="458.87964"
       y2="689.3537"
       gradientUnits="userSpaceOnUse" />
    <linearGradient
       inkscape:collect="always"
       xlink:href="#linearGradient4767"
       id="linearGradient4773"
       x1="297.28027"
       y1="458.21085"
       x2="387.73672"
       y2="654.6394"
       gradientUnits="userSpaceOnUse" />
    <filter
       style="color-interpolation-filters:sRGB"
       inkscape:label="Drop Shadow"
       id="filter4801">
      <feFlood
         flood-opacity="0.498039"
         flood-color="rgb(0,0,0)"
         result="flood"
         id="feFlood4803" />
      <feComposite
         in="flood"
         in2="SourceGraphic"
         operator="out"
         result="composite1"
         id="feComposite4805" />
      <feGaussianBlur
         in="composite1"
         stdDeviation="3"
         result="blur"
         id="feGaussianBlur4807" />
      <feOffset
         dx="6"
         dy="6"
         result="offset"
         id="feOffset4809" />
      <feComposite
         in="offset"
         in2="SourceGraphic"
         operator="atop"
         result="composite2"
         id="feComposite4811" />
    </filter>
  </defs>
  <sodipodi:namedview
     id="base"
     pagecolor="#ffffff"
     bordercolor="#666666"
     borderopacity="1.0"
     inkscape:pageopacity="0.0"
     inkscape:pageshadow="2"
     inkscape:zoom="0.7"
     inkscape:cx="308.21736"
     inkscape:cy="242.61386"
     inkscape:document-units="px"
     inkscape:current-layer="layer2"
     showgrid="false"
     inkscape:window-width="1220"
     inkscape:window-height="688"
     inkscape:window-x="26"
     inkscape:window-y="0"
     inkscape:window-maximized="0"
     showguides="false"
     inkscape:guide-bbox="true"
     fit-margin-top="0"
     fit-margin-left="0"
     fit-margin-right="0"
     fit-margin-bottom="0">
    <sodipodi:guide
       position="744.96834,323.96904"
       orientation="0,1"
       id="guide4167" />
    <sodipodi:guide
       position="300.68263,349.68333"
       orientation="1,0"
       id="guide4169" />
    <sodipodi:guide
       position="580.61681,473.08381"
       orientation="0,1"
       id="guide4171" />
    <sodipodi:guide
       position="770.68263,43.969072"
       orientation="0,1"
       id="guide4173" />
    <sodipodi:guide
       position="512.93659,591.27163"
       orientation="0,1"
       id="guide4175" />
    <sodipodi:guide
       position="326.05838,-73.408672"
       orientation="0,1"
       id="guide4177" />
    <sodipodi:guide
       position="548.53977,100.39764"
       orientation="1,0"
       id="guide4179" />
    <sodipodi:guide
       position="49.254071,521.11188"
       orientation="1,0"
       id="guide4181" />
  </sodipodi:namedview>
  <metadata
     id="metadata7">
    <rdf:RDF>
      <cc:Work
         rdf:about="">
        <dc:format>image/svg+xml</dc:format>
        <dc:type
           rdf:resource="http://purl.org/dc/dcmitype/StillImage" />
        <dc:title></dc:title>
      </cc:Work>
    </rdf:RDF>
  </metadata>
  <g
     inkscape:groupmode="layer"
     id="layer5"
     inkscape:label="bg"
     transform="translate(-109.31736,-286.419)">
    <rect
       style="opacity:1;fill:#ffffff;fill-opacity:0.97916667;stroke:#000000;stroke-width:0.80811;stroke-linecap:round;stroke-linejoin:round;stroke-miterlimit:4;stroke-dasharray:none;stroke-dashoffset:0;stroke-opacity:1"
       id="rect5363"
       width="607.90326"
       height="487.67563"
       x="109.72141"
       y="286.82303" />
  </g>
  <g
     inkscape:label="Layer 1"
     inkscape:groupmode="layer"
     id="layer1"
     style="display:none"
     transform="translate(-109.31736,-286.419)">
    <path
       style="opacity:1;fill:#6918b7;fill-opacity:0.53205124;stroke:none;stroke-width:2.38244557;stroke-linecap:round;stroke-linejoin:round;stroke-miterlimit:4;stroke-dasharray:none;stroke-dashoffset:0;stroke-opacity:1"
       d="m 618.82396,351.57727 c 0,43.35944 -13.70766,83.51728 -37.02584,116.37639 -36.47529,51.39962 -96.46614,84.94028 -164.29083,84.94028 -69.80775,0 -131.31687,-35.53067 -167.42952,-89.49417 -21.40466,-31.98519 -33.88714,-70.44613 -33.88714,-111.8225 0,-111.18412 90.13254,-201.31666 201.31666,-201.31667 111.18413,0 201.31667,90.13254 201.31667,201.31667 z"
       id="path4136"
       inkscape:connector-curvature="0"
       sodipodi:nodetypes="sssssss" />
    <path
       style="opacity:1;fill:#6918b7;fill-opacity:0.53205124;stroke:none;stroke-width:2.38244557;stroke-linecap:round;stroke-linejoin:round;stroke-miterlimit:4;stroke-dasharray:none;stroke-dashoffset:0;stroke-opacity:1"
       d="m 619.50748,711.00769 c 10e-6,110.25522 -90.13698,199.63474 -201.32657,199.63474 -111.18959,0 -201.32658,-89.37952 -201.32657,-199.63474 0,-49.24513 17.98172,-94.3257 47.78954,-129.13781 36.92909,-43.12893 92.0099,-70.49692 153.53703,-70.49692 59.27907,0 112.57429,25.40461 149.417,65.83313 32.26305,35.40314 51.90957,82.32731 51.90957,133.8016 z"
       id="ellipse4138"
       inkscape:connector-curvature="0"
       sodipodi:nodetypes="sssssss" />
    <path
       style="opacity:1;fill:#6918b7;fill-opacity:0.53205124;stroke:none;stroke-width:2;stroke-linecap:round;stroke-linejoin:round;stroke-miterlimit:4;stroke-dasharray:none;stroke-dashoffset:0;stroke-opacity:1"
       d="m 690.91264,422.65433 c -10e-6,75.51729 -52.77472,138.70838 -123.45485,154.70397 -11.30907,2.55935 -23.07654,3.91045 -35.15957,3.91045 -87.60033,1e-5 -158.61443,-71.01409 -158.61443,-158.61442 0,-37.64959 13.11757,-72.2354 35.03172,-99.43644 29.0741,-36.08836 73.63197,-59.17799 123.58271,-59.17799 87.60033,0 158.61443,71.0141 158.61442,158.61443 z"
       id="circle4161"
       inkscape:connector-curvature="0"
       sodipodi:nodetypes="sssssss" />
    <path
       style="opacity:1;fill:#6918b7;fill-opacity:0.53205124;stroke:none;stroke-width:2.40069389;stroke-linecap:round;stroke-linejoin:round;stroke-miterlimit:4;stroke-dasharray:none;stroke-dashoffset:0;stroke-opacity:1"
       d="m 656.95103,591.49658 c 0,77.36701 -62.71836,140.08537 -140.08537,140.08537 -77.36701,0 -140.08537,-62.71836 -140.08537,-140.08537 0,-14.62916 2.24244,-28.73456 6.40235,-41.99123 17.83995,-56.85189 70.94516,-98.09414 133.68302,-98.09414 23.47333,0 45.5982,5.77341 65.03208,15.97768 44.61931,23.42855 75.05329,70.214 75.05329,124.10769 z"
       id="circle4163"
       inkscape:connector-curvature="0"
       sodipodi:nodetypes="sssssss" />
    <path
       style="opacity:1;fill:#6918b7;fill-opacity:0.53205124;stroke:none;stroke-width:2.40069389;stroke-linecap:round;stroke-linejoin:round;stroke-miterlimit:4;stroke-dasharray:none;stroke-dashoffset:0;stroke-opacity:1"
       d="m 444.37959,591.78229 c -1e-5,77.36701 -62.71836,140.08537 -140.08537,140.08537 -77.36701,0 -140.08536,-62.71836 -140.08537,-140.08537 0,-58.03865 35.29535,-107.83362 85.59261,-129.09149 16.75029,-7.07942 35.16439,-10.99389 54.49276,-10.99389 63.44133,0 117.03279,42.17233 134.2698,100.01242 3.78361,12.69618 5.81557,26.14728 5.81557,40.07296 z"
       id="circle4165"
       inkscape:connector-curvature="0"
       sodipodi:nodetypes="sssssss" />
    <path
       style="opacity:1;fill:#6918b7;fill-opacity:0.53205124;stroke:none;stroke-width:2;stroke-linecap:round;stroke-linejoin:round;stroke-miterlimit:4;stroke-dasharray:none;stroke-dashoffset:0;stroke-opacity:1"
       d="m 409.86374,323.33187 c 22.85032,27.48272 36.59199,62.80798 36.59199,101.34278 10e-6,87.60033 -71.01409,158.61443 -158.61442,158.61443 -7.54824,0 -14.97334,-0.52726 -22.24047,-1.54696 m 0,0 C 188.53012,570.92781 129.22688,504.72674 129.22688,424.67465 c 0,-87.60033 71.0141,-158.61443 158.61443,-158.61442 49.06552,0 92.92762,22.2785 122.02243,57.27164"
       id="circle4183"
       inkscape:connector-curvature="0"
       sodipodi:nodetypes="cssccssc" />
  </g>
  <g
     inkscape:groupmode="layer"
     id="layer3"
     inkscape:label="faded circles"
     style="display:none"
     transform="translate(-109.31736,-286.419)">
    <path
       sodipodi:nodetypes="sssssss"
       inkscape:connector-curvature="0"
       id="path5339"
       d="m 618.82396,351.57727 c 0,43.35944 -13.70766,83.51728 -37.02584,116.37639 -36.47529,51.39962 -96.46614,84.94028 -164.29083,84.94028 -69.80775,0 -131.31687,-35.53067 -167.42952,-89.49417 -21.40466,-31.98519 -33.88714,-70.44613 -33.88714,-111.8225 0,-111.18412 90.13254,-201.31666 201.31666,-201.31667 111.18413,0 201.31667,90.13254 201.31667,201.31667 z"
       style="display:inline;opacity:1;fill:none;fill-opacity:0.53205124;stroke:#470280;stroke-width:1;stroke-linecap:round;stroke-linejoin:round;stroke-miterlimit:4;stroke-dasharray:none;stroke-dashoffset:0;stroke-opacity:1" />
    <path
       sodipodi:nodetypes="sssssss"
       inkscape:connector-curvature="0"
       id="path5341"
       d="m 619.50748,711.00769 c 10e-6,110.25522 -90.13698,199.63474 -201.32657,199.63474 -111.18959,0 -201.32658,-89.37952 -201.32657,-199.63474 0,-49.24513 17.98172,-94.3257 47.78954,-129.13781 36.92909,-43.12893 92.0099,-70.49692 153.53703,-70.49692 59.27907,0 112.57429,25.40461 149.417,65.83313 32.26305,35.40314 51.90957,82.32731 51.90957,133.8016 z"
       style="display:inline;opacity:1;fill:url(#linearGradient5381);fill-opacity:1;stroke:none;stroke-width:1;stroke-linecap:round;stroke-linejoin:round;stroke-miterlimit:4;stroke-dasharray:none;stroke-dashoffset:0;stroke-opacity:1" />
    <path
       sodipodi:nodetypes="sssssss"
       inkscape:connector-curvature="0"
       id="path5343"
       d="m 690.91264,422.65433 c -10e-6,75.51729 -52.77472,138.70838 -123.45485,154.70397 -11.30907,2.55935 -23.07654,3.91045 -35.15957,3.91045 -87.60033,1e-5 -158.61443,-71.01409 -158.61443,-158.61442 0,-37.64959 13.11757,-72.2354 35.03172,-99.43644 29.0741,-36.08836 73.63197,-59.17799 123.58271,-59.17799 87.60033,0 158.61443,71.0141 158.61442,158.61443 z"
       style="display:inline;opacity:1;fill:none;fill-opacity:0.53333285;stroke:#470280;stroke-width:1;stroke-linecap:round;stroke-linejoin:round;stroke-miterlimit:4;stroke-dasharray:none;stroke-dashoffset:0;stroke-opacity:1" />
    <path
       sodipodi:nodetypes="sssssss"
       inkscape:connector-curvature="0"
       id="path5345"
       d="m 656.95103,591.49658 c 0,77.36701 -62.71836,140.08537 -140.08537,140.08537 -77.36701,0 -140.08537,-62.71836 -140.08537,-140.08537 0,-14.62916 2.24244,-28.73456 6.40235,-41.99123 17.83995,-56.85189 70.94516,-98.09414 133.68302,-98.09414 23.47333,0 45.5982,5.77341 65.03208,15.97768 44.61931,23.42855 75.05329,70.214 75.05329,124.10769 z"
       style="display:inline;opacity:1;fill:none;fill-opacity:0.53333291;stroke:url(#linearGradient4765);stroke-width:1;stroke-linecap:round;stroke-linejoin:round;stroke-miterlimit:4;stroke-dasharray:none;stroke-dashoffset:0;stroke-opacity:1" />
    <path
       sodipodi:nodetypes="sssssss"
       inkscape:connector-curvature="0"
       id="path5347"
       d="m 444.37959,591.78229 c -1e-5,77.36701 -62.71836,140.08537 -140.08537,140.08537 -77.36701,0 -140.08536,-62.71836 -140.08537,-140.08537 0,-58.03865 35.29535,-107.83362 85.59261,-129.09149 16.75029,-7.07942 35.16439,-10.99389 54.49276,-10.99389 63.44133,0 117.03279,42.17233 134.2698,100.01242 3.78361,12.69618 5.81557,26.14728 5.81557,40.07296 z"
       style="display:inline;opacity:1;fill:none;fill-opacity:0.53333291;stroke:url(#linearGradient4773);stroke-width:1;stroke-linecap:round;stroke-linejoin:round;stroke-miterlimit:4;stroke-dasharray:none;stroke-dashoffset:0;stroke-opacity:1" />
    <path
       sodipodi:nodetypes="cssccssc"
       inkscape:connector-curvature="0"
       id="path5349"
       d="m 409.86374,323.33187 c 22.85032,27.48272 36.59199,62.80798 36.59199,101.34278 10e-6,87.60033 -71.01409,158.61443 -158.61442,158.61443 -7.54824,0 -14.97334,-0.52726 -22.24047,-1.54696 m 0,0 C 188.53012,570.92781 129.22688,504.72674 129.22688,424.67465 c 0,-87.60033 71.0141,-158.61443 158.61443,-158.61442 49.06552,0 92.92762,22.2785 122.02243,57.27164"
       style="display:inline;opacity:1;fill:none;fill-opacity:0.53333285;stroke:#470280;stroke-width:1;stroke-linecap:round;stroke-linejoin:round;stroke-miterlimit:4;stroke-dasharray:none;stroke-dashoffset:0;stroke-opacity:1" />
  </g>
  <g
     inkscape:groupmode="layer"
     id="layer2"
     inkscape:label="lines"
     transform="translate(-109.31736,-286.419)">
    <g
       id="g5330"
       style="stroke-width:6;stroke-miterlimit:4;stroke-dasharray:none;fill:#000000;fill-opacity:1;stroke:#000000;stroke-opacity:1"
       transform="translate(-56.568542,58.588847)"
       inkscape:path-effect="#path-effect6969">
      <path
         style="color:#000000;font-style:normal;font-variant:normal;font-weight:normal;font-stretch:normal;font-size:medium;line-height:normal;font-family:sans-serif;text-indent:0;text-align:start;text-decoration:none;text-decoration-line:none;text-decoration-style:solid;text-decoration-color:#000000;letter-spacing:normal;word-spacing:normal;text-transform:none;direction:ltr;block-progression:tb;writing-mode:lr-tb;baseline-shift:baseline;text-anchor:start;white-space:normal;clip-rule:nonzero;display:inline;overflow:visible;visibility:visible;opacity:1;isolation:auto;mix-blend-mode:normal;color-interpolation:sRGB;color-interpolation-filters:linearRGB;solid-color:#000000;solid-opacity:1;fill:#5c017a;fill-opacity:1;fill-rule:nonzero;stroke:none;stroke-width:6;stroke-linecap:round;stroke-linejoin:round;stroke-miterlimit:4;stroke-dasharray:none;stroke-dashoffset:0;stroke-opacity:1;color-rendering:auto;image-rendering:auto;shape-rendering:auto;text-rendering:auto;enable-background:accumulate"
         d="m 406.94141,325.89453 c 0.53595,-0.36071 4.27714,3.71608 10.11541,11.79399 5.33911,7.38726 14.36876,20.832 20.88423,36.79209 0,0 0,10e-6 0,10e-6 5.81393,14.35152 9.38821,31.44293 9.61003,51.08188 0.24101,19.80611 -3.29962,41.40358 -12.16715,62.52591 -2.26215,5.38457 -4.85455,10.70225 -7.77742,15.91382 -7.45973,13.30092 -16.58968,25.05572 -26.70705,35.05153 -16.01387,15.82028 -34.00122,26.78755 -51.27713,33.74701 -24.85656,9.99237 -47.41582,11.46372 -62.26146,10.73806 0,0 0,0 0,0 -4.24516,-0.37862 -8.13639,-0.84445 -11.16341,-1.25743 -7.10093,-0.97714 -11.02169,-1.48764 -11.00674,-2.14159 0.0123,-0.53923 3.94777,-1.175 11.21894,-1.25218 5.97196,-0.068 3.9444,-0.003 11.04586,-0.0749 0,0 1e-5,0 1e-5,0 14.41421,-0.72597 35.82526,-3.43287 58.91248,-13.7095 16.10959,-7.15491 32.80266,-17.89713 47.64648,-32.93445 9.37968,-9.50121 17.87683,-20.58886 24.87085,-33.05802 2.74112,-4.88696 5.18328,-9.86549 7.32614,-14.90023 8.40066,-19.72271 12.03955,-39.97458 12.2804,-58.64803 0.2221,-18.67103 -2.4743,-34.77814 -7.27516,-48.54309 0,0 0,-10e-6 0,-10e-6 -11.41985,-33.01337 -27.20731,-49.15157 -24.27531,-51.12487 z"
         id="path4206"
         inkscape:original-d="m 406.94141,325.89453 c 25.59318,38.02722 36.08007,61.69809 36.08007,99.66797 10e-6,85.97901 -69.63427,155.61328 -155.61328,155.61328 -11.36345,-0.45536 -10.8431,-0.77602 -22.21748,-1.03597"
         inkscape:connector-curvature="0"
         sodipodi:nodetypes="cscc" />
      <path
         style="opacity:1;fill:#5c017a;fill-opacity:1;stroke:none;stroke-width:1;stroke-linecap:round;stroke-linejoin:round;stroke-miterlimit:4;stroke-dasharray:none;stroke-dashoffset:0;stroke-opacity:1"
         d="m 567.45779,578.07259 c 0.13162,0.58157 -12.21297,5.95854 -35.15957,6.77762 -16.81503,0.6004 -39.35799,-1.55437 -63.43155,-11.33234 -17.84902,-7.2542 -36.08493,-18.54727 -52.20171,-34.51599 -8.56307,-8.48496 -16.40057,-18.17468 -23.14398,-28.94454 -4.66994,-7.45832 -8.6497,-15.17097 -11.93987,-23.01699 -9.04294,-21.57946 -12.61163,-43.58199 -12.35861,-63.67173 0.42473,-33.04144 11.20515,-59.35337 20.7851,-75.80606 9.7379,-16.72395 18.21422,-24.02811 18.70791,-23.63038 1.00048,0.80602 -5.97137,9.26361 -14.02488,26.11183 -7.94449,16.62013 -16.96996,42.17437 -16.54555,73.32461 0.25287,18.97758 3.95657,39.64116 12.5708,59.80805 3.13371,7.34173 6.89426,14.56961 11.28032,21.5737 6.33282,10.11286 13.65181,19.25278 21.6206,27.29967 14.99396,15.14196 31.96551,26.12377 48.63318,33.46877 22.46695,9.90685 43.82875,12.99657 60.04824,13.59706 22.08264,0.81685 34.83036,-2.49796 35.15957,-1.04328 z"
         id="path4210"
         inkscape:connector-curvature="0"
         sodipodi:nodetypes="cssc"
         inkscape:original-d="m 567.45779,578.07259 c -11.30907,2.55935 -23.07654,3.91045 -35.15957,3.91045 -87.60033,1e-5 -158.61443,-71.01409 -158.61443,-158.61442 0,-37.64959 13.11757,-72.2354 35.03172,-99.43644" />
      <path
         style="opacity:1;fill:#5c017a;fill-opacity:1;stroke:none;stroke-width:1;stroke-linecap:round;stroke-linejoin:round;stroke-miterlimit:4;stroke-dasharray:none;stroke-dashoffset:0;stroke-opacity:1"
         d="m 581.79812,467.95366 c 0.57206,0.40596 -3.68472,9.03817 -14.55507,21.87748 -10.76475,12.71459 -28.40261,29.72369 -53.83269,43.65655 -25.85461,14.15782 -58.84528,24.39117 -95.90307,24.40576 -0.94345,2.7e-4 -1.8884,-0.006 -2.83477,-0.0193 -36.94478,-0.51458 -69.80458,-11.12538 -95.58955,-25.69334 -25.94118,-14.66433 -43.7435,-32.52771 -54.5416,-45.87862 -10.90086,-13.47797 -15.04907,-22.51058 -14.4636,-22.90238 0.93823,-0.62787 6.54147,7.39992 18.25943,19.55232 11.63046,12.06167 29.66692,28.35445 54.89356,41.63347 25.04941,13.19337 56.47286,22.80362 91.58063,23.28978 0.90007,0.0125 1.79873,0.0188 2.6959,0.0191 35.21383,0.0146 66.76867,-9.20812 91.89981,-21.98481 24.7408,-12.57113 42.60497,-28.03793 54.17112,-39.46797 11.65816,-11.52096 17.31986,-19.12669 18.2199,-18.48799 z"
         id="path4213"
         inkscape:connector-curvature="0"
         sodipodi:nodetypes="csc"
         inkscape:original-d="m 581.79812,467.95366 c -36.47529,51.39962 -96.46614,84.94028 -164.29083,84.94028 -69.80775,0 -131.31687,-35.53067 -167.42952,-89.49417" />
      <path
         style="color:#000000;font-style:normal;font-variant:normal;font-weight:normal;font-stretch:normal;font-size:medium;line-height:normal;font-family:sans-serif;text-indent:0;text-align:start;text-decoration:none;text-decoration-line:none;text-decoration-style:solid;text-decoration-color:#000000;letter-spacing:normal;word-spacing:normal;text-transform:none;direction:ltr;block-progression:tb;writing-mode:lr-tb;baseline-shift:baseline;text-anchor:start;white-space:normal;clip-rule:nonzero;display:inline;overflow:visible;visibility:visible;opacity:1;isolation:auto;mix-blend-mode:normal;color-interpolation:sRGB;color-interpolation-filters:linearRGB;solid-color:#000000;solid-opacity:1;fill:#8a86e0;fill-opacity:1;fill-rule:nonzero;stroke:none;stroke-width:6;stroke-linecap:round;stroke-linejoin:round;stroke-miterlimit:4;stroke-dasharray:none;stroke-dashoffset:0;stroke-opacity:1;color-rendering:auto;image-rendering:auto;shape-rendering:auto;text-rendering:auto;enable-background:accumulate"
         d="m 583.29297,464.73242 c -0.52032,0.99094 -6.9514,-1.88887 -18.43994,-5.22817 -11.46682,-3.33298 -28.05062,-7.03585 -47.9878,-6.62149 -16.44794,0.33679 -34.57702,3.56492 -52.73131,11.03837 -11.04883,4.54839 -21.04149,10.23794 -29.85945,16.65308 0,0 -1e-5,1e-5 -1e-5,1e-5 -20.46282,14.86981 -33.50555,32.5824 -41.5349,46.03875 -8.02544,13.44983 -11.12276,22.40129 -12.41925,21.99445 -0.8386,-0.26315 0.20485,-9.91972 7.07825,-24.80361 6.84371,-14.8196 19.59828,-34.45815 41.14185,-50.91784 0,0 10e-6,-10e-6 10e-6,-10e-6 9.29534,-7.09416 19.9458,-13.33223 31.7874,-18.20876 19.46589,-8.0163 38.98547,-11.07272 56.53741,-10.73574 21.24483,0.41451 38.44687,5.63288 49.79876,10.56173 11.41924,4.95809 17.01059,9.50246 16.62898,10.22923 z"
         id="path4216"
         inkscape:original-d="m 583.29297,464.73242 c -19.85127,-10.42343 -42.46249,-16.32031 -66.42774,-16.32031 -64.0526,0 -118.31986,42.11617 -136.54492,100.19531"
         inkscape:connector-curvature="0"
         sodipodi:nodetypes="csc" />
      <path
         style="color:#000000;font-style:normal;font-variant:normal;font-weight:normal;font-stretch:normal;font-size:medium;line-height:normal;font-family:sans-serif;text-indent:0;text-align:start;text-decoration:none;text-decoration-line:none;text-decoration-style:solid;text-decoration-color:#000000;letter-spacing:normal;word-spacing:normal;text-transform:none;direction:ltr;block-progression:tb;writing-mode:lr-tb;baseline-shift:baseline;text-anchor:start;white-space:normal;clip-rule:nonzero;display:inline;overflow:visible;visibility:visible;opacity:1;isolation:auto;mix-blend-mode:normal;color-interpolation:sRGB;color-interpolation-filters:linearRGB;solid-color:#000000;solid-opacity:1;fill:#8a86e0;fill-opacity:1;fill-rule:nonzero;stroke:none;stroke-width:6;stroke-linecap:round;stroke-linejoin:round;stroke-miterlimit:4;stroke-dasharray:none;stroke-dashoffset:0;stroke-opacity:1;color-rendering:auto;image-rendering:auto;shape-rendering:auto;text-rendering:auto;enable-background:accumulate"
         d="m 249.18865,465.72124 c 0.0845,0.19995 -0.15133,0.53641 -0.69662,0.99253 l 0,0 c -0.14186,-0.13562 -0.30211,-0.29999 -0.48374,-0.49693 l 0,0 c -0.0381,-0.041 -0.0773,-0.0836 -0.11748,-0.12801 0,0 0,0 0,0 -0.0102,-0.0112 -0.0205,-0.0226 -0.0308,-0.0342 -0.0147,-0.06 -0.0161,-0.10998 -0.0223,-0.16931 -0.01,-0.13926 -0.0222,-0.28679 -0.0379,-0.44279 0.1313,-0.10141 0.27135,-0.20502 0.42284,-0.31389 0.41315,-0.29666 0.90344,-0.62294 1.47439,-0.98257 1.08474,-0.68318 2.46245,-1.48652 4.09976,-2.38549 0,0 0,0 0,0 4.41876,-2.42522 12.21128,-6.21244 21.4644,-8.68551 7.23208,-1.91679 14.70425,-2.99578 23.71187,-3.9345 0,0 10e-6,0 10e-6,0 20.57491,-2.15725 45.70424,0.34879 70.27735,11.97915 7.85352,3.71704 15.10741,8.12279 21.69361,13.07468 17.14352,12.89897 28.6954,28.69922 35.8597,43.03603 7.15238,14.31298 9.87095,26.92957 10.75516,34.87478 0.0472,0.37634 0.1753,0.74771 0.37687,0.8723 0.23041,0.23889 0.69766,0.32925 1.10139,0.31624 0.53206,-0.0412 1.00144,-0.24657 1.30589,-0.52578 1.33026,-0.99294 0.21798,-1.64429 1.09649,-1.91639 -0.12267,0.038 1.62759,0.50474 0.6223,2.9708 -0.35798,0.79806 -1.08739,1.655 -2.23693,2.11273 -0.88553,0.37279 -2.05664,0.50968 -3.30791,0.0493 -1.21374,-0.54335 -2.24087,-1.57365 -2.69682,-2.95678 -2.29206,-7.3638 -6.15019,-18.95459 -13.76166,-31.95971 -7.62188,-13.02293 -18.95929,-27.31416 -34.95679,-38.99688 -6.13081,-4.48063 -12.85293,-8.49388 -20.11923,-11.92957 -22.6951,-10.73081 -45.97526,-13.70483 -65.36556,-12.74462 0,0 -10e-6,0 -10e-6,0 -9.03389,0.4657 -15.93913,0.93612 -22.93627,2.13986 -8.41102,1.42466 -17.04462,4.22309 -21.46872,5.57227 0,0 0,0 0,0 -1.78554,0.54671 -3.29974,0.98063 -4.54807,1.29508 -0.6503,0.16384 -1.22802,0.2948 -1.72151,0.39055 -0.18107,0.0352 -0.3528,0.0656 -0.51027,0.0912 -0.10204,-0.11839 -0.19863,-0.22863 -0.29039,-0.3312 -0.0369,-0.0444 -0.0766,-0.0915 -0.10807,-0.12783 0.008,0.0392 0.002,-0.0876 0.004,-0.0468 0,0 0,0 0,0 -0.003,-0.0592 -0.005,-0.1168 -0.006,-0.17279 l 0,0 c -0.0242,-0.26117 -0.0354,-0.48813 -0.0358,-0.68271 l 0,0 c 0.70346,-0.0648 1.10797,-0.006 1.19348,0.19682 z"
         id="path4219"
         inkscape:original-d="m 249.18865,465.72124 c -3.6849,1.55729 1.63073,-0.72918 5.31563,-2.28647 16.38934,-6.92687 25.9246,-8.69482 44.79064,-10.16607 67.36528,-5.25344 123.77755,38.45823 136.39453,99.29771 1.11455,3.88606 6.94611,2.14689 5.75,-1.71485"
         inkscape:connector-curvature="0"
         sodipodi:nodetypes="ccscc" />
      <path
         style="opacity:1;fill:#5c017a;fill-opacity:1;stroke:none;stroke-width:1;stroke-linecap:round;stroke-linejoin:round;stroke-miterlimit:4;stroke-dasharray:none;stroke-dashoffset:0;stroke-opacity:1"
         d="m 264.64388,581.86988 c -0.57305,-0.49067 3.96243,-7.96684 14.6465,-18.83854 10.60985,-10.79619 27.52934,-24.98365 51.05917,-36.50255 23.35701,-11.4289 52.28112,-19.63349 84.64295,-20.13129 1.06494,-0.0164 2.12778,-0.0243 3.18841,-0.0237 32.47296,0.0164 61.49866,7.84478 84.87713,18.85581 22.89206,10.78685 39.50713,24.09979 49.97455,34.22853 10.54539,10.20417 15.11764,17.24465 14.56532,17.74798 -0.7794,0.71027 -6.61357,-5.15258 -17.8424,-14.00285 -11.16732,-8.80177 -27.93797,-20.63521 -50.20746,-30.17516 -22.73379,-9.74359 -50.47944,-16.67234 -81.36714,-16.65593 -1.0094,5.4e-4 -2.02096,0.009 -3.03458,0.0242 -30.78193,0.47368 -58.42334,7.79564 -81.11962,17.97104 -22.87682,10.2512 -39.95537,22.92749 -51.30078,32.38759 -11.40034,9.5059 -17.259,15.81967 -18.08205,15.11494 z"
         id="path4222"
         inkscape:connector-curvature="0"
         sodipodi:nodetypes="csc"
         inkscape:original-d="m 264.64388,581.86988 c 36.92909,-43.12893 92.0099,-70.49692 153.53703,-70.49692 59.27907,0 112.57429,25.40461 149.417,65.83313" />
    </g>
    <path
       style="fill:#000000;fill-rule:evenodd;stroke:none;stroke-width:1px;stroke-linecap:butt;stroke-linejoin:miter;stroke-opacity:1"
       d="m 634.59668,413.26808 c 2.75991,-0.0223 5.45238,56.07567 6.00999,125.21859 0.5576,69.14292 -1.22978,125.27698 -3.98969,125.29924 -2.75991,0.0223 -5.45238,-56.07567 -6.00999,-125.21859 -0.5576,-69.14292 1.22978,-125.27698 3.98969,-125.29924 z"
       id="path6955"
       inkscape:path-effect="#path-effect6957"
       inkscape:original-d="m 634.59668,413.26808 2.0203,250.51783"
       inkscape:connector-curvature="0" />
  </g>
  <g
     inkscape:groupmode="layer"
     id="layer4"
     inkscape:label="text"
     transform="translate(-109.31736,-286.419)">
    <text
       sodipodi:linespacing="105%"
       id="text5365"
       y="969.08154"
       x="-298.78159"
       style="font-style:normal;font-variant:normal;font-weight:normal;font-stretch:normal;font-size:30px;line-height:104.99999523%;font-family:calibri;-inkscape-font-specification:calibri;letter-spacing:0px;word-spacing:0px;fill:#d4ced8;fill-opacity:1;stroke:none;stroke-width:1px;stroke-linecap:butt;stroke-linejoin:miter;stroke-opacity:1"
       xml:space="preserve"><tspan
         style="font-style:normal;font-variant:normal;font-weight:bold;font-stretch:normal;font-size:75px;line-height:104.99999523%;font-family:Rockwell;-inkscape-font-specification:'Rockwell Bold';text-align:center;text-anchor:middle;fill:#d4ced8;fill-opacity:1"
         y="969.08154"
         x="-289.40659"
         id="tspan5367"
         sodipodi:role="line">Nutritional </tspan><tspan
         style="font-style:normal;font-variant:normal;font-weight:bold;font-stretch:normal;font-size:75px;line-height:104.99999523%;font-family:Rockwell;-inkscape-font-specification:'Rockwell Bold';text-align:center;text-anchor:middle;fill:#d4ced8;fill-opacity:1"
         y="1047.8315"
         x="-298.78159"
         sodipodi:role="line"
         id="tspan5373">Traditions</tspan></text>
    <text
       xml:space="preserve"
       style="font-style:normal;font-variant:normal;font-weight:normal;font-stretch:normal;font-size:30px;line-height:104.99999523%;font-family:calibri;-inkscape-font-specification:calibri;letter-spacing:0px;word-spacing:0px;fill:#2f2933;fill-opacity:0.97916667;stroke:none;stroke-width:1px;stroke-linecap:butt;stroke-linejoin:miter;stroke-opacity:1;filter:url(#filter4801)"
       x="-297.16953"
       y="968.93872"
       id="text4775"
       sodipodi:linespacing="105%"><tspan
         sodipodi:role="line"
         id="tspan4777"
         x="-287.79453"
         y="968.93872"
         style="font-style:normal;font-variant:normal;font-weight:bold;font-stretch:normal;font-size:75px;line-height:104.99999523%;font-family:Rockwell;-inkscape-font-specification:'Rockwell Bold';text-align:center;text-anchor:middle;fill:#2f2933;fill-opacity:0.97916667">Nutritional </tspan><tspan
         id="tspan4779"
         sodipodi:role="line"
         x="-297.16953"
         y="1047.6887"
         style="font-style:normal;font-variant:normal;font-weight:bold;font-stretch:normal;font-size:75px;line-height:104.99999523%;font-family:Rockwell;-inkscape-font-specification:'Rockwell Bold';text-align:center;text-anchor:middle;fill:#2f2933;fill-opacity:0.97916667">Traditions</tspan></text>
  </g>
</svg>
