<?xml version="1.0" encoding="UTF-8" standalone="no"?>
<!-- Created with Inkscape (http://www.inkscape.org/) -->

<svg
   xmlns:dc="http://purl.org/dc/elements/1.1/"
   xmlns:cc="http://creativecommons.org/ns#"
   xmlns:rdf="http://www.w3.org/1999/02/22-rdf-syntax-ns#"
   xmlns:svg="http://www.w3.org/2000/svg"
   xmlns="http://www.w3.org/2000/svg"
   xmlns:sodipodi="http://sodipodi.sourceforge.net/DTD/sodipodi-0.dtd"
   xmlns:inkscape="http://www.inkscape.org/namespaces/inkscape"
   width="242.01031mm"
   height="259.46536mm"
   viewBox="0 0 857.5169 919.36547"
   id="svg2"
   version="1.1"
   inkscape:version="0.91 r13725"
   sodipodi:docname="concept2-05.svg"
   inkscape:export-filename="/Users/janereynolds/Desktop/concept2-final.png"
   inkscape:export-xdpi="90"
   inkscape:export-ydpi="90">
  <defs
     id="defs4" />
  <sodipodi:namedview
     id="base"
     pagecolor="#ffffff"
     bordercolor="#666666"
     borderopacity="1.0"
     inkscape:pageopacity="0.0"
     inkscape:pageshadow="2"
     inkscape:zoom="1.4087225"
     inkscape:cx="433.78421"
     inkscape:cy="190.09136"
     inkscape:document-units="px"
     inkscape:current-layer="layer6"
     showgrid="false"
     showguides="false"
     inkscape:guide-bbox="true"
     inkscape:window-width="1070"
     inkscape:window-height="710"
     inkscape:window-x="35"
     inkscape:window-y="0"
     inkscape:window-maximized="0"
     inkscape:snap-global="false"
     fit-margin-top="0"
     fit-margin-left="0"
     fit-margin-right="0"
     fit-margin-bottom="0">
    <sodipodi:guide
       position="428.63499,138.10676"
       orientation="1,0"
       id="guide4254" />
    <sodipodi:guide
       position="442.21707,259.50761"
       orientation="0,1"
       id="guide4193" />
  </sodipodi:namedview>
  <metadata
     id="metadata7">
    <rdf:RDF>
      <cc:Work
         rdf:about="">
        <dc:format>image/svg+xml</dc:format>
        <dc:type
           rdf:resource="http://purl.org/dc/dcmitype/StillImage" />
        <dc:title />
      </cc:Work>
    </rdf:RDF>
  </metadata>
  <g
     inkscape:groupmode="layer"
     id="layer6"
     inkscape:label="bg"
     transform="translate(-347.66763,27.686609)"
     style="display:inline">
    <rect
       style="opacity:1;fill:#dcdcd2;fill-opacity:0.76433122;stroke:none;stroke-width:5;stroke-linecap:round;stroke-linejoin:round;stroke-miterlimit:4;stroke-dasharray:none;stroke-dashoffset:0;stroke-opacity:1"
       id="rect4295"
       width="857.51685"
       height="919.36548"
       x="347.66763"
       y="-27.686609"
       inkscape:export-filename="/Users/janereynolds/Desktop/rect4295.png"
       inkscape:export-xdpi="90"
       inkscape:export-ydpi="90" />
  </g>
  <g
     inkscape:groupmode="layer"
     id="layer5"
     inkscape:label="reference shapes copy"
     style="display:none"
     transform="translate(-347.66763,27.686609)">
    <ellipse
       transform="translate(398.2859,325.49491)"
       ry="345.63965"
       rx="381.2103"
       cy="21.219341"
       cx="379.38245"
       id="ellipse4258"
       style="display:inline;opacity:1;fill:#6918b7;fill-opacity:0.53333285;stroke:#3f0d85;stroke-width:2.14935637;stroke-linecap:round;stroke-linejoin:round;stroke-miterlimit:4;stroke-dasharray:none;stroke-dashoffset:0;stroke-opacity:1" />
    <ellipse
       transform="translate(398.2859,325.49491)"
       ry="371.41827"
       rx="368.41827"
       cy="165.69394"
       cx="669.38245"
       id="ellipse4260"
       style="display:inline;opacity:1;fill:#189cb7;fill-opacity:0.53333285;stroke:#3f0d85;stroke-width:4.16354179;stroke-linecap:round;stroke-linejoin:round;stroke-miterlimit:4;stroke-dasharray:none;stroke-dashoffset:0;stroke-opacity:1" />
    <ellipse
       transform="translate(398.2859,325.49491)"
       ry="371.41827"
       rx="368.41827"
       style="display:inline;opacity:1;fill:#aa18b7;fill-opacity:0.53333285;stroke:#3f0d85;stroke-width:4.16354227;stroke-linecap:round;stroke-linejoin:round;stroke-miterlimit:4;stroke-dasharray:none;stroke-dashoffset:0;stroke-opacity:1"
       id="ellipse4262"
       cx="89.382439"
       cy="165.69391" />
    <ellipse
       transform="translate(398.2859,325.49491)"
       ry="356.27814"
       rx="478.06381"
       cy="555.86218"
       cx="80.999756"
       id="ellipse4264"
       style="display:inline;opacity:1;fill:#6918b7;fill-opacity:0.53333285;stroke:#3f0d85;stroke-width:2.44372249;stroke-linecap:round;stroke-linejoin:round;stroke-miterlimit:4;stroke-dasharray:none;stroke-dashoffset:0;stroke-opacity:1" />
    <ellipse
       transform="translate(398.2859,325.49491)"
       style="display:inline;opacity:1;fill:#6918b7;fill-opacity:0.53333285;stroke:#3f0d85;stroke-width:2.44372249;stroke-linecap:round;stroke-linejoin:round;stroke-miterlimit:4;stroke-dasharray:none;stroke-dashoffset:0;stroke-opacity:1"
       id="ellipse4266"
       cx="675.28552"
       cy="555.86218"
       rx="478.06381"
       ry="356.27814" />
  </g>
  <g
     inkscape:label="reference shapes"
     inkscape:groupmode="layer"
     id="layer1"
     style="display:none"
     transform="translate(50.618279,353.18152)">
    <ellipse
       style="opacity:1;fill:#6918b7;fill-opacity:0.53333285;stroke:none;stroke-width:2.14935637;stroke-linecap:round;stroke-linejoin:round;stroke-miterlimit:4;stroke-dasharray:none;stroke-dashoffset:0;stroke-opacity:1"
       id="path4203"
       cx="379.38245"
       cy="21.219341"
       rx="381.2103"
       ry="345.63965" />
    <path
       style="opacity:1;fill:#189cb7;fill-opacity:0.53333285;stroke:none;stroke-width:4.16400003;stroke-linecap:round;stroke-linejoin:round;stroke-miterlimit:4;stroke-dasharray:none;stroke-dashoffset:0;stroke-opacity:1"
       d="m 704.42823,204.99091 c -83.8252,104.82151 -169.3069,136.70392 -221.00329,154.88668 -39.73976,12.64348 -97.85867,10.32104 -131.2591,-6.13244 -31.80475,-54.92003 -50.02841,-118.81146 -50.02841,-186.99391 0,-204.129606 164.19193,-369.44045 366.2963,-371.04931 134.92885,141.597204 101.25875,319.99822 35.9945,409.289 z"
       id="path4240"
       inkscape:connector-curvature="0"
       sodipodi:nodetypes="cccsccc" />
    <path
       style="opacity:1;fill:#2cb718;fill-opacity:0.40784314;stroke:none;stroke-width:2.44372249;stroke-linecap:round;stroke-linejoin:round;stroke-miterlimit:4;stroke-dasharray:none;stroke-dashoffset:0;stroke-opacity:1"
       d="m 477.94682,361.30144 c 40.89685,31.70421 64.65051,112.54394 77.87906,161.22571 -74.75129,-35.10688 -186.94485,-93.84495 -226.49155,-212.55636 -1.04336,-3.13197 5.23771,-4.04448 7.90903,-6.03529 33.74553,-25.14893 72.01656,-46.14983 113.38662,-62.56235 68.54097,-27.19189 145.58852,-41.7891 224.65554,-41.7891 7.15936,0 14.30216,0.11968 21.42359,0.35756 3.62054,0.65709 6.69589,5.6938 2.91364,10.75807 -73.85117,98.88345 -175.91455,125.892 -221.67593,150.60176 z"
       id="ellipse4250"
       inkscape:connector-curvature="0"
       sodipodi:nodetypes="ccsssscsc" />
    <path
       style="opacity:1;fill:#aa18b7;fill-opacity:0.53333285;stroke:none;stroke-width:4.16354227;stroke-linecap:round;stroke-linejoin:round;stroke-miterlimit:4;stroke-dasharray:none;stroke-dashoffset:0;stroke-opacity:1"
       d="m 457.70217,166.0159 c 0,75.29807 -22.60347,144.2362 -61.04511,202.03857 -47.35787,1.76016 -81.39474,-5.62909 -118.9797,-12.44776 C 158.49128,324.17814 112.29421,271.85884 55.151355,202.44447 5.7274947,135.12491 -16.225445,36.23064 7.5499047,-55.227906 17.493795,-93.479876 36.979375,-141.04875 76.270755,-188.30433 c 3.79221,-4.56088 7.93648,-8.97354 12.12926,-13.49938 0.51774,-0.58086 2.69207,-3.15473 3.46904,-3.4654 202.398325,1.2651 365.833125,166.940514 365.833115,371.28472 z"
       id="circle4242"
       inkscape:connector-curvature="0"
       sodipodi:nodetypes="scccssccss" />
    <path
       style="opacity:1;fill:#2cb718;fill-opacity:0.40784314;stroke:none;stroke-width:2.44372249;stroke-linecap:round;stroke-linejoin:round;stroke-miterlimit:4;stroke-dasharray:none;stroke-dashoffset:0;stroke-opacity:1"
       d="m 1489.9104,544.80361 c 0,0 -53.0976,-9.10491 -77.6439,-14.01403 7.334,-22.73725 34.6617,-30.2737 42.4421,-46.3537 14.0987,11.96913 35.2018,60.36773 35.2018,60.36773 z"
       id="path4309"
       inkscape:connector-curvature="0"
       sodipodi:nodetypes="cccc" />
    <path
       style="opacity:1;fill:#6918b7;fill-opacity:0.43589747;stroke:none;stroke-width:2.44372249;stroke-linecap:round;stroke-linejoin:round;stroke-miterlimit:4;stroke-dasharray:none;stroke-dashoffset:0;stroke-opacity:1"
       d="m 399.5771,370.3928 c -8.84216,12.98694 -11.73228,13.27993 -20.82365,25.86526 -36.36549,57.67954 -142.62649,124.51308 -179.40476,121.74979 7.50301,-76.07228 59.35029,-157.77769 137.59895,-216.09268 33.55676,-25.00825 71.58852,-45.91474 112.69263,-62.28648 68.71469,-27.36902 146.01555,-42.06497 225.34954,-42.06497 7.60939,0 15.20008,0.1352 22.76629,0.40382 -2.71379,29.46098 -18.50552,28.01048 -47.36887,65.56184 C 592.66506,316.83869 504.18766,365.04751 399.5771,370.3928 Z"
       id="ellipse4248"
       inkscape:connector-curvature="0"
       sodipodi:nodetypes="cccsssccc" />
    <path
       sodipodi:nodetypes="cccc"
       inkscape:connector-curvature="0"
       id="path4305"
       d="m 1335.4949,488.60463 c 0,0 45.5215,-24.23013 70.0678,-33.96822 -2.2833,25.76771 -13.4485,50.98183 -21.2288,67.06183 -14.0988,-11.96913 -48.839,-33.09361 -48.839,-33.09361 z"
       style="opacity:1;fill:#2cb718;fill-opacity:0.40784314;stroke:none;stroke-width:2.44372249;stroke-linecap:round;stroke-linejoin:round;stroke-miterlimit:4;stroke-dasharray:none;stroke-dashoffset:0;stroke-opacity:1" />
    <path
       style="opacity:1;fill:#aa18b7;fill-opacity:0.53333285;stroke:none;stroke-width:2.44372249;stroke-linecap:round;stroke-linejoin:round;stroke-miterlimit:4;stroke-dasharray:none;stroke-dashoffset:0;stroke-opacity:1"
       d="m 1323.4037,490.979 c 0,0 -45.5215,-24.23013 -70.0678,-33.96822 2.2833,25.76771 13.4485,50.98183 21.2288,67.06183 14.0988,-11.96913 48.839,-33.09361 48.839,-33.09361 z"
       id="path4307"
       inkscape:connector-curvature="0"
       sodipodi:nodetypes="cccc"
       inkscape:transform-center-x="-80.000004"
       inkscape:transform-center-y="-44.285701" />
    <path
       sodipodi:nodetypes="ssccssccss"
       inkscape:connector-curvature="0"
       id="path4313"
       d="m -370.62291,44.797595 c 0,166.528185 -110.55617,301.949145 -258.48724,354.602315 -23.60619,8.40217 52.10134,-136.22216 78.46243,-165.01151 -119.18608,-31.42857 -165.38315,-83.74787 -222.52601,-153.162235 -49.42386,-67.31956 -71.3768,-166.21383 -47.60145,-257.672375 9.94389,-38.25197 29.42947,-85.82085 68.72085,-133.07643 3.79221,-4.56088 7.93648,-8.97354 12.12926,-13.49938 0.51774,-0.58086 2.69207,-3.15473 3.46904,-3.4654 202.39833,1.2651 365.83313,166.94052 365.83312,371.284725 z"
       style="opacity:1;fill:#aa18b7;fill-opacity:0.53333285;stroke:none;stroke-width:4.16354227;stroke-linecap:round;stroke-linejoin:round;stroke-miterlimit:4;stroke-dasharray:none;stroke-dashoffset:0;stroke-opacity:1" />
  </g>
  <g
     inkscape:groupmode="layer"
     id="layer9"
     inkscape:label="bottom leaves"
     style="display:none">
    <path
       transform="translate(28.109123,30.116949)"
       sodipodi:nodetypes="cccccc"
       inkscape:connector-curvature="0"
       id="path4386"
       d="m 499.76205,687.2097 c 41.87171,51.69706 58.872,92.43173 74.43149,146.06732 0.45557,1.45033 -0.007,2.32282 -1.2125,1.81086 C 516.47709,812.23959 462.45356,783.86296 407.66993,719.48694 l 14.6257,-21.14887 c 29.49259,-0.74937 51.87436,-5.59591 77.46642,-11.12837 z"
       style="display:inline;fill:#8b5eb6;fill-opacity:1;fill-rule:evenodd;stroke:#8b5eb6;stroke-width:1.00000012;stroke-linecap:butt;stroke-linejoin:round;stroke-miterlimit:4;stroke-dasharray:none;stroke-opacity:1" />
    <path
       transform="translate(28.109123,30.116949)"
       style="display:inline;fill:#8b5eb6;fill-opacity:1;fill-rule:evenodd;stroke:#8b5eb6;stroke-width:1.00000012;stroke-linecap:butt;stroke-linejoin:round;stroke-miterlimit:4;stroke-dasharray:none;stroke-opacity:1"
       d="m 303.32681,684.14667 c -41.68201,51.46285 -62.28434,97.08963 -77.93172,150.57058 -0.73726,2.56025 -0.0833,3.00235 1.78311,2.22741 56.33278,-22.81985 113.63085,-52.0469 167.46259,-117.87138 l -15.07198,-21.27066 c -30.20245,-2.1691 -50.29501,-6.70376 -76.242,-13.65595 z"
       id="path4384"
       inkscape:connector-curvature="0"
       sodipodi:nodetypes="cccccc" />
  </g>
  <g
     inkscape:groupmode="layer"
     id="layer7"
     inkscape:label="leaf fills"
     style="display:inline"
     transform="translate(28.109123,30.116949)">
    <path
       sodipodi:nodetypes="ccsc"
       inkscape:connector-curvature="0"
       id="path4363"
       d="M 254.04066,1072.9619 C 165.38352,974.5439 28.713386,917.40013 -168.60038,918.36158 c 22.37482,35.96209 66.56531,82.09632 111.934626,109.42492 78.36304,47.2024 197.776104,74.405 310.706414,45.1754 z"
       style="fill:#8b30ba;fill-opacity:1;fill-rule:evenodd;stroke:#8b30ba;stroke-width:3;stroke-linecap:butt;stroke-linejoin:round;stroke-miterlimit:4;stroke-dasharray:none;stroke-opacity:1" />
    <ellipse
       transform="translate(22.509156,323.06457)"
       style="display:inline;opacity:1;fill:#a542bc;fill-opacity:1;stroke:none;stroke-width:5;stroke-linecap:round;stroke-linejoin:round;stroke-miterlimit:4;stroke-dasharray:none;stroke-dashoffset:0;stroke-opacity:1"
       id="ellipse4316"
       cx="1079.0118"
       cy="-36.279762"
       rx="68.93187"
       ry="68.809326" />
    <ellipse
       transform="translate(22.509156,323.06457)"
       ry="68.095039"
       rx="67.093636"
       cy="-33.142052"
       cx="938.37463"
       id="ellipse4318"
       style="display:inline;opacity:1;fill:#834cb8;fill-opacity:1;stroke:none;stroke-width:5;stroke-linecap:round;stroke-linejoin:round;stroke-miterlimit:4;stroke-dasharray:none;stroke-dashoffset:0;stroke-opacity:1" />
    <ellipse
       transform="translate(22.509156,323.06457)"
       style="display:inline;opacity:1;fill:#7239a6;fill-opacity:1;stroke:none;stroke-width:5;stroke-linecap:round;stroke-linejoin:round;stroke-miterlimit:4;stroke-dasharray:none;stroke-dashoffset:0;stroke-opacity:1"
       id="ellipse4320"
       cx="936.94598"
       cy="-175.99921"
       rx="67.093636"
       ry="68.095039" />
    <ellipse
       transform="translate(22.509156,323.06457)"
       style="display:inline;opacity:1;fill:#546295;fill-opacity:1;stroke:none;stroke-width:5;stroke-linecap:round;stroke-linejoin:round;stroke-miterlimit:4;stroke-dasharray:none;stroke-dashoffset:0;stroke-opacity:1"
       id="ellipse4322"
       cx="936.94604"
       cy="106.85796"
       rx="67.093636"
       ry="68.095039" />
    <ellipse
       transform="translate(22.509156,323.06457)"
       style="display:inline;opacity:1;fill:#8b30ba;fill-opacity:1;stroke:none;stroke-width:5;stroke-linecap:round;stroke-linejoin:round;stroke-miterlimit:4;stroke-dasharray:none;stroke-dashoffset:0;stroke-opacity:1"
       id="ellipse4324"
       cx="1075.5176"
       cy="-175.99919"
       rx="67.093636"
       ry="68.095039" />
    <ellipse
       transform="translate(22.509156,323.06457)"
       ry="68.095039"
       rx="67.093636"
       cy="246.85796"
       cx="1076.9462"
       id="ellipse4326"
       style="display:inline;opacity:1;fill:#94cc85;fill-opacity:1;stroke:none;stroke-width:5;stroke-linecap:round;stroke-linejoin:round;stroke-miterlimit:4;stroke-dasharray:none;stroke-dashoffset:0;stroke-opacity:1" />
    <ellipse
       transform="translate(22.509156,323.06457)"
       ry="68.095039"
       rx="67.093636"
       cy="246.85796"
       cx="932.66034"
       id="ellipse4328"
       style="display:inline;opacity:1;fill:#5689bc;fill-opacity:1;stroke:none;stroke-width:5;stroke-linecap:round;stroke-linejoin:round;stroke-miterlimit:4;stroke-dasharray:none;stroke-dashoffset:0;stroke-opacity:1" />
    <ellipse
       transform="translate(22.509156,323.06457)"
       style="display:inline;opacity:1;fill:#807d9b;fill-opacity:1;stroke:none;stroke-width:5;stroke-linecap:round;stroke-linejoin:round;stroke-miterlimit:4;stroke-dasharray:none;stroke-dashoffset:0;stroke-opacity:1"
       id="ellipse4330"
       cx="1078.3746"
       cy="108.28653"
       rx="67.093636"
       ry="68.095039" />
    <path
       style="fill:#7239a6;fill-opacity:1;fill-rule:evenodd;stroke:none;stroke-width:1.00000012;stroke-linecap:butt;stroke-linejoin:round;stroke-miterlimit:4;stroke-dasharray:none;stroke-opacity:1"
       d="m 395.26938,269.50863 c -65.70035,92.62435 -76.54188,190.99202 -63.77515,290.71498 22.88174,7.74344 47.9792,20.97279 69.563,32.87504 20.12623,-11.54232 43.6849,-22.40225 68.97492,-31.95357 13.34448,-103.8285 0.70714,-199.69258 -61.67537,-290.64208 -3.90524,-5.46325 -8.72714,-6.74586 -13.0874,-0.99437 z"
       id="path4365"
       inkscape:connector-curvature="0"
       sodipodi:nodetypes="cccccc" />
    <path
       sodipodi:nodetypes="ccccc"
       inkscape:connector-curvature="0"
       id="path4367"
       d="m -195.73474,927.78312 c -71.29299,95.13218 -90.46391,194.69968 -70.77481,300.53568 23.5916,7.3885 47.18321,18.5848 70.77481,34.0007 22.13402,-13.5501 43.85714,-24.4494 71.27675,-34.0007 21.34507,-107.9979 -3.0218,-206.7292 -71.27675,-300.53568 z"
       style="fill:none;fill-rule:evenodd;stroke:#000000;stroke-width:1px;stroke-linecap:butt;stroke-linejoin:miter;stroke-opacity:1" />
    <path
       sodipodi:nodetypes="ccsscsscc"
       inkscape:connector-curvature="0"
       id="path4411"
       d="m 436.93307,1056.3382 c -13.42256,-13.4606 -47.89341,-34.4593 -48.03103,-34.1024 0,0 1.20383,-0.7344 1.82513,-1.0687 80.30001,-43.21451 175.2724,-67.14397 305.29271,-71.62024 1.61313,-0.0555 3.23394,1.95981 4.85961,1.97009 -0.69028,0.98304 0.0266,2.32414 -0.68853,3.31311 -24.67183,34.11908 -65.40067,71.23334 -108.46014,99.43424 -49.29293,32.2833 -113.55908,56.6741 -184.80312,60.4049 10.68061,-13.8659 22.836,-39.425 30.00537,-58.331 z"
       style="fill:#5c4ea6;fill-opacity:1;fill-rule:evenodd;stroke:#5c4ea6;stroke-width:2;stroke-linecap:butt;stroke-linejoin:round;stroke-miterlimit:4;stroke-dasharray:none;stroke-opacity:1" />
    <path
       style="fill:#5c4ea6;fill-opacity:1;fill-rule:evenodd;stroke:#5c4ea6;stroke-width:2;stroke-linecap:butt;stroke-linejoin:round;stroke-miterlimit:4;stroke-dasharray:none;stroke-opacity:1"
       d="m 16.673418,1099.2784 c 97.022522,3.3403 169.252652,16.2637 235.710002,41.1983 1.72411,7.8574 21.1208,59.5347 23.37788,65.5928 7.16937,18.906 19.32329,44.4661 30.0039,58.332 -71.24404,-3.7309 -135.5098,-28.1229 -184.80273,-60.4063 -43.059466,-28.2008 -83.787146,-65.3145 -108.458972,-99.4336 -0.71513,-0.9889 -1.06398,-2.3294 -0.33453,-3.6674 0.91581,-1.43 2.89132,-1.6713 4.50445,-1.6158 z"
       id="path4418"
       inkscape:connector-curvature="0"
       sodipodi:nodetypes="ccccsscc" />
    <ellipse
       ry="68.095039"
       rx="67.093636"
       cy="19.290031"
       cx="1029.8799"
       id="ellipse4447"
       style="display:inline;opacity:1;fill:#af83d8;fill-opacity:1;stroke:none;stroke-width:5;stroke-linecap:round;stroke-linejoin:round;stroke-miterlimit:4;stroke-dasharray:none;stroke-dashoffset:0;stroke-opacity:1" />
    <path
       sodipodi:nodetypes="ccsccc"
       inkscape:connector-curvature="0"
       id="path4516"
       d="m 303.66431,683.60166 c -22.27033,28.19546 -51.93696,62.64209 -65.55769,90.62142 -6.17318,12.43725 7.81628,15.21782 26.22883,9.11699 34.95628,-11.58244 94.55767,-42.82136 125.6738,-65.16673 -3.60427,-3.78132 -10.04799,-12.87924 -15.07198,-21.27066 -27.363,-2.52403 -45.32597,-6.34883 -71.27296,-13.30102 z"
       style="display:inline;fill:#834cb8;fill-opacity:1;fill-rule:evenodd;stroke:none;stroke-width:1.00000012;stroke-linecap:butt;stroke-linejoin:round;stroke-miterlimit:4;stroke-dasharray:none;stroke-opacity:1" />
    <path
       style="display:inline;fill:#8b5eb6;fill-opacity:1;fill-rule:evenodd;stroke:#8b5eb6;stroke-width:1.00000012;stroke-linecap:butt;stroke-linejoin:round;stroke-miterlimit:4;stroke-dasharray:none;stroke-opacity:1"
       d="m 963.82321,994.84618 c 21.42658,30.50282 38.77449,61.59912 46.61339,92.36452 1.4902,5.5719 -0.4291,8.4429 -9.0592,6.1316 -36.4566,-10.0423 -87.45903,-33.948 -127.80338,-65.5216 L 888.646,1006.55 c 30.20245,-2.1691 49.23022,-4.7516 75.17721,-11.70382 z"
       id="path4520"
       inkscape:connector-curvature="0"
       sodipodi:nodetypes="cccccc" />
    <path
       style="display:inline;fill:#834cb8;fill-opacity:1;fill-rule:evenodd;stroke:none;stroke-width:1.00000012;stroke-linecap:butt;stroke-linejoin:round;stroke-miterlimit:4;stroke-dasharray:none;stroke-opacity:1"
       d="m 491.31004,685.54857 c 20.76448,24.17987 56.58152,61.19713 70.20225,89.17646 6.17318,12.43725 -5.30653,14.71587 -23.71908,8.61504 -34.95628,-11.58244 -94.55767,-43.53122 -125.6738,-65.87659 5.61764,-7.62367 9.14137,-14.20038 12.94239,-20.91573 30.20245,-2.1691 42.811,-5.55284 66.24824,-10.99918 z"
       id="path4522"
       inkscape:connector-curvature="0"
       sodipodi:nodetypes="ccsccc" />
    <path
       sodipodi:nodetypes="ccccsscc"
       inkscape:connector-curvature="0"
       id="path4428"
       d="m 715.95571,524.47326 c -97.02253,3.3403 -182.4682,22.06126 -237.88266,42.72939 -4.45993,22.22098 -10.42559,42.50802 -18.46075,62.04574 13.07137,14.2613 23.80788,28.00009 38.18962,45.58081 43.47906,-10.71597 81.17647,-24.2307 113.86473,-45.63914 43.05945,-28.20082 83.78715,-65.3145 108.45898,-99.4336 0.71513,-0.9889 1.06398,-2.3294 0.33453,-3.6674 -0.91581,-1.43 -2.89132,-1.6713 -4.50445,-1.6158 z"
       style="fill:#834cb8;fill-opacity:1;fill-rule:evenodd;stroke:none;stroke-width:1.00000006;stroke-linecap:butt;stroke-linejoin:round;stroke-miterlimit:4;stroke-dasharray:none;stroke-opacity:1" />
    <path
       style="fill:#834cb8;fill-opacity:1;fill-rule:evenodd;stroke:none;stroke-width:1.00000006;stroke-linecap:butt;stroke-linejoin:round;stroke-miterlimit:4;stroke-dasharray:none;stroke-opacity:1"
       d="m 86.417607,522.46546 c 97.022533,3.3403 182.468203,22.06126 237.882663,42.72939 4.58623,22.85023 10.76466,43.65544 19.14836,63.70376 -14.70698,12.00492 -32.43586,31.72889 -41.18902,44.42082 -15.44058,-3.17518 -79.0975,-24.88121 -111.55294,-46.13717 -43.05945,-28.20082 -83.78715,-65.3145 -108.458983,-99.4336 -0.71513,-0.9889 -1.06398,-2.3294 -0.33453,-3.6674 0.91581,-1.43 2.89132,-1.6713 4.50445,-1.6158 z"
       id="path4575"
       inkscape:connector-curvature="0"
       sodipodi:nodetypes="ccccsscc" />
    <path
       inkscape:transform-center-y="-44.285701"
       inkscape:transform-center-x="80.000009"
       sodipodi:nodetypes="ccccssccccc"
       inkscape:connector-curvature="0"
       id="path4190"
       d="m 333.4309,1066.609 c 20.28341,-11.6742 36.81826,-19.0584 59.13213,-28.094 -5.97988,26.7019 -9.56464,37.2822 -17.0888,56.7142 -9.86789,24.4366 -18.64606,46.0576 -29.34962,63.1762 -3.84627,5.9445 -15.05536,20.6415 -16.99878,23.2615 -3.02686,4.0807 -4.21485,3.141 -7.15027,-0.2417 -2.14402,-2.4707 -13.85507,-18.9925 -16.81018,-23.6346 -11.17227,-18.0338 -18.54724,-38.8392 -26.72118,-59.2094 -9.27435,-22.784 -12.85911,-33.3643 -18.83899,-60.0662 22.31387,9.0356 38.84872,16.4198 59.13213,28.094 7.94573,4.5203 7.85669,4.1103 14.69356,0 z"
       style="display:inline;opacity:1;fill:#99c38e;fill-opacity:1;stroke:none;stroke-width:2;stroke-linecap:round;stroke-linejoin:round;stroke-miterlimit:4;stroke-dasharray:none;stroke-dashoffset:0;stroke-opacity:1" />
    <path
       style="display:inline;opacity:1;fill:#99c38e;fill-opacity:1;stroke:none;stroke-width:2;stroke-linecap:round;stroke-linejoin:round;stroke-miterlimit:4;stroke-dasharray:none;stroke-dashoffset:0;stroke-opacity:1"
       d="m 363.43261,601.70571 c 5.72861,25.24432 9.36144,34.25856 18.41309,56.49546 0.59735,1.11625 0.58597,2.49363 -0.32267,3.4845 -12.94466,10.31335 -31.28478,30.54057 -41.72614,43.58051 -0.75444,1.02835 -0.7502,1.79481 0.2529,2.10859 18.44156,4.60536 34.85429,8.2838 63.36238,10.15258 2.50856,0.19797 4.70947,0.70248 5.15426,1.56054 2.95511,4.64214 14.66652,21.16407 16.81054,23.63477 2.93542,3.38268 4.12353,4.3209 7.15039,0.24023 1.94342,-2.62002 11.39496,-17.56817 15.24123,-23.51269 0.47056,-0.65247 1.56583,-0.9352 3.16551,-0.96093 27.20477,-1.98903 44.74373,-5.70106 62.68532,-10.19289 1.12348,-0.25949 1.1508,-0.79779 0.58389,-1.63738 -11.53471,-13.84219 -23.77913,-32.32003 -35.24531,-43.84394 -0.97512,-1.10685 -0.90864,-2.54749 -0.083,-4.61389 7.40956,-19.136 10.99981,-31.31172 16.81824,-57.17851 0.12167,-0.643 -0.33219,-0.97321 -1.02537,-0.68417 -21.66226,8.79884 -37.94738,16.12091 -57.83584,27.56776 -6.83687,4.11032 -6.74763,4.52035 -14.69336,0 -19.68826,-11.33163 -35.84535,-18.62109 -57.18332,-27.3025 -0.91695,-0.39027 -1.7108,0.22007 -1.52274,1.10196 z"
       transform="translate(-28.109123,-30.11698)"
       id="path4426"
       inkscape:connector-curvature="0"
       sodipodi:nodetypes="cccccccsscccccccccccc" />
  </g>
  <g
     inkscape:groupmode="layer"
     id="layer8"
     inkscape:label="circle fills"
     style="display:inline">
    <path
       sodipodi:nodetypes="cscssscccssc"
       inkscape:connector-curvature="0"
       id="path4434"
       d="m 704.34734,196.21419 c -5.8893,-3.71194 -20.42569,-2.25338 -26.32435,-2.07303 -66.87242,2.04462 -146.95772,12.23808 -221.23863,39.70646 2.71233,-17.50977 6.00846,-57.58979 4.78309,-84.44008 -0.79774,-17.4802 -2.50113,-36.40234 -6.81231,-59.497553 -9.07026,-48.589795 -22.75867,-79.461237 -37.61664,-106.748834 -8.78331,-16.1311 -21.3618,-40.084151 -31.14451,-46.606664 -1.32635,-0.760828 -1.01049,-1.72544 0.11275,-3.119572 67.13377,-83.301397 165.67533,-135.933997 280.1974,-136.845657 15.47711,16.21132 32.00672,37.92807 42.19626,54.12746 67.05848,106.609969 58.96564,218.010147 23.07142,297.88922 -12.07414,26.86982 -22.44153,43.56609 -27.22448,47.60825 z"
       style="display:inline;opacity:1;fill:#ba99d9;fill-opacity:1;stroke:none;stroke-width:1.00000012;stroke-linecap:round;stroke-linejoin:round;stroke-miterlimit:4;stroke-dasharray:none;stroke-dashoffset:0;stroke-opacity:1"
       transform="translate(50.618279,353.18152)" />
    <path
       transform="translate(28.109123,30.116949)"
       style="display:inline;opacity:1;fill:#ba99d9;fill-opacity:1;stroke:none;stroke-width:1.00000012;stroke-linecap:round;stroke-linejoin:round;stroke-miterlimit:4;stroke-dasharray:none;stroke-dashoffset:0;stroke-opacity:1"
       d="m 75.86481,519.27876 c 5.8893,-3.71194 20.42569,-2.25338 26.32435,-2.07303 66.87242,2.04462 146.60279,11.70569 220.8837,39.17407 -3.06726,-18.04217 -5.65353,-57.0574 -4.42816,-83.90769 0.79774,-17.4802 2.50113,-36.40234 6.81231,-59.49755 9.07026,-48.5898 22.75867,-79.46124 37.61664,-106.74884 8.5263,-15.65908 20.62893,-38.68905 30.27873,-45.98995 2.1003,-1.50119 1.30899,-3.06072 -0.51285,-5.29882 C 325.73589,172.54042 227.71237,120.55978 113.90801,119.65383 98.4309,135.86515 81.90129,157.5819 71.71175,173.78129 4.6532699,280.39126 12.74611,391.79144 48.64033,471.67051 c 12.07414,26.86982 22.44153,43.56609 27.22448,47.60825 z"
       id="path4445"
       inkscape:connector-curvature="0"
       sodipodi:nodetypes="cscssscccssc" />
    <path
       transform="translate(50.618279,353.18152)"
       style="display:inline;opacity:1;fill:#ba99d9;fill-opacity:1;stroke:none;stroke-width:1.00000012;stroke-linecap:round;stroke-linejoin:round;stroke-miterlimit:4;stroke-dasharray:none;stroke-dashoffset:0;stroke-opacity:1"
       d="m 374.67865,-76.781619 c -30.96311,-42.616891 -85.70903,-82.194171 -151.34713,-110.191821 -50.43899,-21.51453 -89.95871,-22.35338 -125.320483,-25.0104 69.701933,-69.09831 169.954743,-112.43647 281.371413,-112.43647 110.9749,0 210.87428,42.99516 280.54085,111.61575 -39.62832,2.62102 -68.50985,7.99812 -92.93012,15.24241 -85.32767,25.31252 -148.16197,73.79001 -183.75377,120.880822 -3.68848,4.430574 -5.26059,4.01394 -8.56076,-0.100291 z"
       id="ellipse4442"
       inkscape:connector-curvature="0"
       sodipodi:nodetypes="cscscscc" />
  </g>
  <g
     inkscape:groupmode="layer"
     id="layer2"
     inkscape:label="reference lines"
     style="display:none"
     transform="translate(50.618279,353.18152)">
    <path
       inkscape:connector-curvature="0"
       id="path4150"
       d="m 384.539,120.73687 c 0,0 238.396,408.10163 -189.90868,511.13719 -20.88692,4.05174 -20.63267,-8.752 -12.80287,-31.27413 0,0 85.77016,-242.11101 416.18285,-270.72088 41.31259,-2.60343 76.24735,6.46071 1.89776,76.45543 -250.26968,235.61066 -437.64807,19.06541 -454.56865,0 -40.2223,-45.32083 -62.758811,-81.79876 -1.6528,-76.45543 171.53997,18.87831 351.34876,100.16519 418.34459,275.82986 4.09566,10.98291 12.85507,32.20783 -14.52853,26.16515 C 119.19799,528.8385 357.59399,120.73687 357.59399,120.73687 c 7.30199,-11.75777 14.40474,-24.910231 26.94501,0 z"
       style="fill:none;fill-rule:evenodd;stroke:#000000;stroke-width:5;stroke-linecap:butt;stroke-linejoin:miter;stroke-miterlimit:4;stroke-dasharray:none;stroke-opacity:1"
       sodipodi:nodetypes="ccccssccccc" />
  </g>
  <g
     inkscape:groupmode="layer"
     id="layer3"
     inkscape:label="lines take 2"
     transform="translate(50.618279,353.18152)"
     style="display:none">
    <path
       sodipodi:nodetypes="cccccscsccc"
       inkscape:connector-curvature="0"
       id="path4283"
       d="m 688.87362,198.6951 c -175.26563,6.4195 -418.60248,54.73168 -491.37229,312.17101 -3.06208,11.07652 5.62615,9.22618 10.57569,7.37349 283.01992,-108.59107 298.3375,-422.152371 176.81109,-575.152293 -5.20597,-6.609361 -8.54987,-6.320614 -13.73309,0.270214 C 251.21561,97.095185 266.4441,410.94394 549.3021,516.81103 c 9.64788,3.61097 9.72984,-0.0426 7.54738,-7.77298 C 483.94096,251.94822 240.76529,203.68141 65.590303,197.26653 c -10.636848,-0.38952 -12.342999,2.99226 -7.001141,10.73334 102.052478,150.68648 418.000498,272.38991 638.845988,3.98609 6.26406,-8.2127 2.32472,-13.70168 -8.56153,-13.29086 z"
       style="fill:none;fill-rule:evenodd;stroke:#ffffff;stroke-width:5;stroke-linecap:butt;stroke-linejoin:miter;stroke-miterlimit:4;stroke-dasharray:none;stroke-opacity:0.6878981" />
    <ellipse
       ry="137.38075"
       rx="135.36044"
       cy="426.46866"
       cx="1654.3441"
       id="ellipse4299"
       style="opacity:1;fill:#6918b7;fill-opacity:0.53333285;stroke:none;stroke-width:5;stroke-linecap:round;stroke-linejoin:round;stroke-miterlimit:4;stroke-dasharray:none;stroke-dashoffset:0;stroke-opacity:1" />
    <ellipse
       style="opacity:1;fill:#189cb7;fill-opacity:0.53333285;stroke:none;stroke-width:5;stroke-linecap:round;stroke-linejoin:round;stroke-miterlimit:4;stroke-dasharray:none;stroke-dashoffset:0;stroke-opacity:1"
       id="ellipse4301"
       cx="1694.7501"
       cy="125.44318"
       rx="135.36044"
       ry="137.38075" />
    <ellipse
       ry="137.38075"
       rx="135.36044"
       cy="295.1488"
       cx="1365.4404"
       id="ellipse4303"
       style="opacity:1;fill:#aa18b7;fill-opacity:0.53333285;stroke:none;stroke-width:5;stroke-linecap:round;stroke-linejoin:round;stroke-miterlimit:4;stroke-dasharray:none;stroke-dashoffset:0;stroke-opacity:1" />
    <ellipse
       style="opacity:1;fill:#2cb718;fill-opacity:0.40784314;stroke:none;stroke-width:5;stroke-linecap:round;stroke-linejoin:round;stroke-miterlimit:4;stroke-dasharray:none;stroke-dashoffset:0;stroke-opacity:1"
       id="path4297"
       cx="1428.0699"
       cy="-3.856344"
       rx="135.36044"
       ry="137.38075" />
  </g>
</svg>
