<?xml version="1.0" encoding="UTF-8" standalone="no"?>
<!-- Created with Inkscape (http://www.inkscape.org/) -->

<svg
   xmlns:dc="http://purl.org/dc/elements/1.1/"
   xmlns:cc="http://creativecommons.org/ns#"
   xmlns:rdf="http://www.w3.org/1999/02/22-rdf-syntax-ns#"
   xmlns:svg="http://www.w3.org/2000/svg"
   xmlns="http://www.w3.org/2000/svg"
   xmlns:sodipodi="http://sodipodi.sourceforge.net/DTD/sodipodi-0.dtd"
   xmlns:inkscape="http://www.inkscape.org/namespaces/inkscape"
   width="227.27754mm"
   height="240.7661mm"
   viewBox="0 0 805.31416 853.10824"
   id="svg2"
   version="1.1"
   inkscape:version="0.91 r13725"
   sodipodi:docname="concept2-02.svg"
   inkscape:export-filename="/Users/janereynolds/Desktop/concept2-02.png"
   inkscape:export-xdpi="90"
   inkscape:export-ydpi="90">
  <defs
     id="defs4" />
  <sodipodi:namedview
     id="base"
     pagecolor="#ffffff"
     bordercolor="#666666"
     borderopacity="1.0"
     inkscape:pageopacity="0.0"
     inkscape:pageshadow="2"
     inkscape:zoom="0.2490293"
     inkscape:cx="405.32644"
     inkscape:cy="132.0377"
     inkscape:document-units="px"
     inkscape:current-layer="layer6"
     showgrid="false"
     showguides="false"
     inkscape:guide-bbox="true"
     inkscape:window-width="1070"
     inkscape:window-height="710"
     inkscape:window-x="35"
     inkscape:window-y="0"
     inkscape:window-maximized="0"
     inkscape:snap-global="false"
     fit-margin-top="0"
     fit-margin-left="0"
     fit-margin-right="0"
     fit-margin-bottom="0">
    <sodipodi:guide
       position="400.52584,101.96645"
       orientation="1,0"
       id="guide4254" />
  </sodipodi:namedview>
  <metadata
     id="metadata7">
    <rdf:RDF>
      <cc:Work
         rdf:about="">
        <dc:format>image/svg+xml</dc:format>
        <dc:type
           rdf:resource="http://purl.org/dc/dcmitype/StillImage" />
        <dc:title></dc:title>
      </cc:Work>
    </rdf:RDF>
  </metadata>
  <g
     inkscape:groupmode="layer"
     id="layer6"
     inkscape:label="bg"
     transform="translate(-375.77676,-2.4303386)">
    <rect
       style="opacity:1;fill:#dcdcd2;fill-opacity:1;stroke:none;stroke-width:5;stroke-linecap:round;stroke-linejoin:round;stroke-miterlimit:4;stroke-dasharray:none;stroke-dashoffset:0;stroke-opacity:1"
       id="rect4295"
       width="805.31415"
       height="853.10822"
       x="375.77676"
       y="2.4303386" />
  </g>
  <g
     inkscape:groupmode="layer"
     id="layer5"
     inkscape:label="reference shapes copy"
     style="display:none"
     transform="translate(-375.77676,-2.4303386)">
    <ellipse
       transform="translate(398.2859,325.49491)"
       ry="345.63965"
       rx="381.2103"
       cy="21.219341"
       cx="379.38245"
       id="ellipse4258"
       style="display:inline;opacity:1;fill:#6918b7;fill-opacity:0.53333285;stroke:#3f0d85;stroke-width:2.14935637;stroke-linecap:round;stroke-linejoin:round;stroke-miterlimit:4;stroke-dasharray:none;stroke-dashoffset:0;stroke-opacity:1" />
    <ellipse
       transform="translate(398.2859,325.49491)"
       ry="371.41827"
       rx="368.41827"
       cy="165.69394"
       cx="669.38245"
       id="ellipse4260"
       style="display:inline;opacity:1;fill:#189cb7;fill-opacity:0.53333285;stroke:#3f0d85;stroke-width:4.16354179;stroke-linecap:round;stroke-linejoin:round;stroke-miterlimit:4;stroke-dasharray:none;stroke-dashoffset:0;stroke-opacity:1" />
    <ellipse
       transform="translate(398.2859,325.49491)"
       ry="371.41827"
       rx="368.41827"
       style="display:inline;opacity:1;fill:#aa18b7;fill-opacity:0.53333285;stroke:#3f0d85;stroke-width:4.16354227;stroke-linecap:round;stroke-linejoin:round;stroke-miterlimit:4;stroke-dasharray:none;stroke-dashoffset:0;stroke-opacity:1"
       id="ellipse4262"
       cx="89.382439"
       cy="165.69391" />
    <ellipse
       transform="translate(398.2859,325.49491)"
       ry="356.27814"
       rx="478.06381"
       cy="555.86218"
       cx="80.999756"
       id="ellipse4264"
       style="display:inline;opacity:1;fill:#6918b7;fill-opacity:0.53333285;stroke:#3f0d85;stroke-width:2.44372249;stroke-linecap:round;stroke-linejoin:round;stroke-miterlimit:4;stroke-dasharray:none;stroke-dashoffset:0;stroke-opacity:1" />
    <ellipse
       transform="translate(398.2859,325.49491)"
       style="display:inline;opacity:1;fill:#6918b7;fill-opacity:0.53333285;stroke:#3f0d85;stroke-width:2.44372249;stroke-linecap:round;stroke-linejoin:round;stroke-miterlimit:4;stroke-dasharray:none;stroke-dashoffset:0;stroke-opacity:1"
       id="ellipse4266"
       cx="675.28552"
       cy="555.86218"
       rx="478.06381"
       ry="356.27814" />
  </g>
  <g
     inkscape:label="reference shapes"
     inkscape:groupmode="layer"
     id="layer1"
     style="display:none"
     transform="translate(22.509156,323.06457)">
    <ellipse
       style="opacity:1;fill:#6918b7;fill-opacity:0.53333285;stroke:none;stroke-width:2.14935637;stroke-linecap:round;stroke-linejoin:round;stroke-miterlimit:4;stroke-dasharray:none;stroke-dashoffset:0;stroke-opacity:1"
       id="path4203"
       cx="379.38245"
       cy="21.219341"
       rx="381.2103"
       ry="345.63965" />
    <path
       style="opacity:1;fill:#189cb7;fill-opacity:0.53333285;stroke:none;stroke-width:4.16400003;stroke-linecap:round;stroke-linejoin:round;stroke-miterlimit:4;stroke-dasharray:none;stroke-dashoffset:0;stroke-opacity:1"
       d="m 704.42823,204.99091 c -83.8252,104.82151 -169.3069,136.70392 -221.00329,154.88668 -39.73976,12.64348 -97.85867,10.32104 -131.2591,-6.13244 -31.80475,-54.92003 -50.02841,-118.81146 -50.02841,-186.99391 0,-204.129606 164.19193,-369.44045 366.2963,-371.04931 134.92885,141.597204 101.25875,319.99822 35.9945,409.289 z"
       id="path4240"
       inkscape:connector-curvature="0"
       sodipodi:nodetypes="cccsccc" />
    <path
       style="opacity:1;fill:#2cb718;fill-opacity:0.40784314;stroke:none;stroke-width:2.44372249;stroke-linecap:round;stroke-linejoin:round;stroke-miterlimit:4;stroke-dasharray:none;stroke-dashoffset:0;stroke-opacity:1"
       d="m 477.94682,361.30144 c 40.89685,31.70421 64.65051,112.54394 77.87906,161.22571 -74.75129,-35.10688 -186.94485,-93.84495 -226.49155,-212.55636 -1.04336,-3.13197 5.23771,-4.04448 7.90903,-6.03529 33.74553,-25.14893 72.01656,-46.14983 113.38662,-62.56235 68.54097,-27.19189 145.58852,-41.7891 224.65554,-41.7891 7.15936,0 14.30216,0.11968 21.42359,0.35756 3.62054,0.65709 6.69589,5.6938 2.91364,10.75807 -73.85117,98.88345 -175.91455,125.892 -221.67593,150.60176 z"
       id="ellipse4250"
       inkscape:connector-curvature="0"
       sodipodi:nodetypes="ccsssscsc" />
    <path
       style="opacity:1;fill:#aa18b7;fill-opacity:0.53333285;stroke:none;stroke-width:4.16354227;stroke-linecap:round;stroke-linejoin:round;stroke-miterlimit:4;stroke-dasharray:none;stroke-dashoffset:0;stroke-opacity:1"
       d="m 457.70217,166.0159 c 0,75.29807 -22.60347,144.2362 -61.04511,202.03857 -47.35787,1.76016 -81.39474,-5.62909 -118.9797,-12.44776 C 158.49128,324.17814 112.29421,271.85884 55.151355,202.44447 5.7274947,135.12491 -16.225445,36.23064 7.5499047,-55.227906 17.493795,-93.479876 36.979375,-141.04875 76.270755,-188.30433 c 3.79221,-4.56088 7.93648,-8.97354 12.12926,-13.49938 0.51774,-0.58086 2.69207,-3.15473 3.46904,-3.4654 202.398325,1.2651 365.833125,166.940514 365.833115,371.28472 z"
       id="circle4242"
       inkscape:connector-curvature="0"
       sodipodi:nodetypes="scccssccss" />
    <path
       style="opacity:1;fill:#2cb718;fill-opacity:0.40784314;stroke:none;stroke-width:2.44372249;stroke-linecap:round;stroke-linejoin:round;stroke-miterlimit:4;stroke-dasharray:none;stroke-dashoffset:0;stroke-opacity:1"
       d="m 1489.9104,544.80361 c 0,0 -53.0976,-9.10491 -77.6439,-14.01403 7.334,-22.73725 34.6617,-30.2737 42.4421,-46.3537 14.0987,11.96913 35.2018,60.36773 35.2018,60.36773 z"
       id="path4309"
       inkscape:connector-curvature="0"
       sodipodi:nodetypes="cccc" />
    <path
       style="opacity:1;fill:#6918b7;fill-opacity:0.43589747;stroke:none;stroke-width:2.44372249;stroke-linecap:round;stroke-linejoin:round;stroke-miterlimit:4;stroke-dasharray:none;stroke-dashoffset:0;stroke-opacity:1"
       d="m 399.5771,370.3928 c -8.84216,12.98694 -11.73228,13.27993 -20.82365,25.86526 -36.36549,57.67954 -142.62649,124.51308 -179.40476,121.74979 7.50301,-76.07228 59.35029,-157.77769 137.59895,-216.09268 33.55676,-25.00825 71.58852,-45.91474 112.69263,-62.28648 68.71469,-27.36902 146.01555,-42.06497 225.34954,-42.06497 7.60939,0 15.20008,0.1352 22.76629,0.40382 -2.71379,29.46098 -18.50552,28.01048 -47.36887,65.56184 C 592.66506,316.83869 504.18766,365.04751 399.5771,370.3928 Z"
       id="ellipse4248"
       inkscape:connector-curvature="0"
       sodipodi:nodetypes="cccsssccc" />
    <path
       sodipodi:nodetypes="cccc"
       inkscape:connector-curvature="0"
       id="path4305"
       d="m 1335.4949,488.60463 c 0,0 45.5215,-24.23013 70.0678,-33.96822 -2.2833,25.76771 -13.4485,50.98183 -21.2288,67.06183 -14.0988,-11.96913 -48.839,-33.09361 -48.839,-33.09361 z"
       style="opacity:1;fill:#2cb718;fill-opacity:0.40784314;stroke:none;stroke-width:2.44372249;stroke-linecap:round;stroke-linejoin:round;stroke-miterlimit:4;stroke-dasharray:none;stroke-dashoffset:0;stroke-opacity:1" />
    <path
       style="opacity:1;fill:#aa18b7;fill-opacity:0.53333285;stroke:none;stroke-width:2.44372249;stroke-linecap:round;stroke-linejoin:round;stroke-miterlimit:4;stroke-dasharray:none;stroke-dashoffset:0;stroke-opacity:1"
       d="m 1323.4037,490.979 c 0,0 -45.5215,-24.23013 -70.0678,-33.96822 2.2833,25.76771 13.4485,50.98183 21.2288,67.06183 14.0988,-11.96913 48.839,-33.09361 48.839,-33.09361 z"
       id="path4307"
       inkscape:connector-curvature="0"
       sodipodi:nodetypes="cccc"
       inkscape:transform-center-x="-80.000004"
       inkscape:transform-center-y="-44.285701" />
    <path
       sodipodi:nodetypes="ssccssccss"
       inkscape:connector-curvature="0"
       id="path4313"
       d="m -370.62291,44.797595 c 0,166.528185 -110.55617,301.949145 -258.48724,354.602315 -23.60619,8.40217 52.10134,-136.22216 78.46243,-165.01151 -119.18608,-31.42857 -165.38315,-83.74787 -222.52601,-153.162235 -49.42386,-67.31956 -71.3768,-166.21383 -47.60145,-257.672375 9.94389,-38.25197 29.42947,-85.82085 68.72085,-133.07643 3.79221,-4.56088 7.93648,-8.97354 12.12926,-13.49938 0.51774,-0.58086 2.69207,-3.15473 3.46904,-3.4654 202.39833,1.2651 365.83313,166.94052 365.83312,371.284725 z"
       style="opacity:1;fill:#aa18b7;fill-opacity:0.53333285;stroke:none;stroke-width:4.16354227;stroke-linecap:round;stroke-linejoin:round;stroke-miterlimit:4;stroke-dasharray:none;stroke-dashoffset:0;stroke-opacity:1" />
  </g>
  <g
     inkscape:groupmode="layer"
     id="layer7"
     inkscape:label="fills"
     style="display:inline">
    <ellipse
       transform="translate(22.509156,323.06457)"
       ry="345.63965"
       rx="381.2103"
       cy="21.219341"
       cx="379.38245"
       id="ellipse4333"
       style="display:inline;opacity:1;fill:#6918b7;fill-opacity:0.53333285;stroke:none;stroke-width:2.14935637;stroke-linecap:round;stroke-linejoin:round;stroke-miterlimit:4;stroke-dasharray:none;stroke-dashoffset:0;stroke-opacity:1" />
    <path
       transform="translate(22.509156,323.06457)"
       sodipodi:nodetypes="scccssccss"
       inkscape:connector-curvature="0"
       id="path4336"
       d="m 457.70217,166.0159 c 0,75.29807 -22.60347,143.17141 -61.04511,200.97378 -47.35787,1.76016 -81.39474,-4.5643 -118.9797,-11.38297 C 158.49128,324.17814 112.29421,271.85884 55.151355,202.44447 5.7274947,135.12491 -16.225445,36.23064 7.5499047,-55.227906 17.493795,-93.479876 36.979375,-141.04875 76.270755,-188.30433 c 3.79221,-4.56088 7.93648,-8.97354 12.12926,-13.49938 0.51774,-0.58086 2.69207,-3.15473 3.46904,-3.4654 202.398325,1.2651 365.833125,166.940514 365.833115,371.28472 z"
       style="display:inline;opacity:1;fill:#aa18b7;fill-opacity:0.53333285;stroke:none;stroke-width:4.16354227;stroke-linecap:round;stroke-linejoin:round;stroke-miterlimit:4;stroke-dasharray:none;stroke-dashoffset:0;stroke-opacity:1" />
    <path
       style="display:inline;opacity:1;fill:#7d9bb8;fill-opacity:1;stroke:none;stroke-width:4.16354227;stroke-linecap:round;stroke-linejoin:round;stroke-miterlimit:4;stroke-dasharray:none;stroke-dashoffset:0;stroke-opacity:1"
       d="m 323.29645,488.36619 c 0,75.29807 22.60347,144.2362 61.04511,202.03857 47.35787,1.76016 81.39474,-5.62909 118.9797,-12.44776 119.18608,-31.42857 165.38315,-83.74787 222.526,-153.16224 49.42386,-67.31956 71.3768,-166.21383 47.60145,-257.67238 -9.94389,-38.25197 -29.42947,-85.82084 -68.72085,-133.07642 -3.79221,-4.56088 -7.93648,-8.97354 -12.12926,-13.49938 -0.51774,-0.58086 -2.69207,-3.15473 -3.46904,-3.4654 -202.39832,1.2651 -365.83312,166.94051 -365.83311,371.28472 z"
       id="path4339"
       inkscape:connector-curvature="0"
       sodipodi:nodetypes="scccssccss" />
    <path
       sodipodi:nodetypes="ccsc"
       inkscape:connector-curvature="0"
       id="path4363"
       d="M 500.99955,677.42607 C 412.34241,579.00811 275.67228,521.86434 78.358518,522.82579 c 22.374812,35.96209 66.565302,82.09637 111.934622,109.42488 78.36304,47.20249 197.7761,74.40503 310.70641,45.1754 z"
       style="fill:#8b30ba;fill-opacity:1;fill-rule:evenodd;stroke:#8b30ba;stroke-width:3;stroke-linecap:butt;stroke-linejoin:round;stroke-miterlimit:4;stroke-dasharray:none;stroke-opacity:1" />
    <path
       style="display:inline;opacity:1;fill:#807d9b;fill-opacity:1;stroke:#807d9b;stroke-width:2;stroke-linecap:round;stroke-linejoin:round;stroke-miterlimit:4;stroke-dasharray:none;stroke-dashoffset:0;stroke-opacity:1"
       d="m 379.5726,690.21609 c -30.87759,-1.74921 -57.18774,-7.15214 -77.06895,-12.13909 15.69713,-16.77997 30.53477,-31.21662 48.94814,-46.44754 5.29246,14.33678 16.40713,42.25705 28.12081,58.58663 z"
       id="path4382"
       inkscape:connector-curvature="0"
       sodipodi:nodetypes="cccc"
       inkscape:transform-center-x="-32.79679"
       inkscape:transform-center-y="72.772776" />
    <ellipse
       transform="translate(22.509156,323.06457)"
       style="display:inline;opacity:1;fill:#a542bc;fill-opacity:1;stroke:none;stroke-width:5;stroke-linecap:round;stroke-linejoin:round;stroke-miterlimit:4;stroke-dasharray:none;stroke-dashoffset:0;stroke-opacity:1"
       id="ellipse4316"
       cx="1079.0118"
       cy="-36.279762"
       rx="68.93187"
       ry="68.809326" />
    <ellipse
       transform="translate(22.509156,323.06457)"
       ry="68.095039"
       rx="67.093636"
       cy="-33.142052"
       cx="938.37463"
       id="ellipse4318"
       style="display:inline;opacity:1;fill:#834cb8;fill-opacity:1;stroke:none;stroke-width:5;stroke-linecap:round;stroke-linejoin:round;stroke-miterlimit:4;stroke-dasharray:none;stroke-dashoffset:0;stroke-opacity:1" />
    <ellipse
       transform="translate(22.509156,323.06457)"
       style="display:inline;opacity:1;fill:#7239a6;fill-opacity:1;stroke:none;stroke-width:5;stroke-linecap:round;stroke-linejoin:round;stroke-miterlimit:4;stroke-dasharray:none;stroke-dashoffset:0;stroke-opacity:1"
       id="ellipse4320"
       cx="936.94598"
       cy="-175.99921"
       rx="67.093636"
       ry="68.095039" />
    <ellipse
       transform="translate(22.509156,323.06457)"
       style="display:inline;opacity:1;fill:#546295;fill-opacity:1;stroke:none;stroke-width:5;stroke-linecap:round;stroke-linejoin:round;stroke-miterlimit:4;stroke-dasharray:none;stroke-dashoffset:0;stroke-opacity:1"
       id="ellipse4322"
       cx="936.94604"
       cy="106.85796"
       rx="67.093636"
       ry="68.095039" />
    <ellipse
       transform="translate(22.509156,323.06457)"
       style="display:inline;opacity:1;fill:#8b30ba;fill-opacity:1;stroke:none;stroke-width:5;stroke-linecap:round;stroke-linejoin:round;stroke-miterlimit:4;stroke-dasharray:none;stroke-dashoffset:0;stroke-opacity:1"
       id="ellipse4324"
       cx="1075.5176"
       cy="-175.99919"
       rx="67.093636"
       ry="68.095039" />
    <ellipse
       transform="translate(22.509156,323.06457)"
       ry="68.095039"
       rx="67.093636"
       cy="246.85796"
       cx="1076.9462"
       id="ellipse4326"
       style="display:inline;opacity:1;fill:#94cc85;fill-opacity:1;stroke:none;stroke-width:5;stroke-linecap:round;stroke-linejoin:round;stroke-miterlimit:4;stroke-dasharray:none;stroke-dashoffset:0;stroke-opacity:1" />
    <ellipse
       transform="translate(22.509156,323.06457)"
       ry="68.095039"
       rx="67.093636"
       cy="246.85796"
       cx="932.66034"
       id="ellipse4328"
       style="display:inline;opacity:1;fill:#5689bc;fill-opacity:1;stroke:none;stroke-width:5;stroke-linecap:round;stroke-linejoin:round;stroke-miterlimit:4;stroke-dasharray:none;stroke-dashoffset:0;stroke-opacity:1" />
    <ellipse
       transform="translate(22.509156,323.06457)"
       style="display:inline;opacity:1;fill:#807d9b;fill-opacity:1;stroke:none;stroke-width:5;stroke-linecap:round;stroke-linejoin:round;stroke-miterlimit:4;stroke-dasharray:none;stroke-dashoffset:0;stroke-opacity:1"
       id="ellipse4330"
       cx="1078.3746"
       cy="108.28653"
       rx="67.093636"
       ry="68.095039" />
    <path
       style="fill:#5c4ea6;fill-opacity:1;fill-rule:evenodd;stroke:#5c4ea6;stroke-width:2;stroke-linecap:butt;stroke-linejoin:round;stroke-miterlimit:4;stroke-dasharray:none;stroke-opacity:1"
       d="m 452.90499,630.42033 c -12.76387,-14.50831 -50.22641,-35.98866 -50.69301,-35.52206 0,0 1.198,-0.74546 1.82513,-1.06875 84.17015,-43.39089 189.56776,-71.1635 322.32611,-70.32431 -22.37481,35.96209 -68.90479,80.64964 -113.69144,108.92293 -50.00726,31.569 -116.73147,53.1468 -187.82003,57.03312 7.48623,-15.99549 20.88387,-42.26447 28.05324,-59.04093 z"
       id="path4345"
       inkscape:connector-curvature="0"
       sodipodi:nodetypes="ccscscc" />
    <path
       style="fill:#834cb8;fill-opacity:1;fill-rule:evenodd;stroke:#834cb8;stroke-width:3;stroke-linecap:butt;stroke-linejoin:round;stroke-miterlimit:4;stroke-dasharray:none;stroke-opacity:1"
       d="m 401.55918,260.88379 c -71.29299,95.13218 -90.46391,194.92358 -70.77481,300.75954 23.23667,9.5181 47.18321,17.04333 70.77481,32.45922 22.13402,-13.55012 46.69659,-24.41005 71.98661,-33.96137 21.34507,-107.99784 -3.73166,-205.4509 -71.98661,-299.25739 z"
       id="path4365"
       inkscape:connector-curvature="0"
       sodipodi:nodetypes="ccccc" />
    <path
       sodipodi:nodetypes="ccccc"
       inkscape:connector-curvature="0"
       id="path4367"
       d="m -95.34495,381.66261 c -71.29299,95.13218 -90.46391,194.69968 -70.77481,300.53564 23.5916,7.38851 47.18321,18.58485 70.77481,34.00074 22.13402,-13.55012 43.85714,-24.44942 71.27675,-34.00074 C -2.7231303,574.20041 -27.09,475.4691 -95.34495,381.66261 Z"
       style="fill:none;fill-rule:evenodd;stroke:#000000;stroke-width:1px;stroke-linecap:butt;stroke-linejoin:miter;stroke-opacity:1" />
    <path
       inkscape:transform-center-y="-44.285701"
       inkscape:transform-center-x="-80.000004"
       sodipodi:nodetypes="cccc"
       inkscape:connector-curvature="0"
       id="path4373"
       d="m 400.24099,595.57028 c -19.92848,-12.65023 -45.86901,-23.49501 -70.4012,-33.59545 5.30022,27.18744 13.30148,48.53145 21.79164,67.27343 12.23303,-12.59105 44.44802,-32.47176 48.60956,-33.67798 z"
       style="display:inline;opacity:1;fill:#807d9b;fill-opacity:1;stroke:#807d9b;stroke-width:2;stroke-linecap:round;stroke-linejoin:round;stroke-miterlimit:4;stroke-dasharray:none;stroke-dashoffset:0;stroke-opacity:1" />
    <path
       style="display:inline;opacity:1;fill:#807d9b;fill-opacity:1;stroke:#807d9b;stroke-width:2;stroke-linecap:round;stroke-linejoin:round;stroke-miterlimit:4;stroke-dasharray:none;stroke-dashoffset:0;stroke-opacity:1"
       d="m 402.31737,595.57028 c 19.92848,-12.65023 48.36429,-25.09221 70.7669,-32.70813 -6.74575,27.18744 -14.11976,47.64413 -21.21619,66.38611 -12.10754,-11.96361 -45.51466,-32.0953 -49.55071,-33.67798 z"
       id="path4378"
       inkscape:connector-curvature="0"
       sodipodi:nodetypes="cccc"
       inkscape:transform-center-x="80.000007"
       inkscape:transform-center-y="-44.285701" />
    <path
       inkscape:transform-center-y="72.772776"
       inkscape:transform-center-x="32.796785"
       sodipodi:nodetypes="cccc"
       inkscape:connector-curvature="0"
       id="path4380"
       d="m 424.2589,689.86116 c 30.87759,-1.74921 57.18774,-6.7972 77.06895,-11.78415 -12.97946,-15.3098 -32.66436,-35.12088 -48.94814,-46.80248 -5.64739,16.64383 -25.63535,55.03458 -28.12081,58.58663 z"
       style="display:inline;opacity:1;fill:#807d9b;fill-opacity:1;stroke:#807d9b;stroke-width:2;stroke-linecap:round;stroke-linejoin:round;stroke-miterlimit:4;stroke-dasharray:none;stroke-dashoffset:0;stroke-opacity:1" />
    <path
       style="fill:#94cc85;fill-opacity:1;fill-rule:evenodd;stroke:#94cc85;stroke-width:3;stroke-linecap:butt;stroke-linejoin:round;stroke-miterlimit:4;stroke-dasharray:none;stroke-opacity:1"
       d="m 352.47505,630.8541 c 19.3286,-18.01693 40.82207,-29.90442 48.80648,-33.31448 8.70678,3.34774 34.91425,20.62215 48.76186,33.30372 -6.44011,15.84552 -11.54308,30.78684 -27.10499,58.49071 -13.6773,0.80411 -28.69991,1.58882 -42.49626,0.38903 -11.9252,-21.29646 -21.54334,-41.85087 -27.96709,-58.86898 z"
       id="path4341"
       inkscape:connector-curvature="0"
       sodipodi:nodetypes="cccccc" />
    <path
       style="fill:#9f73c3;fill-opacity:1;fill-rule:evenodd;stroke:#9f73c3;stroke-width:5;stroke-linecap:butt;stroke-linejoin:round;stroke-miterlimit:4;stroke-dasharray:none;stroke-opacity:1"
       d="m 300.81707,680.63303 c -42.54623,52.52986 -64.63545,102.99473 -80.4046,157.92299 57.21663,-22.98745 120.27324,-54.84555 174.98124,-121.74151 l -16.57782,-23.27846 c -30.20245,-2.1691 -52.05183,-5.95083 -77.99882,-12.90302 z"
       id="path4384"
       inkscape:connector-curvature="0"
       sodipodi:nodetypes="ccccc" />
    <path
       sodipodi:nodetypes="ccccc"
       inkscape:connector-curvature="0"
       id="path4386"
       d="m 501.71417,680.64347 c 42.54623,52.52986 64.63545,102.99473 80.4046,157.92299 C 524.90214,815.57901 461.84553,783.72091 407.13753,716.82495 l 17.99755,-23.98832 c 29.49259,-0.74937 50.98703,-6.6607 76.57909,-12.19316 z"
       style="fill:#9f73c3;fill-opacity:1;fill-rule:evenodd;stroke:#9f73c3;stroke-width:5;stroke-linecap:butt;stroke-linejoin:round;stroke-miterlimit:4;stroke-dasharray:none;stroke-opacity:1" />
    <path
       sodipodi:nodetypes="cccsccc"
       inkscape:connector-curvature="0"
       id="path4388"
       d="m 352.47505,630.8541 c 19.3286,-18.01693 40.82207,-29.90442 48.80648,-33.31448 8.70678,3.34774 34.91425,20.62215 48.76186,33.30372 -6.44011,15.84552 -11.01064,31.09273 -27.10499,58.49071 -8.31469,14.1544 -15.26521,23.11376 -21.71873,29.38518 -6.80887,-6.42738 -14.51203,-17.76726 -20.77753,-28.99615 -11.9252,-21.29646 -21.54334,-41.85087 -27.96709,-58.86898 z"
       style="fill:#94cc85;fill-opacity:1;fill-rule:evenodd;stroke:#94cc85;stroke-width:3;stroke-linecap:butt;stroke-linejoin:round;stroke-miterlimit:4;stroke-dasharray:none;stroke-opacity:1" />
  </g>
  <g
     inkscape:groupmode="layer"
     id="layer2"
     inkscape:label="reference lines"
     style="display:none"
     transform="translate(22.509156,323.06457)">
    <path
       inkscape:connector-curvature="0"
       id="path4150"
       d="m 384.539,120.73687 c 0,0 238.396,408.10163 -189.90868,511.13719 -20.88692,4.05174 -20.63267,-8.752 -12.80287,-31.27413 0,0 85.77016,-242.11101 416.18285,-270.72088 41.31259,-2.60343 76.24735,6.46071 1.89776,76.45543 -250.26968,235.61066 -437.64807,19.06541 -454.56865,0 -40.2223,-45.32083 -62.758811,-81.79876 -1.6528,-76.45543 171.53997,18.87831 351.34876,100.16519 418.34459,275.82986 4.09566,10.98291 12.85507,32.20783 -14.52853,26.16515 C 119.19799,528.8385 357.59399,120.73687 357.59399,120.73687 c 7.30199,-11.75777 14.40474,-24.910231 26.94501,0 z"
       style="fill:none;fill-rule:evenodd;stroke:#000000;stroke-width:5;stroke-linecap:butt;stroke-linejoin:miter;stroke-miterlimit:4;stroke-dasharray:none;stroke-opacity:1"
       sodipodi:nodetypes="ccccssccccc" />
  </g>
  <g
     inkscape:groupmode="layer"
     id="layer3"
     inkscape:label="lines take 2"
     transform="translate(22.509156,323.06457)"
     style="display:none">
    <path
       sodipodi:nodetypes="cccccscsccc"
       inkscape:connector-curvature="0"
       id="path4283"
       d="m 688.87362,198.6951 c -175.26563,6.4195 -418.60248,54.73168 -491.37229,312.17101 -3.06208,11.07652 5.62615,9.22618 10.57569,7.37349 283.01992,-108.59107 298.3375,-422.152371 176.81109,-575.152293 -5.20597,-6.609361 -8.54987,-6.320614 -13.73309,0.270214 C 251.21561,97.095185 266.4441,410.94394 549.3021,516.81103 c 9.64788,3.61097 9.72984,-0.0426 7.54738,-7.77298 C 483.94096,251.94822 240.76529,203.68141 65.590303,197.26653 c -10.636848,-0.38952 -12.342999,2.99226 -7.001141,10.73334 102.052478,150.68648 418.000498,272.38991 638.845988,3.98609 6.26406,-8.2127 2.32472,-13.70168 -8.56153,-13.29086 z"
       style="fill:none;fill-rule:evenodd;stroke:#ffffff;stroke-width:5;stroke-linecap:butt;stroke-linejoin:miter;stroke-miterlimit:4;stroke-dasharray:none;stroke-opacity:0.6878981" />
    <ellipse
       ry="137.38075"
       rx="135.36044"
       cy="426.46866"
       cx="1654.3441"
       id="ellipse4299"
       style="opacity:1;fill:#6918b7;fill-opacity:0.53333285;stroke:none;stroke-width:5;stroke-linecap:round;stroke-linejoin:round;stroke-miterlimit:4;stroke-dasharray:none;stroke-dashoffset:0;stroke-opacity:1" />
    <ellipse
       style="opacity:1;fill:#189cb7;fill-opacity:0.53333285;stroke:none;stroke-width:5;stroke-linecap:round;stroke-linejoin:round;stroke-miterlimit:4;stroke-dasharray:none;stroke-dashoffset:0;stroke-opacity:1"
       id="ellipse4301"
       cx="1694.7501"
       cy="125.44318"
       rx="135.36044"
       ry="137.38075" />
    <ellipse
       ry="137.38075"
       rx="135.36044"
       cy="295.1488"
       cx="1365.4404"
       id="ellipse4303"
       style="opacity:1;fill:#aa18b7;fill-opacity:0.53333285;stroke:none;stroke-width:5;stroke-linecap:round;stroke-linejoin:round;stroke-miterlimit:4;stroke-dasharray:none;stroke-dashoffset:0;stroke-opacity:1" />
    <ellipse
       style="opacity:1;fill:#2cb718;fill-opacity:0.40784314;stroke:none;stroke-width:5;stroke-linecap:round;stroke-linejoin:round;stroke-miterlimit:4;stroke-dasharray:none;stroke-dashoffset:0;stroke-opacity:1"
       id="path4297"
       cx="1428.0699"
       cy="-3.856344"
       rx="135.36044"
       ry="137.38075" />
  </g>
</svg>
